<svg id="Camada_1" data-name="Camada 1" xmlns="http://www.w3.org/2000/svg" viewBox="0 0 200 73"><defs><style>.cls-1{fill:#f25216;}.cls-2{fill:#f25217;}</style></defs><title>brastemp</title><path class="cls-1" d="M170.77,25.78c-1.32-.06-2.65-.05-4,0a2.68,2.68,0,0,0-2.59,1.85c-.68,1.75-1.39,3.49-2.1,5.24-1,2.46-2,4.92-3.05,7.55L158.44,39c-1.58-3.78-3.17-7.57-4.74-11.36a2.6,2.6,0,0,0-2.33-1.87c-1.47-.06-3-.06-4.42,0a2,2,0,0,0-2.14,2c-.15,6.26-.27,12.53-.42,18.79,0,.66.22.84.83.83a32.81,32.81,0,0,1,3.29,0c1,.08,1.11-.31,1.1-1.15,0-4.91,0-9.81,0-14.72a2.09,2.09,0,0,1,.23-1.32c.21.5.37.83.5,1.17,1.4,3.45,2.78,6.92,4.2,10.36,1.23,3,1.74,3.29,5,3.16.34,0,.68-.05,1-.08a2.4,2.4,0,0,0,2.21-1.64c1.55-4,3.17-7.9,4.77-11.84.14-.34.13-.81.71-1v1.3c0,4.87,0,9.73,0,14.6,0,.91.26,1.18,1.15,1.12a27.94,27.94,0,0,1,3.17,0c.66,0,.94-.11.93-.86-.14-6.15-.22-12.3-.35-18.44A2.14,2.14,0,0,0,170.77,25.78Z"/><path class="cls-1" d="M23.18,36.9c-.44-.28-.92-.5-1.49-.81a5.3,5.3,0,0,0,2.88-6.2,5.19,5.19,0,0,0-5.17-4.11c-5.22-.08-10.45,0-15.67,0-.53,0-.73.14-.72.7,0,5.12-.06,10.25.06,15.38a5.47,5.47,0,0,0,5.54,5.46c4,.09,7.94.07,11.91,0a5,5,0,0,0,4.94-3.91A5.7,5.7,0,0,0,23.18,36.9ZM8.24,29.42l3.84-.07c.34,0,.68,0,1,0,1.32,0,2.65,0,4,0a2.38,2.38,0,0,1,2.51,2.58,2.25,2.25,0,0,1-2.44,2.39c-2.76,0-5.52,0-8.28,0-.59,0-.81-.18-.77-.77A27.43,27.43,0,0,1,8.24,29.42ZM20.13,42.11a2.54,2.54,0,0,1-2.56,1.68c-2.23,0-4.46.05-6.69,0a2.57,2.57,0,0,1-2.63-2.2c0-.07,0-.14,0-.22C7.63,38.22,7.79,38,10.93,38H13.2c1.43,0,2.87-.06,4.3,0A2.88,2.88,0,0,1,20.13,42.11Z"/><path class="cls-1" d="M49.85,31.29a5.84,5.84,0,0,0-6.15-5.53c-4.88,0-9.77,0-14.65,0-.69,0-.91.2-.91.89q0,9.91,0,19.81c0,.68.17,1,.89.92a32.32,32.32,0,0,1,3.41,0c.7,0,.91-.21.9-.9-.05-1.89,0-3.78,0-5.66,0-2.21,0-2.16,2.17-2.24a2.13,2.13,0,0,1,2,1c1.67,2.37,3.41,4.7,5.12,7,.2.27.33.67.72.67,2,0,3.94,0,6.09,0l-6.76-8.66,1.7-.23C48,37.9,50.09,35.12,49.85,31.29ZM42.18,34.8H38.09c-1.28,0-2.57,0-3.85,0-.66,0-1-.11-.93-.86,0-1.28,0-2.56,0-3.84,0-.58.16-.79.76-.79,2.69,0,5.38,0,8.06,0a2.46,2.46,0,0,1,2.51,2.74A2.53,2.53,0,0,1,42.18,34.8Z"/><path class="cls-1" d="M95.18,35.64a21.16,21.16,0,0,0-5.6-1.32c-2-.33-4.08-.28-6-1.09a2,2,0,0,1-1.36-2.11A1.87,1.87,0,0,1,84,29.44a6.77,6.77,0,0,1,1.35-.1h8.63c2.87,0,2.87,0,2.74-2.85v-.12c.06-.48-.14-.65-.64-.65-4.35,0-8.71-.07-13,.07a5.71,5.71,0,0,0-5.36,3.74,5.89,5.89,0,0,0,1.16,6.42c1.51,1.79,3.64,2.16,5.79,2.45a67.68,67.68,0,0,1,7,1,2.07,2.07,0,0,1,1.77,2.28,2.1,2.1,0,0,1-2.07,2,13.56,13.56,0,0,1-1.81.08H77.33c.53,1.14,1,2.09,1.41,3a.89.89,0,0,0,1,.61c4.46,0,8.93,0,13.39-.1a5.61,5.61,0,0,0,5.4-4.91C99,39.22,97.85,36.86,95.18,35.64Z"/><path class="cls-1" d="M67.63,27.3c-.9-1.91-6.32-2.33-7.58-.62a4.81,4.81,0,0,0-.47.9l-8.46,18c-.83,1.77-.84,1.76,1.15,1.76h1c2.69,0,2.69,0,3.77-2.5a6.66,6.66,0,0,0,.31-.73c.17-.7.6-.9,1.32-.89,3,0,6.06.09,9.08,0a2,2,0,0,1,2.3,1.51c1,2.66,1.05,2.63,3.88,2.63.68,0,1.37,0,2,0s1-.14.63-.92C73.61,40.05,70.64,33.66,67.63,27.3ZM59.3,39.51c1.43-3.2,2.81-6.31,4.28-9.62l4.23,9.62Z"/><path class="cls-1" d="M198,31.58a6.11,6.11,0,0,0-6.43-5.82c-4.62,0-9.24,0-13.86,0-.77,0-1,.24-1,1,0,3.28,0,6.57,0,9.85s0,6.56,0,9.84c0,.74.2,1,1,1a30.09,30.09,0,0,1,3.29,0c.76,0,1-.23.94-1,0-2.22,0-4.45,0-6.67,0-.71.2-.91.89-.88,1.29,0,2.58,0,3.86,0a35.39,35.39,0,0,0,6-.21A6.45,6.45,0,0,0,198,31.58ZM190,35.08H186.4c-1.17,0-2.34-.05-3.51,0-.78,0-1-.26-.95-1,.05-1.31,0-2.63,0-4,0-.62.14-.86.81-.85,2.42,0,4.84,0,7.25,0a2.74,2.74,0,0,1,2.79,2.92A2.7,2.7,0,0,1,190,35.08Z"/><path class="cls-1" d="M141,43.79c-3.29,0-6.58.05-9.87,0s-4.79-1.61-4.8-4.84c0-2.83,0-5.65,0-8.48,0-.83.14-1.17,1.09-1.15,4,.05,8,0,12,0,2.7,0,2.67,0,2.65-2.74,0-.72-.23-.89-.91-.88-3.18,0-6.36,0-9.53,0s-6.29,0-9.43,0c-.84,0-1.08.2-1.07,1.05,0,4.34.16,8.68,0,13a7.08,7.08,0,0,0,7.43,7.57c3.71-.06,7.42,0,11.12,0,2.48,0,2.43,0,2.48-2.49C142.22,43.93,141.88,43.78,141,43.79Z"/><path class="cls-1" d="M118.21,25.73c-3.07,0-6.14,0-9.21,0h-7.5c-2.81,0-2.79,0-2.67,2.85,0,.59.2.77.78.76,1.86,0,3.72.05,5.57,0,1-.05,1.26.22,1.25,1.23-.06,5.25,0,10.5-.05,15.74,0,.86.23,1.12,1.08,1.06a16.72,16.72,0,0,1,2.83,0c1,.11,1.25-.28,1.24-1.25,0-5.21,0-10.42,0-15.63,0-.84.15-1.21,1.1-1.15,1.32.09,2.65,0,4,0,2.63,0,2.6,0,2.6-2.68C119.16,25.92,118.94,25.72,118.21,25.73Z"/><path class="cls-2" d="M139.11,34.15c-1.67,0-3.33,0-5,0h-5.22c-.37,0-.75-.07-.76.54a3.56,3.56,0,0,0,3.37,3.56c2.53,0,5.06,0,7.6,0,.66,0,1-.15.93-.88A15.62,15.62,0,0,1,140,35C140.08,34.31,139.78,34.13,139.11,34.15Z"/></svg>