<svg id="Camada_1" data-name="Camada 1" xmlns="http://www.w3.org/2000/svg" viewBox="0 0 200 73"><defs><style>.cls-1{fill:#17479e;}.cls-2{fill:#fff;}</style></defs><title>carrier</title><g id="layer1"><g id="g1488"><path id="path1490" class="cls-1" d="M17.78,36.5C17.78,17.79,54.59,2.61,100,2.61S182.22,17.8,182.22,36.5,145.41,70.39,100,70.39,17.78,55.21,17.78,36.5"/></g><g id="g1492"><path id="path1494" class="cls-2" d="M21,36.5c0-16.6,35.36-30,79-30S179,20,179,36.55s-35.38,30-79,30S21,53.1,21,36.5"/></g><g id="g1496"><path id="path1498" class="cls-1" d="M21.88,36.5C21.88,20.79,56.88,8,100,8s78.12,12.75,78.12,28.46S143.12,65,100,65,21.88,52.23,21.88,36.5"/></g><g id="g1500"><path id="path1502" class="cls-2" d="M57.14,44.91a14.67,14.67,0,0,0,5.35-3.5.81.81,0,0,0,0-1h0a.74.74,0,0,0-1-.07,14.19,14.19,0,0,1-3.43,2.32,8.65,8.65,0,0,1-5.72,1c-4.3-.93-5.19-5.79-3.26-10.7,1.34-3.38,4.81-10.43,13.1-10.29.85,0,1.89.1,1.56,1.07a2.36,2.36,0,0,0-.18,1.61,2,2,0,0,0,2.09,1.48,2.47,2.47,0,0,0,2.62-2.09,3.33,3.33,0,0,0-1.16-2.66,7.45,7.45,0,0,0-4.23-1.21h-1c-7.64.18-17.4,6-18.61,15.91-.69,5.65,4.45,11.56,14,8.18"/></g><g id="g1504"><path id="path1506" class="cls-2" d="M136.86,29.79c1.15,0,1.48,1.34,1.39,2.14a5.36,5.36,0,0,1-2.7,4.19,8.85,8.85,0,0,1-4.75,1.12c.63-2.4,3.38-7.45,6.06-7.45m5,2.5c0-3-2.41-4-4.57-4.06-5.86-.3-11.35,5.2-11.35,11.76a5.86,5.86,0,0,0,5.41,6.27c.23,0,.45,0,.68,0a10,10,0,0,0,6.86-3.13c.39-.39.74-.78,1-1.1a.69.69,0,0,0,0-.86h0a.69.69,0,0,0-1-.09l0,0-.37.33c-.29.26-.65.59-1.06.91l-.35.25h0l-.18.14-.09.06-.09.06a6.69,6.69,0,0,1-2.82,1.1c-2.32.26-3.88-.89-3.91-3.07a8.14,8.14,0,0,1,.37-2.14c3,.09,11.46-.82,11.46-6.44"/></g><g id="g1508"><path id="path1510" class="cls-2" d="M77.59,31.19c-.28,3.25-5,12.47-7.91,11.36s0-6.43,1-8.2,3.49-4.65,5.48-4.64a1.39,1.39,0,0,1,1.41,1.37v.11m1.29-3-.44,1h0a4.43,4.43,0,0,0-2.79-1c-2.54,0-5.64,2.09-7.54,4.19a14.43,14.43,0,0,0-3.68,8.85c-.09,2.19.77,3.66,2.75,4.17,1.77.47,4.38-.65,6.7-3.72a5.49,5.49,0,0,0,0,2.42,1.9,1.9,0,0,0,1.68,1.4A3.93,3.93,0,0,0,77.66,45,12.49,12.49,0,0,0,82,40.81a.57.57,0,0,0-.15-.8h0a.59.59,0,0,0-.8.14,11.38,11.38,0,0,1-2,2.37.88.88,0,0,1-.53.21c-.3,0-.38-.45-.36-.71a16.26,16.26,0,0,1,.74-2.82s2.39-6.94,3.19-9.51l.42-1.28a.25.25,0,0,0-.16-.31l-.08,0h-3.1a.18.18,0,0,0-.19.12"/></g><g id="g1512"><path id="path1514" class="cls-2" d="M123.56,28.06a.42.42,0,0,1,.41.43.37.37,0,0,1,0,.12c-1,3-4,12.67-4.22,13.23-.36,1.1.55,1.12.94.91A8.39,8.39,0,0,0,123,40.48l.22-.32a.67.67,0,0,1,.88-.16h0a.65.65,0,0,1,.17.87c-1.07,1.61-2.73,3.56-4.43,4.24a3.09,3.09,0,0,1-3.26-.2c-.55-.48-1.23-1.53-.59-3.59s3.46-10.95,4.09-12.89a.52.52,0,0,1,.51-.37"/></g><g id="g1516"><path id="path1518" class="cls-2" d="M123.15,26.16a2.56,2.56,0,0,0,2.57-2,1.84,1.84,0,0,0-1.64-2,2.16,2.16,0,0,0-.36,0,2.58,2.58,0,0,0-2.57,2,1.82,1.82,0,0,0,1.64,2,1.09,1.09,0,0,0,.36,0"/></g><g id="g1520"><path id="path1522" class="cls-2" d="M100.39,29.62A2,2,0,0,0,98.88,28l-.35-.07c-2.93-.37-5.19,2.79-6.72,5.91h-.12a25.91,25.91,0,0,0,.86-3.25c.32-1.8-.53-2.55-1.19-2.65a3.77,3.77,0,0,0-2.43.7,15.72,15.72,0,0,0-3.77,4l-.25.37a.57.57,0,0,0,.17.79h0a.54.54,0,0,0,.76-.17h0l.1-.15a15.62,15.62,0,0,1,1.72-2.17,3.36,3.36,0,0,1,1.43-1.07c.38,0,.29.37.24.55-.61,2-3.62,12-4.25,14.11a.29.29,0,0,0,.2.36.11.11,0,0,0,.08,0h3.19a.3.3,0,0,0,.28-.22c.89-2.91,1.38-4.09,1.74-5.26A31.24,31.24,0,0,1,92.49,35c.57-1.09,1.11-1.91,1.39-2.38a4.38,4.38,0,0,1,2-2,.24.24,0,0,1,.34.11c0,.11-.23.52-.28.87a1.33,1.33,0,0,0,.72,1.31,2.58,2.58,0,0,0,3-.75,3,3,0,0,0,.76-2.52"/></g><g id="g1524"><path id="path1526" class="cls-2" d="M116.8,29.62a2.15,2.15,0,0,0-1.86-1.71c-2.92-.37-5.19,2.8-6.73,5.91h-.11a25.91,25.91,0,0,0,.86-3.25c.33-1.8-.53-2.55-1.19-2.65a3.77,3.77,0,0,0-2.43.7,15.6,15.6,0,0,0-3.77,4l-.25.37a.58.58,0,0,0,.17.79h0a.59.59,0,0,0,.77-.18l.09-.15a15.5,15.5,0,0,1,1.72-2.14,3.16,3.16,0,0,1,1.44-1.06c.37,0,.28.36.23.55-.6,2-3.62,12-4.25,14.11a.28.28,0,0,0,.2.35l.09,0H105a.3.3,0,0,0,.29-.23c.92-2.95,1.42-4.14,1.77-5.3A31.13,31.13,0,0,1,108.93,35a27.14,27.14,0,0,1,1.4-2.39,4.34,4.34,0,0,1,2-2,.24.24,0,0,1,.34.11c0,.12-.23.53-.28.87a1.35,1.35,0,0,0,.72,1.25,2.61,2.61,0,0,0,3-.75,3.08,3.08,0,0,0,.76-2.53"/></g><g id="g1528"><path id="path1530" class="cls-2" d="M159,29.62A2,2,0,0,0,157.52,28l-.34-.07c-2.93-.37-5.19,2.79-6.73,5.91h-.11a24.26,24.26,0,0,0,.85-3.25c.33-1.8-.52-2.55-1.18-2.65a3.77,3.77,0,0,0-2.43.7,15.39,15.39,0,0,0-3.77,4l-.25.37a.56.56,0,0,0,.15.78h0a.57.57,0,0,0,.77-.18l.09-.15a16,16,0,0,1,1.72-2.14,3.36,3.36,0,0,1,1.43-1.06c.37,0,.29.36.23.55-.59,2-3.62,12-4.24,14.11a.29.29,0,0,0,.17.36.21.21,0,0,0,.11,0h3.18a.31.31,0,0,0,.29-.22c.89-2.91,1.37-4.09,1.74-5.26A31.24,31.24,0,0,1,151.14,35c.56-1.1,1.11-1.92,1.39-2.38a4.38,4.38,0,0,1,2-2,.25.25,0,0,1,.35.11c.06.11-.23.52-.28.87a1.33,1.33,0,0,0,.72,1.24,2.56,2.56,0,0,0,3-.75,3.09,3.09,0,0,0,.77-2.52"/></g></g></svg>