<svg id="Camada_1" data-name="Camada 1" xmlns="http://www.w3.org/2000/svg" viewBox="0 0 200 73"><defs><style>.cls-1{fill:#9bca3d;}.cls-2{fill:#a3ce4b;}.cls-3{fill:#b6c597;}</style></defs><title>consul</title><path class="cls-1" d="M4.37,37.34A23.56,23.56,0,0,1,8.3,22.76,22.29,22.29,0,0,1,22,13.34a25.53,25.53,0,0,1,13.3,0,5.56,5.56,0,0,1,4.35,4.29,7.05,7.05,0,0,1-1.73,6.21c-.58.68-1.32.38-2,.11a20.43,20.43,0,0,0-10.1-.87c-5.4.7-8.79,3.89-10.08,9.18a18.43,18.43,0,0,0,.59,11.42c1.87,4.67,5.72,6.57,10.49,7a14.9,14.9,0,0,0,7-1.15c1.36-.57,1.72-.41,2.34.87a33.23,33.23,0,0,0,3.27,5.39c.91,1.24.76,1.77-.63,2.53A21.62,21.62,0,0,1,32,60.48,25.36,25.36,0,0,1,16.88,59,20.21,20.21,0,0,1,5.12,45.25,26.57,26.57,0,0,1,4.37,37.34Z"/><path class="cls-1" d="M181.59,35.18c0,3.5.1,7,0,10.49-.26,8.12-5.73,13.82-13.51,15.07A19.67,19.67,0,0,1,155.62,59,13.93,13.93,0,0,1,148,48.23a23.47,23.47,0,0,1-.21-3.56c0-5.76.09-11.52,0-17.28-.07-3.37,1.71-5,4.54-5.48a8.46,8.46,0,0,1,4.2.3,2.15,2.15,0,0,1,1.7,2.35c0,6,0,12.07,0,18.1a17.89,17.89,0,0,0,.22,3.1c.69,4,3.34,5.22,6.91,5,4.11-.26,5.84-2.28,5.94-6.78.07-3.46,0-6.92,0-10.38V27.38c0-3.24,1.25-4.83,4.41-5.45a8.11,8.11,0,0,1,4.64.41,1.88,1.88,0,0,1,1.34,2c-.06,3.61,0,7.22,0,10.83Z"/><path class="cls-1" d="M111.84,47.22c0,3.65,0,7.3,0,11,0,1.59-.32,1.88-1.89,1.89h-6.68c-1.46,0-1.84-.36-1.84-1.84,0-6.49,0-13,0-19.48a7.8,7.8,0,0,0-1-4.2,4.21,4.21,0,0,0-1-1.13c-2.41-1.76-5.09-1.67-7.68-.71-2.42.89-3.38,3.07-3.51,5.49-.34,6.34-.08,12.68-.15,19,0,.5,0,1,0,1.49,0,1-.53,1.37-1.47,1.36-2.46,0-4.92,0-7.37,0a1.38,1.38,0,0,1-1.53-1.37,5.23,5.23,0,0,1,0-.69c0-6.72-.06-13.44,0-20.17A15.7,15.7,0,0,1,82.33,26.4a15.87,15.87,0,0,1,8.41-4.21,21.34,21.34,0,0,1,12.32,1.07c4.87,2,7.51,5.86,8.49,11a40.33,40.33,0,0,1,.29,7.12C111.87,43.3,111.85,45.26,111.84,47.22Z"/><path class="cls-1" d="M129.57,60.79a37.07,37.07,0,0,1-13.76-2.55c-1.57-.59-1.77-1.06-1.29-2.63s1.06-3.43,1.6-5.15c.39-1.21.85-1.46,2-1a33,33,0,0,0,8.35,2,20.8,20.8,0,0,0,6.2-.15,4.17,4.17,0,0,0,1.88-.81,2.33,2.33,0,0,0-.58-3.83c-2-.92-4.15-1-6.26-1.37a36.16,36.16,0,0,1-7.45-1.81c-4.15-1.65-6-4.89-6.15-9.14-.26-6,2.71-10.18,8.84-12A27.08,27.08,0,0,1,140,23c3.7,1.33,4.7,5.37,2.05,8.79a1.45,1.45,0,0,1-1.78.35,31.91,31.91,0,0,0-13.06-1.31,7.42,7.42,0,0,0-1.69.32,2.14,2.14,0,0,0-1.7,2.06,2.17,2.17,0,0,0,1.52,2.31,13.88,13.88,0,0,0,3.91.84,32.93,32.93,0,0,1,10.5,2.29c3.6,1.49,5.37,4.26,5.72,8.06.7,7.61-4.2,12.18-10.89,13.63A20.16,20.16,0,0,1,129.57,60.79Z"/><path class="cls-1" d="M195.66,36.34V58c0,1.75-.3,2.05-2.09,2.05h-6.45c-1.63,0-2-.37-2-2.06,0-3,0-6,0-9q0-15.85,0-31.69c0-2.17.67-4,2.81-4.83a10,10,0,0,1,6.54,0,1.78,1.78,0,0,1,1.22,2C195.65,21.75,195.66,29.05,195.66,36.34Z"/><path class="cls-2" d="M74.41,35.83c-2.43-9.75-11-14.89-20.27-13.94-9.89,1-17,9.29-17,19.61a15,15,0,0,0,.23,3.1,17.69,17.69,0,0,0,4.46,9.92,18.9,18.9,0,0,0,16.43,6,18.54,18.54,0,0,0,12.14-6.37C75.07,48.87,76.08,42.53,74.41,35.83ZM62.86,47.43a7.12,7.12,0,0,1-5.66,3.25c-3.33.27-6.16-.58-8.05-3.55C46.52,43,47.43,36.19,51,33.41a7,7,0,0,1,3.9-1.51,12.36,12.36,0,0,1,2.58,0c4.06.5,6.56,3.79,7,7.6A11.66,11.66,0,0,1,62.86,47.43Z"/><path class="cls-3" d="M57.44,31.9H54.86A4,4,0,0,1,57.44,31.9Z"/></svg>