<svg id="Camada_1" data-name="Camada 1" xmlns="http://www.w3.org/2000/svg" viewBox="0 0 200 73"><defs><style>.cls-1{fill:#002d62;}</style></defs><title>electrolux</title><path id="path3363" class="cls-1" d="M1.5,59H46.72V14.05H1.5Zm29-41.47a20,20,0,0,1,0,38v-38Zm-6.39-1a20.75,20.75,0,0,1,4.26.46c0,10.17-9.92,18.53-20.13,18.53H4a20.37,20.37,0,0,1,20.15-19M8.23,37.56c10.23,0,20.13,8.36,20.13,18.53a23,23,0,0,1-4.26.46C13.33,56.53,4.36,48,4,37.56Z"/><path id="path3365" class="cls-1" d="M61.87,40.43V37.61h9.41V34H61.87V28.76h10V25.17H58V40.32c0,3.82,1.64,6.45,5.49,7a.78.78,0,0,0,.21,0h.08A11.9,11.9,0,0,0,65,47.4h7.12V43.81H65a3.06,3.06,0,0,1-3.17-3.38"/><path id="path3367" class="cls-1" d="M74.88,35.64V47.38h3.87V25.15H74.88Z"/><path id="path3369" class="cls-1" d="M89.79,30.79a8.14,8.14,0,0,0-8.52,8.52v.14c0,5.07,3.53,8.34,8.62,8.34a8.87,8.87,0,0,0,6.85-2.88l-2.33-2.25A5.6,5.6,0,0,1,90,44.52c-2.86,0-4.77-1.66-4.89-4.22H97.76c.06-.63.06-1.34.06-1.34a7.83,7.83,0,0,0-8-8.17M85.2,37.57c.18-2,2.17-3.53,4.57-3.53a3.87,3.87,0,0,1,4.11,3.53Z"/><path id="path3371" class="cls-1" d="M108.67,34.22A5.44,5.44,0,0,1,112.79,36l2.39-2.47a8.66,8.66,0,0,0-6.51-2.78A8.55,8.55,0,1,0,115.16,45l-2.39-2.47a5.46,5.46,0,0,1-4.12,1.78,5.06,5.06,0,0,1,0-10.12"/><path id="path3373" class="cls-1" d="M121.43,40.43V34.77h3.51V31.28h-3.49V25.13h-3.87V40.67c.12,3.61,1.76,6.08,5.48,6.59a1,1,0,0,0,.24,0h.06a12.09,12.09,0,0,0,1.22.08H125V43.79h-.4a3,3,0,0,1-3.17-3.36"/><path id="path3375" class="cls-1" d="M132,33.69V31.3h-3.83V47.38H132V38.92a4,4,0,0,1,4.36-4.32,8,8,0,0,1,1.59.15v-3.7a6.79,6.79,0,0,0-1.14-.1A5.06,5.06,0,0,0,132,33.69"/><path id="path3377" class="cls-1" d="M147.38,30.81a8.53,8.53,0,1,0,8.84,8.52,8.59,8.59,0,0,0-8.84-8.52m0,13.57a5.05,5.05,0,1,1,5-5.05,4.94,4.94,0,0,1-5,5.05"/><path id="path3379" class="cls-1" d="M158.58,35.25V47.36h3.87V25.13h-3.87V35.25Z"/><path id="path3381" class="cls-1" d="M176.35,40.63c0,2.55-1.5,3.63-3.53,3.63a3.24,3.24,0,0,1-3.53-3.59V31.28h-3.88V41c0,4.59,3.37,6.8,7.37,6.8s7.46-2.23,7.46-6.88V31.3h-3.89v9.33Z"/><path id="path3383" class="cls-1" d="M194.81,42.23l-2.42-3.37,3-4.07L198,31.3h-4.2l-3.51,4.82-3.53-4.82h-4.18l2.38,3.26,3.2,4.34-3.36,4.63L182,47.4h4.14l4.11-5.68,4.12,5.68h4.14l-3.69-5.17Z"/></svg>