<svg id="Camada_1" data-name="Camada 1" xmlns="http://www.w3.org/2000/svg" viewBox="0 0 200 73"><defs><style>.cls-1{fill:#ed1c24;}</style></defs><title>fujitsu</title><path class="cls-1" d="M86.88,10a7.34,7.34,0,0,0-4.59-1.58,7.53,7.53,0,0,0,0,15.06h0a7.38,7.38,0,0,0,5.78-2.62V16.73a8.88,8.88,0,0,1-3.57,3.49,5.11,5.11,0,0,1-2.21.47,4.69,4.69,0,0,1-4.76-4.64v0a4.7,4.7,0,0,1,8.08-3.33c.88.87,2.3,2.69,2.94,3.41A9.36,9.36,0,1,0,95.4.32,9.61,9.61,0,0,0,88,4.05V9.68c1.27-3.57,3.65-6.42,7.37-6.42a6.46,6.46,0,1,1-4.2,11.41c-1.27-1.19-2.77-3.49-4.28-4.68"/><path class="cls-1" d="M25.5,25.61H46.18v5.7A4,4,0,0,0,42.88,29H33.35V39H43.73v5.31s-.32-1.66-2.86-1.66H33.35V56.28c0,2,2.14,3.17,2.14,3.17H25.66a3.85,3.85,0,0,0,2.06-3.17V29.09A4.49,4.49,0,0,0,25.5,25.61Z"/><path class="cls-1" d="M77.57,25.61H88.11s-2.38,1.11-2.38,2.93v31.7c0,10.7-10.78,12.44-11.33,12.44,1-.55,5.39-4.35,5.39-12.44V28.54C79.79,26.8,77.57,25.61,77.57,25.61Z"/><path class="cls-1" d="M89.54,25.61h10.54s-2.38,1.11-2.38,3V56.28c0,2,2.38,3.25,2.38,3.25H89.54s2.34-1.19,2.34-3.25V28.62C91.88,26.72,89.54,25.61,89.54,25.61Z"/><path class="cls-1" d="M102.22,25.61h23.22l-2,6.1s-.56-2.62-2.85-2.62h-4.71v27c0,1.74,2.3,3.17,2.3,3.17H107.77S110,57.91,110,56.09V29.17H104.2c-1.66,0-4,3.09-4,3.09Z"/><path class="cls-1" d="M164.35,25.61H174.5s-2.14,1.19-2.14,3V49.07c0,8.32-6.9,10.85-11.73,10.85s-12.21-2.61-12.21-10.85V28.62c0-1.82-2.21-3-2.21-3h10.46s-2.3,1.11-2.3,3V49.07c0,4.36,2.85,7.21,6.26,7.21s5.94-3,6-7.21V28.62C166.65,26.72,164.35,25.61,164.35,25.61Z"/><path class="cls-1" d="M65.36,25.61H75.75s-2.22,1.19-2.22,3V49.07c0,8.32-7.21,11-12.05,11s-12.2-2.69-12.2-11V28.62c0-1.82-2.14-3-2.14-3H57.6s-2.46,1.19-2.46,3V49.07c0,4.36,2.85,7.29,6.26,7.29s6.1-3,6.1-7.29V28.62C67.58,26.8,65.36,25.61,65.36,25.61Z"/><path class="cls-1" d="M143.11,31s-1.5-2.54-5.7-2.62-6.53,2.22-6.53,5.15c0,3.25,2.46,4.52,6.26,6.34s9.12,4.12,9,10.23c0,5.47-4.84,10-13.48,10a33.83,33.83,0,0,1-6.34-.87l-2-6.5a13.1,13.1,0,0,0,8.4,3.73c3.41,0,7.53-2.14,7.53-5.55,0-6.58-15.37-5.47-15.37-16.56,0-3.81,2.61-9.36,11.8-9.36a28.2,28.2,0,0,1,6.27.87Z"/></svg>