<svg id="Camada_1" data-name="Camada 1" xmlns="http://www.w3.org/2000/svg" viewBox="0 0 200 73"><defs><style>.cls-1{fill:#f04d24;}.cls-1,.cls-2{fill-rule:evenodd;}.cls-2{fill:#034da2;}</style></defs><title>gree</title><path id="path29557" class="cls-1" d="M48.36,34.14a15.58,15.58,0,0,1,.21,2.37c0,10.48-10.33,19-23,19a25.12,25.12,0,0,1-5.4-.55c.72-1.5,2.33-4.85,4.94-10.88,3.82-8.82-3.08-9.18-3.08-9.18l.15-.77Z"/><path id="path29561" class="cls-2" d="M25.59,17.48c10.21,0,18.88,5.55,21.85,13.23H22.66L12.53,52.14c-6-3.46-9.87-9.17-9.87-15.63,0-10.47,10.3-19,22.93-19"/><path id="path29577" class="cls-2" d="M197.34,25.23H178.67s-12.58-.57-14.17,12.87,5.23,15.62,11.85,15.62H191L192,50H178.82s-6.33-.55-5.37-9.64v-.19h19.1l1-3.25H174c1.36-6.36,4.34-8.39,8.61-8.39h13.7Zm-32,0H146.69s-12.56-.57-14.11,12.87,5.22,15.62,11.84,15.62H159L160,50H146.85s-6.33-.55-5.38-9.59a.67.67,0,0,0,0-.2h19.05l1-3.24H142c1.36-6.37,4.35-8.4,8.63-8.4h13.67Zm-64.55,0h22.42s9.17-.36,7.69,7.22a9.2,9.2,0,0,1-9.39,7.94l7.29,13.42h-6.63s-3.52,1.11-6.55-4.54S109,36.92,109,36.92h6.62s4.77.14,6.11-3.52-1.42-4.57-3.66-4.57H109.4L102.55,54H93.17ZM96,25.14H73.74S61.85,24.92,58.17,38.5c0,0-4.75,13.6,9.21,15.21H83.86s5.09.88,7.22-7.53,2.29-9.37,2.29-9.37h-16l-1.21,3.84h7.52l-1.93,6.71s-.5,2.45-2.52,2.59-7.15,0-7.15,0A4.92,4.92,0,0,1,67,45c-.45-5.17,2.21-15.87,10.58-15.87H94.69Z"/></svg>