<svg id="Camada_1" data-name="Camada 1" xmlns="http://www.w3.org/2000/svg" xmlns:xlink="http://www.w3.org/1999/xlink" viewBox="0 0 200 73"><defs><style>.cls-1{fill:#6d6e70;}.cls-2{fill:url(#Gradiente_sem_nome_8);}.cls-3{fill:url(#Gradiente_sem_nome_2);}.cls-4{fill:url(#Gradiente_sem_nome_3);}.cls-5{fill:#626d77;}.cls-6{fill:#8699a3;}.cls-7{fill:#8d9aa1;}.cls-8{fill:url(#Gradiente_sem_nome_4);}.cls-9{fill:#505c61;}.cls-10{fill:#8f9ca4;}.cls-11{fill:url(#Gradiente_sem_nome_5);}.cls-12{fill:url(#Gradiente_sem_nome_6);}.cls-13{fill:#b4bdc3;}.cls-14{fill:url(#Gradiente_sem_nome_7);}.cls-15{fill:#fff;}</style><radialGradient id="Gradiente_sem_nome_8" cx="-509.8" cy="-4467.26" r="0.2" gradientTransform="matrix(173.76, 0, 0, -173.76, 88637.61, -776178.38)" gradientUnits="userSpaceOnUse"><stop offset="0" stop-color="#bf0c3f"/><stop offset="0.5" stop-color="#bf0c3f"/><stop offset="0.88" stop-color="#bf0c3f"/><stop offset="1" stop-color="#99002c"/></radialGradient><linearGradient id="Gradiente_sem_nome_2" x1="-495.54" y1="-4438.59" x2="-495.34" y2="-4438.59" gradientTransform="translate(-1028571.33 509953.78) rotate(70) scale(257.06)" gradientUnits="userSpaceOnUse"><stop offset="0" stop-color="#f38895"/><stop offset="0.55" stop-color="#bf0c3f"/><stop offset="0.8" stop-color="#bf0c3f"/><stop offset="1" stop-color="#bf0c3f"/></linearGradient><linearGradient id="Gradiente_sem_nome_3" x1="-500.19" y1="-4433.3" x2="-499.99" y2="-4433.3" gradientTransform="translate(-793111.99 994910.36) rotate(45) scale(285.19)" gradientUnits="userSpaceOnUse"><stop offset="0" stop-color="#cd425c"/><stop offset="0.33" stop-color="#900531"/><stop offset="1" stop-color="#900531"/></linearGradient><linearGradient id="Gradiente_sem_nome_4" x1="-397.6" y1="-3146.19" x2="-397.4" y2="-3146.19" gradientTransform="translate(1360.08 10306.27) scale(3.26)" gradientUnits="userSpaceOnUse"><stop offset="0" stop-color="#b3bbc1"/><stop offset="0.84" stop-color="#2a3236"/><stop offset="1" stop-color="#2a3236"/></linearGradient><linearGradient id="Gradiente_sem_nome_5" x1="-500.17" y1="-4452.22" x2="-499.97" y2="-4452.22" gradientTransform="matrix(201.36, 201.36, 201.36, -201.36, 997261.32, -795776.86)" gradientUnits="userSpaceOnUse"><stop offset="0" stop-color="#b4bdc3"/><stop offset="1" stop-color="#3e454d"/></linearGradient><linearGradient id="Gradiente_sem_nome_6" x1="-513.33" y1="-4426.07" x2="-513.13" y2="-4426.07" gradientTransform="matrix(-255.62, 0, 0, 255.62, -131134.57, 1131428.81)" gradientUnits="userSpaceOnUse"><stop offset="0" stop-color="#b4bdc3"/><stop offset="1" stop-color="#485159"/></linearGradient><radialGradient id="Gradiente_sem_nome_7" cx="-510.04" cy="-4422.51" r="0.2" gradientTransform="translate(108829.31 943255.45) scale(213.28)" gradientUnits="userSpaceOnUse"><stop offset="0" stop-color="#fff"/><stop offset="0.35" stop-color="#fff"/><stop offset="0.67" stop-color="#fff"/><stop offset="1" stop-color="#c0ccd2"/></radialGradient></defs><title>lg</title><path id="path14" class="cls-1" d="M115.77,14.91h-9.89V57.7h30.35V49.37H115.77Z"/><g id="g18"><g id="g24"><path id="path26" class="cls-1" d="M158,41.4h8v7.51a22.07,22.07,0,0,1-7.12,1.14C150,50.05,147,45.52,147,36.35c0-8.75,2.83-13.9,11.72-13.9,5,0,7.77,1.55,10.08,4.52l6.15-5.65c-3.75-5.36-10.31-7-16.45-7-13.83,0-21.1,7.56-21.1,22s6.56,22.09,21,22.09c6.64,0,13.13-1.69,16.66-4.16V33.42H158Z"/></g></g><g id="g30"><g id="g36"><g id="g38"><path id="path50" class="cls-2" d="M24.94,36.5A33.08,33.08,0,0,0,58,69.58h0A33.08,33.08,0,0,0,91.07,36.75h0v-.52A33.07,33.07,0,0,0,58,3.42h0A33.08,33.08,0,0,0,24.94,36.5h0"/></g></g></g><g id="g54"><g id="g60"><g id="g62"><path id="path74" class="cls-3" d="M35.62,14.1C24.56,25.16,23.45,42,33.15,51.71h0c9.71,9.7,26.54,8.59,37.6-2.47h0c11.07-11.08,12.19-27.92,2.49-37.62h0A23.06,23.06,0,0,0,56.7,5h0a30.21,30.21,0,0,0-21.08,9.1"/></g></g></g><g id="g78"><g id="g84"><g id="g86"><path id="path96" class="cls-4" d="M58.31,8.65l-.69.23c-15.55,0-27.19,13-27.19,28.45h0a27.85,27.85,0,0,0,8.26,19.83h0a27.75,27.75,0,0,0,19.9,8h0a28,28,0,0,0,20-8.15h0a27.71,27.71,0,0,0,8.26-19.83h0V35.55L86.18,35H65.68v3.28l.51.68a.22.22,0,0,0,.18.06H83.49a24.91,24.91,0,0,1-24.85,23.1h0a24.91,24.91,0,0,1-17.57-7.26h0a24.54,24.54,0,0,1-7.27-17.5h0a24.69,24.69,0,0,1,7.09-17.62h0a25.19,25.19,0,0,1,17.78-7.28h1.5c.09,0,.17,0,.17-.22h0V9.51a.43.43,0,0,0-.07-.29h0l-.6-.76ZM57.26,22.48h-.14l-.21.06.21.33v28l-.82.47.63.44a.92.92,0,0,0,.47.14h9.19a.2.2,0,0,0,.19-.22h0V49.12a.4.4,0,0,0-.07-.31h0l-.49-.76h-6V22.61a.25.25,0,0,0-.07-.21h0l-.44-.77Zm-13.84,4a4.43,4.43,0,0,0,4.45,4.41h0a4.42,4.42,0,0,0,4.44-4.41h0a4.43,4.43,0,0,0-4.43-4.42h0a4.43,4.43,0,0,0-4.44,4.41h0"/></g></g></g><g id="g100"><g id="g106"><path id="path108" class="cls-5" d="M57,50.68l-.68.64h9.92l-.64-.66Z"/></g><g id="g110"><path id="path112" class="cls-6" d="M65.58,48.68l.64-.63H59.73l-.77.63Z"/></g><g id="g114"><path id="path116" class="cls-7" d="M59.73,21.63H56.3l.64.62H59Z"/></g></g><g id="g142"><g id="g148"><g id="g150"><path id="path160" class="cls-8" d="M65.58,48.68v2l.64.66V48.05Z"/></g></g></g><g id="g196"><g id="g202"><path id="path204" class="cls-9" d="M83.35,37.51H66.2l-.63.68H82.69l.34-.36Z"/></g><g id="g210"><path id="path212" class="cls-10" d="M66.2,35.55H85.38l.69-.64H65.57Z"/></g></g><g id="g216"><g id="g222"><g id="g224"><path id="path232" class="cls-11" d="M30,36.49a27.93,27.93,0,0,0,8.21,19.82h0A27.84,27.84,0,0,0,58,64.54h0a27.82,27.82,0,0,0,19.84-8.23h0a27.77,27.77,0,0,0,8.25-19.82h0V34.91l-.65.65v1a27.17,27.17,0,0,1-8,19.37h0a27.2,27.2,0,0,1-19.39,8h0a27.2,27.2,0,0,1-19.34-8h0a27.25,27.25,0,0,1-8-19.37h0A27.42,27.42,0,0,1,58.05,9.16h1l.64-.61H58a28.06,28.06,0,0,0-28,28"/></g></g></g><g id="g236"><g id="g242"><g id="g244"><path id="path252" class="cls-12" d="M57.62,11.1a25.34,25.34,0,0,0-17.55,7.43h0a25.31,25.31,0,0,0-7.42,18h0a25.37,25.37,0,0,0,7.42,18h0a25.28,25.28,0,0,0,17.6,7.37h.65a25.44,25.44,0,0,0,25-23.67h0v-.7l-.33.3-.34.36A24.82,24.82,0,0,1,58,61.24h0A24.54,24.54,0,0,1,40.5,54h0a24.6,24.6,0,0,1-7.23-17.49h0A24.64,24.64,0,0,1,40.5,19h0A24.75,24.75,0,0,1,58,11.74h1.67l-.6-.63H57.62Z"/></g></g></g><g id="g256"><g id="g262"><path id="path264" class="cls-13" d="M66.2,35.55l-.63-.64V38.2l.63-.68Z"/></g></g><g id="g290"><g id="g296"><g id="g298"><path id="path310" class="cls-14" d="M57.63,8.79a27.73,27.73,0,0,0-27.32,27.7h0a27.55,27.55,0,0,0,8.1,19.57h0A27.52,27.52,0,0,0,58,64.18h0a27.48,27.48,0,0,0,19.59-8.12h0a27.41,27.41,0,0,0,8.1-19.57h0V35.23H65.9V37.8H83.07v.38h0a25.14,25.14,0,0,1-25,23.41h0a25,25,0,0,1-17.75-7.36h0A25,25,0,0,1,33,36.49h0a25.05,25.05,0,0,1,7.33-17.76h0a25.14,25.14,0,0,1,17.75-7.34H59.4V8.81H57.76ZM56.63,22V51h9.21V48.39H59.31V22Z"/></g></g></g><g id="g338"><g id="g344"><path id="path346" class="cls-15" d="M48.15,22.68a3.94,3.94,0,0,1,2.41.84A4,4,0,1,0,45,29a4,4,0,0,1-.83-2.39,4,4,0,0,1,4-4"/></g><g id="g348"><path id="path350" class="cls-15" d="M59.3,8.81H58A27.7,27.7,0,0,0,38.41,56.06l.51.5a27.59,27.59,0,0,1-7.64-19.09c0-15.24,10.79-27.89,28-28.65"/></g><g id="g352"><path id="path354" class="cls-15" d="M59.3,48.39a26.5,26.5,0,0,0,6.58.55v-.55Z"/></g><g id="g356"><path id="path358" class="cls-15" d="M59.3,22.8V22H56.67V51s.82-4.41.82-28.17Z"/></g><g id="g360"><path id="path362" class="cls-15" d="M85.66,35.22H65.9v2.57h.72V35.91c17.22,0,19-.72,19-.72"/></g><g id="g364"><path id="path366" class="cls-15" d="M83.07,37.8v.38a25.1,25.1,0,0,1-49.21,5.07A25.43,25.43,0,0,0,58.41,61.91a25.13,25.13,0,0,0,25-24.09Z"/></g></g></svg>