<svg id="Camada_1" data-name="Camada 1" xmlns="http://www.w3.org/2000/svg" viewBox="0 0 200 73"><defs><style>.cls-1{fill:#00b0f0;}</style></defs><title>midea</title><g id="Camada_1-2" data-name="Camada_1"><path id="path1470" class="cls-1" d="M92.57,35.77v25h5.89v-25ZM82,26.24H75.91a.51.51,0,0,0-.56.61,31.43,31.43,0,0,1,.28,4.77c0,5.95-.73,14.47-7.23,22.6l-.45.56S64,27.41,64,26.91c0,0,0-.62-.56-.62H57.29c-.56,0-.56.62-.56.62-.17,3.14-1.91,29.5-21.14,33.76,4.09.45,9-.84,13.35-3.48A21.55,21.55,0,0,0,59,43.4s2.36,14.69,2.64,18.06v.22l-.17.11a37.82,37.82,0,0,1-17.61,4.43A37.4,37.4,0,0,1,9.45,43.57,35.4,35.4,0,0,0,44.06,71.38c19.57,0,31.24-16.37,33.25-28,0,0,2.64,17,2.7,17.56h8c-.12-.73-5.44-33.37-5.5-33.88,0,0,0-.62-.56-.62ZM14.16,40.54C14.16,22.59,29.31,8,47.87,8A34.2,34.2,0,0,1,76.3,23.15C71.76,10.36,59.09,1.62,44.9,1.62c-18.34,0-33.26,14.3-33.26,31.85A30.54,30.54,0,0,0,15,47.32a29.89,29.89,0,0,1-.85-6.73Zm140.55-1.18A11,11,0,0,0,146,35.6a12.82,12.82,0,0,0-9.2,3.54,12.16,12.16,0,0,0-3.65,9.19,11.89,11.89,0,0,0,3.54,9c2.35,2.25,5.77,3.37,10,3.37,8.3,0,10.09-5.72,10.76-7.57l-2.13-.68c-1.9,3.48-6.17,3.71-8.69,3.54A9.35,9.35,0,0,1,142,54.39,6.6,6.6,0,0,1,139.4,50l-.11-.79h18.62c-.06-4.09-1.13-7.4-3.2-9.81Zm-15,6.34c-.29,0-.29-.28-.29-.39a6.15,6.15,0,0,1,1.8-3.59A6.5,6.5,0,0,1,146,39.87a6.42,6.42,0,0,1,4.21,1.45,6.84,6.84,0,0,1,2,3.65c.05.17.16.67-.28.67H139.74Zm33.7-10.21c-7.06,0-9.59,4.32-10.37,6.34,0,.05-.28.73-.28.73l2.35.78s1.52-4.37,7.52-4.09,5.32,5.21,5.32,6a18,18,0,0,0-11.27.5c-3.92,1.8-4.54,5.39-4.37,8,.17,3.93,3.64,6.68,8.13,6.9,4,.23,5.83-.67,7.51-2.3l0,2.3h5.33V43.45c.11-3-2-8-9.82-8Zm4.49,19.41a.83.83,0,0,1-.45.84,12.07,12.07,0,0,1-5.78,1,4.24,4.24,0,0,1-4-3c-.05-.34-.67-4,2.86-5.11a13,13,0,0,1,6.79.17c.45.11.56.39.56,1V54.9ZM98.07,26.24H93.19a.61.61,0,0,0-.62.73v5.27h6V26.91a.54.54,0,0,0-.56-.62Zm29.94,0h-5c-.5,0-.5.56-.5.56V37.06l-.73-.39a9.73,9.73,0,0,0-2.41-.84,15.49,15.49,0,0,0-3-.23c-3.92,0-7.12,1.12-9.47,3.42s-3.54,5.5-3.54,9.48a13.37,13.37,0,0,0,3,8.86c2,2.3,4.82,3.48,8.58,3.48,5.38,0,7.51-3.25,7.51-3.25v3.14h6.06V26.85S128.52,26.24,128,26.24Zm-5.83,27.7A6.73,6.73,0,0,1,120,55.18a8.74,8.74,0,0,1-3.31.56,6.13,6.13,0,0,1-4.82-2c-1.18-1.35-1.74-3.31-1.74-5.95s.56-4.48,1.63-5.66a6.46,6.46,0,0,1,5-1.85,9.21,9.21,0,0,1,3.31.56,6.35,6.35,0,0,1,2.07,1.12,1.17,1.17,0,0,1,.34.84V53a1.18,1.18,0,0,1-.34.85Z"/><path id="path1472" class="cls-1" d="M186.9,22.09a3.57,3.57,0,0,0-3.64,3.64,3.65,3.65,0,1,0,3.64-3.64Zm0,.5A3.09,3.09,0,0,1,190,25.73a3.09,3.09,0,1,1-3.09-3.14ZM186.12,26H187l1.18,1.85h.62L187.57,26a1.17,1.17,0,0,0,1.07-1.18c0-.73-.39-1.18-1.35-1.18h-1.62v4.21h.5V26Zm0-.45V24.05h.95c.5,0,1,.11,1,.73s-.62.73-1.23.73h-.73Z"/></g></svg>