<svg id="Camada_1" data-name="Camada 1" xmlns="http://www.w3.org/2000/svg" viewBox="0 0 200 73"><defs><style>.cls-1{fill-rule:evenodd;}</style></defs><title>philco</title><g id="layer1"><path id="path116-6-0" class="cls-1" d="M177.84,23.55H180l.52.06.51.07.51.08.49.08.5.11.49.11.49.13.47.14.47.15.48.16.46.17.45.19.47.2.44.22.45.22.44.23.43.25.44.26.42.27.42.28.42.3.41.32.41.31.41.33.39.35.4.36.39.38.39.38.38.4.36.39.36.41.34.4.33.42.31.42.3.41.29.43.29.43.27.43.25.44.25.44.23.45.22.45.21.45.18.46.19.48.17.47.16.48.15.48.14.49.12.49.11.49.11.51.08.51.08.51.07.52v5.39l-.07.52-.08.52-.08.51-.11.51-.1.5-.13.48-.14.5-.15.47-.15.49-.17.46-.19.48-.19.46-.2.45-.22.45-.23.46-.24.44-.29.53-.27.43-.28.42-.29.43-.3.42-.31.42-.32.4-.34.41-.36.4-.36.4-.38.39-.38.38-.38.37-.4.36-.4.35-.41.33-.4.32-.41.31-.42.29-.42.29-.42.26-.43.26-.44.25-.44.23-.44.22-.45.21-.46.2-.47.18-.46.18-.46.16L184,65l-.47.14-.49.13-.5.1-.5.11-.5.09-.51.08-.51.07h-5.34l-.52-.07-.51-.08-.5-.09-.5-.11-.49-.1-.49-.13-.49-.14-.47-.15-.46-.16-.48-.18-.45-.18-.46-.2-.45-.21-.44-.22-.44-.24-.44-.24-.43-.26-.43-.26-.42-.29-.41-.29-.42-.31-.41-.32-.4-.33-.4-.35-.39-.36-.39-.37-.38-.38-.39-.39-.36-.4-.35-.4-.34-.41-.34-.4-.31-.42-.3-.42-.29-.43-.28-.42-.25-.43-.26-.44-.24-.44-.23-.45-.22-.45-.21-.46-.2-.46-.17-.47-.17-.47-.17-.48-.15-.48-.13-.5L157.6,50l-.12-.5-.1-.51-.08-.51-.08-.52-.07-.52V42l.07-.52.08-.51.08-.52.1-.49.12-.5.13-.5.12-.49L158,38l.17-.48.17-.47.19-.48.18-.46.21-.45.22-.45.23-.45.24-.44.26-.44.26-.44.28-.43.3-.42.3-.43.32-.4.33-.42.34-.4.36-.41.36-.39.38-.4.38-.38.39-.37.4-.36.4-.35.41-.33.4-.31.42-.32.42-.3.43-.27.41-.27.44-.27L168,26l.45-.23.44-.23.45-.21.45-.2.47-.18.46-.18.48-.16.47-.15.47-.14.49-.13.5-.11.5-.09.49-.1.51-.08.51-.07.52-.06h2.13Zm0,11.58h-.93l-.44.06-.44.08-.43.09-.43.13-.41.14-.41.17L174,36l-.4.21-.38.25-.37.24-.35.28-.34.29-.34.31-.33.33-.32.35-.29.36-.26.37-.26.38-.23.4-.22.39-.18.42-.18.41-.15.43-.14.44-.1.45-.09.46-.07.46-.06.46v1.9L169,46v.47l.09.45.11.44.13.43.15.42.18.42.19.41.21.4.23.38.26.39.28.35.28.35.31.34.32.33.34.3.34.29.36.28.37.24.37.24.4.2.39.19.42.16.41.15.43.12.43.09.44.08h2.26l.88-.13.84-.22.82-.31.79-.4.74-.49.71-.57.64-.63.32-.35.29-.36.28-.37.24-.37.24-.38.21-.41.2-.39.17-.42.15-.41.13-.44.12-.44.09-.44.07-.46V43.17l-.07-.45-.09-.45-.11-.44-.14-.44L186,41l-.17-.42-.2-.41-.21-.39-.23-.4L185,39l-.27-.37-.29-.36-.32-.36-.65-.63-.7-.58-.74-.5-.78-.41-.83-.32-.85-.23-.88-.13h-.88Z"/><path id="path118-9-9" class="cls-1" d="M146,65.71h-2.17l-.53-.07-.51-.09-.51-.09-.51-.12-.49-.11-.49-.14-.48-.14-.47-.16-.47-.16-.46-.19-.45-.18-.44-.2-.44-.21-.43-.23-.43-.23-.41-.25-.41-.26-.32-.4-.41-.27-.39-.29-.38-.32-.39-.31-.37-.32-.37-.35-.35-.35-.36-.37-.34-.37-.34-.38-.32-.38-.31-.4-.3-.4-.3-.41-.28-.41-.27-.42-.25-.43-.25-.44-.24-.44-.22-.45-.22-.46-.2-.47-.19-.47-.19-.49-.16-.48-.16-.5-.15-.5-.14-.51-.13-.52-.11-.53-.11-.53-.09-.56-.08-.54-.08-.57V42.09l0-.55V41l.09-.54.08-.52.1-.51.11-.5.12-.5.13-.49.15-.48.15-.48.16-.47.19-.47.18-.45.2-.45.22-.44.22-.44.23-.42.26-.43L130,33l.27-.41.29-.39.29-.41.3-.38.32-.38.33-.38.33-.37.36-.36.36-.36.37-.35.38-.33.39-.33.4-.31.4-.31.41-.29.42-.28.41-.28.43-.25.44-.26.44-.23.45-.23.45-.21.48-.21.46-.19.49-.18.48-.17.5-.16.5-.15.51-.14.52-.13.52-.12.54-.1.54-.1.55-.08.56-.07.57-.07h6.27l.41,0,.4.07.39.08.41.09.39.1h.19V35.86h-.15l-.45-.1-.43-.09-.42-.07-.38-.07-.37-.07h-4.15l-.54.07-.52.08-.51.11-.51.11L145,36l-.47.17-.46.18-.44.21-.44.22-.42.24-.41.27-.38.29-.37.3-.35.33-.33.35-.3.36-.28.37-.27.39-.23.42-.22.42-.18.44-.18.44-.24.28-.12.47-.1.49-.07.48-.06.51v2l.06.5.08.48.11.48.12.47.15.45.18.45.21.44.22.42.24.42.28.39.29.38.31.37.33.35.36.34.39.32.39.3.4.28.43.25.43.24.45.22.47.18.47.18.49.15.49.13.51.11.52.09.54.07h5.59l.43-.06h.19V65.3l-.35.07-.49.09-.48.08-.48.08-.48.07H151l-.49.07H146Z"/><path id="path120-0-2" class="cls-1" d="M108.16,65.08V7.26h11.47V65.08Z"/><path id="path122-0-5" class="cls-1" d="M88.21,17.59V7.24H99.67V17.59Z"/><path id="path124-4-3" class="cls-1" d="M88.21,65.08V24.28H99.67v40.8Z"/><path id="path126-0-6" class="cls-1" d="M45.41,65.08V7.26H56.84V30.59l3-3.35.45-.45.48-.43.48-.39.52-.36.55-.33.57-.32.59-.27.29-.12.31-.13.31-.1.33-.11.31-.09.33-.09.34-.07L66,23.9l.34-.06.35-.06h3.58l.65.07.62.1.6.11.57.14.54.17.52.19.5.22.48.24.45.27.43.29.41.31.4.34.37.37.35.38.33.41.31.46.29.47.28.5.26.52.23.56.21.59.19.61.18.65.15.68.12.71.1.73.09.76V65.2H68.59V41.5l-.18-.83-.11-.76-.15-.71-.2-.66-.24-.61-.32-.56L67,36.86l-.45-.45L66.1,36l-.56-.3-.6-.23-.61-.15-.65-.08H62.3l-.68.11-.66.18-.65.29-.58.33-.53.42-.48.47-.41.54-.32.55-.31.64-.25.67-.2.71-.15.75-.1.79-.07.82V65.08Z"/><path id="path128-6-0" class="cls-1" d="M1.5,65.08V7.26H19.64l.72.06h.7l.7.08.67.08.67.11.65.1.64.12.61.12.61.13.59.15.58.15.57.17.56.17.53.18.53.2.51.2.5.21.48.22.48.23.43.45.45.24.43.26.41.26.41.28.39.28.39.3.35.3.36.3.35.33.32.33.33.34.31.34.29.37.29.38.28.38.26.39.26.41.24.4.23.43.22.44.21.44.2.46.18.48.19.47.16.5L39,20l.14.51.14.53.12.55.11.54.1.57.09.58.08.59v.6l.06.6v5.06l-.06.6v.59l-.07.58-.09.57-.1.55-.09.51-.13.55-.12.52-.14.52-.15.51-.16.5-.18.49-.18.48-.2.47-.21.47-.22.45-.22.44-.24.44-.24.41-.27.42-.27.42-.29.39-.29.39-.3.39-.32.37-.33.36-.33.35-.35.35-.36.35-.37.32-.37.32-.39.31-.4.29-.38.3-.41.27-.42.26-.44.26-.44.24-.45.23-.45.22-.48.21-.47.2L28,47.2l-.51.18-.51.17-.51.15-.53.15-.54.14-.55.13-.55.11-.58.11-.58.09-.59.08-.6.08H14.33V65.08ZM14.33,36.46h4.85l.48-.06.48-.07.46-.1.46-.11L21.5,36l.44-.13.42-.18.42-.18.39-.21.37-.23.37-.25.36-.26.34-.28.31-.3.3-.31.28-.34.26-.35L26,32.6l.22-.38.19-.38.18-.4.15-.41.14-.43.1-.43.09-.45.07-.44v-3l-.07-.46L27,25.39l-.11-.45-.14-.44-.15-.42-.18-.41-.18-.41L26,22.88l-.23-.38-.27-.35-.28-.35-.3-.32-.31-.3-.34-.29-.34-.27-.37-.25-.39-.23-.4-.21-.41-.2-.43-.16-.44-.15L21,19.29l-.46-.11-.48-.1L19.62,19l-.5-.06H14.33V36.45Z"/></g></svg>