<svg id="Camada_1" data-name="Camada 1" xmlns="http://www.w3.org/2000/svg" viewBox="0 0 200 73"><defs><style>.cls-1{fill:#0059a2;fill-rule:evenodd;}</style></defs><title>samsung</title><path class="cls-1" d="M171,43.6c16.11-7.88,25-16.85,23.68-24.28C192,3.7,144.63,1.19,95.8,9.86c-22.36,4-43.73,9.93-58.2,15.83a9.4,9.4,0,0,1,1.3,0c6.26.17,5.88,4.06,5.88,4.06v2.37h-5V30.51c0-1.15-1.39-1.23-1.39-1.23a1.28,1.28,0,0,0-1.32.73,1.83,1.83,0,0,0,.42,2.06,18.35,18.35,0,0,0,3.11,1.77A16.42,16.42,0,0,1,42.79,35a5,5,0,0,1,2.31,4.42v1.91c-.3,4.73-6.83,4.59-6.83,4.59-6.82,0-6.67-4.48-6.67-4.48V39.11h5.31v1.61a1.4,1.4,0,0,0,1.33,1.44,1.5,1.5,0,0,0,1.64-1.31v0c.2-1.36-1.31-2.22-1.31-2.22-1.48-.76-4-2.1-4-2.1A6.63,6.63,0,0,1,32.88,35a4.92,4.92,0,0,1-.82-2.83V30.66c0-2.06.55-2.65.55-2.65l.08-.13C14.81,36.12,3.88,45.68,5.27,53.53c2.81,15.94,47.44,18,99.93,10a244.12,244.12,0,0,0,61.12-17.67H166s-6.43.52-6.58-4.67v-10s-.81-5.53,6.4-5.53c0,0,4.69-.15,5.93,2.63,0,0,.62.75.45,3.83h-5V30.46a1.26,1.26,0,0,0-1.25-1.28h0s-1.36.06-1.36,1.12V40.69a1.37,1.37,0,0,0,2.74.11,1.48,1.48,0,0,0,0-.21v-3h-1.37V34.8h6.42v5.89a4,4,0,0,1-.53,2,7.66,7.66,0,0,1-.72,1Zm-18.3,1.68h-5.86l-5.25-11.59h-.22l.3,11.59h-4.94V26.34h6.07l5,11.49h.22l-.36-11.5h5v19Zm-31-4.71a1.42,1.42,0,0,0,1.32,1.52h.2c1.45,0,1.38-1.56,1.38-1.56V26.25h5.3V40.71c0,5.21-6.6,5.13-6.6,5.13-7.59,0-7-5.38-7-5.38V26.25h5.41V40.57Zm-16.6-8.45V30.51c0-1.15-1.39-1.23-1.39-1.23a1.28,1.28,0,0,0-1.32.73,1.83,1.83,0,0,0,.42,2.06A18,18,0,0,0,106,33.84,16.42,16.42,0,0,1,108.15,35a5,5,0,0,1,2.31,4.42v1.91c-.31,4.73-6.83,4.59-6.83,4.59-6.82,0-6.68-4.48-6.68-4.48V39.11h5.32v1.61a1.39,1.39,0,0,0,1.32,1.44h0a1.49,1.49,0,0,0,1.57-1.35c.2-1.36-1.3-2.22-1.3-2.22-1.49-.76-4-2.1-4-2.1A6.58,6.58,0,0,1,98.14,35a4.92,4.92,0,0,1-.82-2.83V30.66c0-2.06.55-2.65.55-2.65,1.41-2.65,6.33-2.33,6.33-2.33,6.26.17,5.87,4.06,5.87,4.06v2.38ZM79,26.33l1.6,10.37H81l1.67-10.37h8.25l.54,19h-5L86.3,31.06H86L83.41,45.27H78.22L75.61,31h-.39l-.06,14.28H70.23l.41-19ZM59.62,45.26,57.68,30.57h-.43l-2,14.69H50l3.27-19h8.38l3.28,19Z"/></svg>