<svg id="Camada_1" data-name="Camada 1" xmlns="http://www.w3.org/2000/svg" viewBox="0 0 200 73"><defs><style>.cls-1{fill:#e11834;}</style></defs><title>tcl</title><path class="cls-1" d="M125.64,30.77c-2.39,0-4.79,0-7.19,0-.6,0-.93-.11-1.06-.78-1.42-7.68-7.52-9.74-14-9.31-7.92.53-12.8,6.93-13.16,14.32-.2,4.23.36,8.27,2.94,11.8,3,4.09,7.15,5.8,12.14,5.67a18.94,18.94,0,0,0,3.68-.41,10.55,10.55,0,0,0,8.52-8.78c.16-.81.49-.92,1.17-.91,4.6,0,9.19,0,13.78,0,1.53,0,1.56,0,1.35,1.49-1.25,9-6.15,15.38-14.44,19-6,2.67-12.44,3-18.91,2.48a31.34,31.34,0,0,1-14.69-4.56A26,26,0,0,1,73.41,40.49a33.08,33.08,0,0,1,2.27-16.38A25,25,0,0,1,92,9.37,40.09,40.09,0,0,1,117,9.4c7.86,2.66,13.59,7.69,16,16a33.32,33.32,0,0,1,.77,4.22c.13.86,0,1.27-1.06,1.23C130.36,30.71,128,30.77,125.64,30.77Z"/><path class="cls-1" d="M39.47,10.43c9.43,0,18.85,0,28.28,0,1.13,0,1.37.34,1.36,1.4q-.09,6.39,0,12.79c0,1-.29,1.19-1.21,1.18-6,0-12.06,0-18.1,0-1,0-1.18.28-1.18,1.21,0,11.71,0,23.43,0,35.14,0,1.08-.24,1.4-1.36,1.39-5.27-.07-10.54-.06-15.81,0-1,0-1.22-.31-1.22-1.27,0-11.59,0-23.19,0-34.78,0-1.67,0-1.67-1.72-1.67-5.84,0-11.67,0-17.5,0-.9,0-1.23-.18-1.21-1.17q.09-6.51,0-13c0-1,.31-1.17,1.21-1.16C20.54,10.44,30,10.43,39.47,10.43Z"/><path class="cls-1" d="M143.62,36.92c0-8.4,0-16.81,0-25.22,0-1.09.3-1.31,1.33-1.3,5,.06,10,.07,15,0,1.21,0,1.41.37,1.41,1.48,0,11.88,0,23.75-.05,35.63,0,1.06.23,1.39,1.36,1.38,8.75-.05,17.49,0,26.24-.05,1,0,1.3.19,1.28,1.22-.06,4.07,0,8.13,0,12.2,0,.89-.16,1.22-1.16,1.21q-22.11,0-44.22,0c-1,0-1.16-.28-1.16-1.19C143.63,53.82,143.62,45.37,143.62,36.92Z"/></svg>