<svg id="Camada_1" data-name="Camada 1" xmlns="http://www.w3.org/2000/svg" xmlns:xlink="http://www.w3.org/1999/xlink" viewBox="0 0 200 73"><defs><style>.cls-1{fill:none;}.cls-2{clip-path:url(#clip-path);}.cls-3{fill:#191518;}.cls-4{fill:#005ba2;}.cls-5{fill:#fff;}</style><clipPath id="clip-path"><rect class="cls-1" x="2.65" y="14.47" width="194.7" height="44.06"/></clipPath></defs><title>york</title><g class="cls-2"><polygon class="cls-3" points="72.09 57.42 60.58 57.42 60.58 42.2 47.51 15.58 60.39 15.58 66.43 29.76 72.48 15.58 85.15 15.58 72.09 41.97 72.09 57.42"/><path class="cls-3" d="M117.33,36.27c0,14.24-8,22.26-18.43,22.26-11,0-18.38-8.14-18.38-22.38C80.52,23,88,14.47,98.9,14.47c12.52,0,18.43,10.75,18.43,21.8M92,36.27c0,5.35,1.37,12,6.88,12,5,0,6.92-5.11,6.92-12,0-5.7-1.95-11.74-7-11.57C93.58,24.7,92,31,92,36.27"/><path class="cls-3" d="M130.92,42.84V57.42H119.41V15.58H136c11.7,0,15.55,3.78,15.55,11.91,0,4.83-1.8,8.89-5.9,10.23,3.71,1.63,6,2.68,6,11.1,0,5.46-.14,7.33,1.22,7.33v1.27H141.16a31.75,31.75,0,0,1-.59-7.32c0-5.46-.78-7.26-6.15-7.26Zm0-9.19h4.53c3.56,0,5.46-1,5.46-3.95s-1.95-4.36-4.63-4.36h-5.36Z"/><polygon class="cls-3" points="155.24 15.58 166.75 15.58 166.75 29.12 176.83 15.58 190.34 15.58 177.52 31.33 191.71 57.42 177.91 57.42 169.47 40.74 166.75 44.17 166.75 57.42 155.24 57.42 155.24 15.58"/><path class="cls-3" d="M194.55,20.81a2.8,2.8,0,1,1,2.8-2.8,2.8,2.8,0,0,1-2.8,2.8m0-5.28A2.48,2.48,0,1,0,197,18a2.47,2.47,0,0,0-2.48-2.48m-1,.85h1.38c.48,0,.94.09,1,.79a.75.75,0,0,1-.4.77c.31.2.32.25.37.79s0,.47.15.74h-.48l-.06-.39c-.06-.36.12-.94-.53-.94h-1v1.33h-.4Zm.4.36V17.8h1a.49.49,0,0,0,.57-.47c.06-.53-.33-.59-.57-.59Z"/><rect class="cls-4" x="2.66" y="15.66" width="41.86" height="41.86"/><path class="cls-5" d="M31.08,33l-1.2-2-4.37,2.62-5.63-3.23,5.62-3.26,4.33,2.54,1.18-2-3.19-1.87,2.91-1.7-1.56-2.6-2.93,1.7,0-3.8-2.32,0,.08,5.1-5.52,3.22V21.27l4.26-2.47-1.19-2-3.07,1.75V15.66H15.3V22a8.73,8.73,0,0,0-2.08.68l-4-5.43L6.74,19.12l4,5.45a8.23,8.23,0,0,0-1.28,1.74L3,24.21l-.3,1v2.18l5.79,1.9a8.62,8.62,0,0,0-.07,1.14,8,8,0,0,0,.05,1L2.66,33.28V35.8l.22.7,6.46-2.1a8.54,8.54,0,0,0,1.23,1.74l-4,5.53,2.53,1.84,4-5.48a8.32,8.32,0,0,0,2.25.77v6.76h3.13V42.17L21.74,44l1.14-2-4.46-2.45V33.05L24,36.27l0,5h2.33l0-3.7,2.92,1.68,1.48-2.66-2.94-1.68ZM15.3,35.48a5.24,5.24,0,0,1,0-10.11Z"/></g></svg>