<svg id="Camada_1" data-name="Camada 1" xmlns="http://www.w3.org/2000/svg" viewBox="0 0 198 75"><defs><style>.cls-1{opacity:0.8;}.cls-2{opacity:0.04;}</style></defs><title>arEnt</title><g class="cls-1"><path class="cls-2" d="M137.78,16.13a12.24,12.24,0,0,0-1-5.83,10.54,10.54,0,0,0-10-6.06H50.86c-12,0-24.08.1-36.12,0a11.06,11.06,0,0,0-11,11c.15,14.79,0,29.59.06,44.38A10.53,10.53,0,0,0,14.64,70.41q7.44,0,14.87,0l23.6,0H55l3.42,0h1.57q8.34,0,16.68,0,16.56,0,33.1,0h1.34l.75,0,3.41,0h.5l.83,0c3.39,0,6.78,0,10.17,0a10.61,10.61,0,0,0,11-11.07Q137.75,37.74,137.78,16.13Zm-26,51.11c-.52,0-1,.1-1.56.1H74.68q-21.84,0-43.66,0c-.84,0-1.48-.05-1.38-1.11,0-2.47.06-5,.06-7.42,0-3.08.87-4,3.92-4h74.2c3.12,0,4,.86,4,3.91,0,2.82,0,5.64,0,8.46Zm23-8.21a8,8,0,0,1-8.41,8.37c-3.42-.17-6.87-.08-10.3,0-1,0-1.23-.29-1.2-1.24.06-2.47,0-5,0-7.42.11-4.72-3-7-6.89-6.94-25,.08-49.9,0-74.86.05-4.17,0-6.51,2.34-6.57,6.53q-.08,4,0,7.94c0,.86-.25,1.1-1.09,1.09-3.74-.05-7.48,0-11.22,0a7.61,7.61,0,0,1-7.55-7.57q-.06-22.47,0-44.92a7.52,7.52,0,0,1,7-7.53c2.6-.18,5.21-.1,7.82-.1H70.76c18.43,0,36.86.07,55.3,0,5.39,0,8.79,3.67,8.75,8.73C134.7,30.3,134.73,44.66,134.8,59Z"/><path class="cls-2" d="M88.08,19.38c-2.51-.05-5,0-7.55,0H79c-8.51,0-17-.05-25.53,0a4.37,4.37,0,0,0-4.19,4.46c0,2.29.13,4.6,0,6.89-.26,3.53,2,5.74,5.6,5.67,7.82-.15,15.64,0,23.46,0,3.12,0,6.25,0,9.38,0a4.48,4.48,0,0,0,4.64-4.69c0-2.6,0-5.2,0-7.81A4.38,4.38,0,0,0,88.08,19.38Zm1.13,12c0,1.51-.43,1.9-2,1.91H54.52c-1.92,0-2.23-.3-2.23-2.16,0-2.25,0-4.51,0-6.76,0-1.5.46-2,1.91-2q16.55,0,33.1,0c1.39,0,1.9.51,1.91,1.88Q89.24,27.8,89.21,31.37Z"/><path class="cls-2" d="M175.82,6.84a17.54,17.54,0,0,1,17.51,17.51,16.62,16.62,0,0,1-2.93,9.36,41,41,0,0,1-5.51,6.37c-2.56,2.57-4.81,4.85-5.38,7.4A1.56,1.56,0,0,1,178,48.7h-4.06a1.56,1.56,0,0,1-1.55-1.77c.7-5,4.27-8.65,7.47-11.87,3.41-3.43,6.36-6.4,6.36-10.71A10.39,10.39,0,0,0,165.52,23,1.58,1.58,0,0,1,164,24.35h-4a1.56,1.56,0,0,1-1.56-1.71,17.54,17.54,0,0,1,17.43-15.8m0-2.11a19.64,19.64,0,0,0-19.53,17.71,3.66,3.66,0,0,0,3.66,4h4a3.68,3.68,0,0,0,3.64-3.2,8.28,8.28,0,0,1,16.48,1.09c0,3.44-2.53,6-5.74,9.22a45.07,45.07,0,0,0-4.89,5.51,16.64,16.64,0,0,0-3.17,7.56,3.67,3.67,0,0,0,3.64,4.18H178a3.66,3.66,0,0,0,3.59-2.88c.43-2,2.46-4,4.81-6.37a42.77,42.77,0,0,0,5.78-6.7,18.68,18.68,0,0,0,3.27-10.52A19.64,19.64,0,0,0,175.82,4.73Z"/><path class="cls-2" d="M175.82,56.64a4.71,4.71,0,1,1-4.71,4.7,4.69,4.69,0,0,1,4.71-4.7m0-2.12a6.83,6.83,0,1,0,6.82,6.82,6.83,6.83,0,0,0-6.82-6.82Z"/></g></svg>