<svg id="Layer_1" data-name="Layer 1" xmlns="http://www.w3.org/2000/svg" viewBox="0 0 200 200"><defs><style>.cls-1{fill:#293344;fill-rule:evenodd;}</style></defs><title>aspas</title><path class="cls-1" d="M153.42,169.15c-64.95,0-58.18-110.55,11-138.3a6.09,6.09,0,0,1,3.91,9.58q-32.07,26.19-29.65,49.43a45,45,0,0,1,14.79-2.47c23.77,0,43,18.3,43,40.88s-19.27,40.88-43,40.88"/><path class="cls-1" d="M48.57,169.15c-65,0-58.18-110.55,11-138.3a6.1,6.1,0,0,1,3.91,9.58Q31.36,66.62,33.78,89.86a45,45,0,0,1,14.79-2.47c23.77,0,43,18.3,43,40.88s-19.27,40.88-43,40.88"/></svg>