<svg id="Camada_1" data-name="Camada 1" xmlns="http://www.w3.org/2000/svg" viewBox="0 0 200 200"><defs><style>.cls-1{fill:#fefefe;}</style></defs><title>iconeTelefone</title><path class="cls-1" d="M147.59,194c-12.19-.83-23.72-5.19-34.72-10.55C71,163,39.12,132,17.22,90.89,12,81,7.29,70.76,5.75,59.48,3.63,44,8.48,30.67,19.12,19.38,22.49,15.8,26,12.32,29.52,8.92,33.64,5,37.67,5,41.8,9.12q16,15.83,31.8,31.79c4.39,4.42,4.39,8.41.05,12.81C67.82,59.64,61.88,65.46,56,71.37c-7.41,7.47-7.9,15.37-1.56,23.84a237,237,0,0,0,52.22,51.15c8,5.74,16.1,5.17,23.06-1.78,5.63-5.63,11.17-11.35,16.78-17,4.81-4.84,8.74-4.87,13.55-.08q15.54,15.51,31,31.08c4.85,4.87,4.84,8.67,0,13.52-6.63,6.59-13,13.52-21.77,17.44A52,52,0,0,1,147.59,194Z"/></svg>