<svg id="Camada_1" data-name="Camada 1" xmlns="http://www.w3.org/2000/svg" xmlns:xlink="http://www.w3.org/1999/xlink" viewBox="0 0 200 200"><defs><style>.cls-1{fill:url(#radial-gradient);}.cls-2{fill:#fff;}</style><radialGradient id="radial-gradient" cx="98.54" cy="107.29" fx="-11.722286396478708" r="262.7" gradientTransform="translate(-31.8 124.96) rotate(-49.2) scale(1 0.81)" gradientUnits="userSpaceOnUse"><stop offset="0" stop-color="#f9ed32"/><stop offset="0.05" stop-color="#f8d939"/><stop offset="0.17" stop-color="#f5a54d"/><stop offset="0.33" stop-color="#f0536c"/><stop offset="0.4" stop-color="#ee2a7b"/><stop offset="0.56" stop-color="#9e2aa7"/><stop offset="0.72" stop-color="#5b2acd"/><stop offset="0.85" stop-color="#2a2ae8"/><stop offset="0.95" stop-color="#0b2af9"/><stop offset="1" stop-color="#002aff"/></radialGradient></defs><title>iconeInstagram</title><path class="cls-1" d="M192.93,100A92.93,92.93,0,1,1,100,7.07,92.92,92.92,0,0,1,192.93,100Z"/><path class="cls-2" d="M125.18,162.72H74.82a40.58,40.58,0,0,1-40.53-40.53V77.81A40.57,40.57,0,0,1,74.82,37.28h50.36a40.57,40.57,0,0,1,40.53,40.53v44.38A40.58,40.58,0,0,1,125.18,162.72ZM74.82,46.29A31.56,31.56,0,0,0,43.3,77.81v44.38a31.56,31.56,0,0,0,31.52,31.52h50.36a31.56,31.56,0,0,0,31.52-31.52V77.81a31.56,31.56,0,0,0-31.52-31.52Z"/><path class="cls-2" d="M100,136.08A36.08,36.08,0,1,1,136.08,100,36.13,36.13,0,0,1,100,136.08Zm0-63.15A27.07,27.07,0,1,0,127.07,100,27.1,27.1,0,0,0,100,72.93Z"/><path class="cls-2" d="M143,65a7.49,7.49,0,1,1-7.48-7.49A7.49,7.49,0,0,1,143,65Z"/></svg>