<svg id="Camada_1" data-name="Camada 1" xmlns="http://www.w3.org/2000/svg" viewBox="0 0 200 200"><defs><style>.cls-1{fill:#395398;}.cls-2{fill:#fff;}</style></defs><title>iconeFacebook</title><path class="cls-1" d="M193,100a92.94,92.94,0,1,0-92.93,92.93h.79V128.08H78.49V102.17h22.37V83.06c0-22.18,13.55-34.25,33.33-34.25a182.37,182.37,0,0,1,20,1V73H140.46c-10.76,0-12.84,5.11-12.84,12.61v16.55h25.66l-3.34,25.91H127.62v60.7A93,93,0,0,0,193,100Z"/><path class="cls-2" d="M149.94,128.08l3.34-25.91H127.62V85.62c0-7.5,2.08-12.61,12.84-12.61h13.72V49.83a182.37,182.37,0,0,0-20-1c-19.78,0-33.33,12.07-33.33,34.25v19.11H78.49v25.91h22.37v64.84a93.06,93.06,0,0,0,26.76-4.14v-60.7Z"/></svg>