<svg id="Camada_1" data-name="Camada 1" xmlns="http://www.w3.org/2000/svg" viewBox="0 0 160 85"><defs><style>.cls-1{fill:#347ec8;}</style></defs><title>icone-ar</title><path class="cls-1" d="M155.5,18.65a13.75,13.75,0,0,0-1.16-6.56A11.86,11.86,0,0,0,143.1,5.26H57.63c-13.56,0-27.13.11-40.68,0A12.45,12.45,0,0,0,4.5,17.63c.18,16.66,0,33.32.07,50A11.87,11.87,0,0,0,16.84,79.78c5.58,0,11.16,0,16.74,0l26.58,0h2.07l3.85,0h1.77c6.26,0,12.52,0,18.78,0l37.28,0h1.5l.85,0,3.85,0h.55l.94,0c3.81,0,7.63,0,11.45,0,7.29,0,12.44-5.19,12.44-12.46Q155.46,43,155.5,18.65ZM126.25,76.21c-.58,0-1.16.11-1.75.11q-20,0-40.06,0-24.58,0-49.16,0c-.94,0-1.67,0-1.55-1.25,0-2.78.06-5.57.07-8.35,0-3.47,1-4.48,4.4-4.48h83.57c3.51,0,4.48,1,4.48,4.4,0,3.18,0,6.35,0,9.53ZM152.15,67a9,9,0,0,1-9.47,9.43c-3.86-.19-7.73-.09-11.6,0-1.14,0-1.38-.34-1.35-1.4.07-2.78,0-5.57,0-8.36.13-5.31-3.38-7.83-7.75-7.82-28.1.09-56.21.05-84.31.06-4.69,0-7.33,2.64-7.4,7.36-.05,3-.06,6,0,8.94,0,1-.28,1.23-1.23,1.22-4.21,0-8.42,0-12.63,0a8.57,8.57,0,0,1-8.5-8.53q-.06-25.29,0-50.58a8.49,8.49,0,0,1,7.93-8.48c2.92-.2,5.87-.11,8.8-.11H80c20.76,0,41.52.08,62.27-.05,6.08,0,9.91,4.12,9.86,9.83C152,34.6,152.06,50.78,152.15,67Z"/><path class="cls-1" d="M99.54,22.31c-2.83-.06-5.67,0-8.51,0H89.26c-9.59,0-19.17-.06-28.76,0a4.93,4.93,0,0,0-4.72,5c0,2.59.15,5.19,0,7.76-.3,4,2.3,6.47,6.3,6.39,8.8-.18,17.61-.06,26.41-.06,3.52,0,7,0,10.56,0a5.06,5.06,0,0,0,5.24-5.28c0-2.93,0-5.86,0-8.79A5,5,0,0,0,99.54,22.31Zm1.27,13.5c0,1.7-.48,2.15-2.23,2.15H61.74c-2.16,0-2.5-.34-2.51-2.44q0-3.81,0-7.62c0-1.68.52-2.26,2.15-2.26q18.65,0,37.28,0c1.57,0,2.14.58,2.15,2.12C100.84,30.44,100.83,33.13,100.81,35.81Z"/></svg>