<svg id="Camada_1" data-name="Camada 1" xmlns="http://www.w3.org/2000/svg" viewBox="0 0 650 600"><defs><style>.cls-1{fill:#fff;}</style></defs><title>servico</title><path class="cls-1" d="M590.26,496.9c.36.23.64,0,.59-.58s-.41-1-.74-.89-.62.33-.59.58A1.55,1.55,0,0,0,590.26,496.9Z"/><path class="cls-1" d="M585.83,499.89c.2-.41.77-.33,1.32.17s.92.57.84-.23c-.06-.62.19-.91.58-.67s.65,0,.58-.66-.45-.83-.91-.44a1.65,1.65,0,0,1-1.79,0c-1.33-.85-1.33-.85-1.14,1C585.4,499.89,585.64,500.27,585.83,499.89Z"/><path class="cls-1" d="M586,505.84c.85-.18,1.15.19,1,1.24s.07,1.27.75.72c1.12-.89,1.12-1.12.1-3.17-.9-1.8-2.58-1.71-2.86.16C584.88,505.58,585.28,506,586,505.84Z"/><path class="cls-1" d="M588.15,503.2c.25.68.68,1.13,1,1.06s.52-.66.45-1.37-.52-1.16-1-1.05S587.92,502.55,588.15,503.2Z"/><path class="cls-1" d="M574.5,488.84c.36.23.64,0,.59-.58s-.41-.95-.75-.88-.61.32-.59.58A1.6,1.6,0,0,0,574.5,488.84Z"/><path class="cls-1" d="M582.65,473.1c.06.23.13.5.19.81C583,473.65,583,473.4,582.65,473.1Z"/><path class="cls-1" d="M581,432.41a.77.77,0,0,1,.07-.16c0-.1.07-.2.09-.3A.65.65,0,0,0,581,432.41Z"/><path class="cls-1" d="M586.61,477.39c-.49,2.56-1.25,3.21-2.63,2.26-.73-.51-.88-1-.47-1.59a7.61,7.61,0,0,0,.82-2.47,2.59,2.59,0,0,0-1.12.77c-.84.89-1.16.85-1.26-.19a3.11,3.11,0,0,1,0-.61,2.14,2.14,0,0,1,0-.8c.16-1-.06-1.17-.75-.61l-.15.12q-.06.15-.18.12c-.62.39-.79.12-.54-.47l-.35-.45c-1.06-1.42-1.09-1.4-.6.49a4.24,4.24,0,0,1,.1,2,14.26,14.26,0,0,0,1.21,1,3.58,3.58,0,0,1,1.08,1.53.74.74,0,0,1,.21-.07c.73-.16.9.19.55,1.1l-.13.37h0a1.17,1.17,0,0,1,.58,1.39.52.52,0,0,1-.58.29c.24,1.83.53,2,1.5,1.41s1-.47-.14,1l-1.43,1.81,1.82-1c3-1.7,3.91-3,3.69-5.7-.19-2.32-.14-2.41.55-.85s.74,1.57.4-.45C588.29,474.85,587.14,474.67,586.61,477.39Z"/><path class="cls-1" d="M585.17,485.78c-.36.71-.49,1.54-.28,1.78s.52-.38.67-1.32C585.78,484.83,585.7,484.73,585.17,485.78Z"/><path class="cls-1" d="M581.76,507.94c.22,1.58.32,1.68.42.4.07-.92.41-1.76.74-1.83s.51.23.36.78.35,1,1.11,1.17c1.33.25,1.33.22.1-1.29C582.72,505,581.4,505.38,581.76,507.94Z"/><path class="cls-1" d="M577.75,473.88l0,0a6.7,6.7,0,0,0,.7,1C578.57,473.77,578.36,473.53,577.75,473.88Z"/><path class="cls-1" d="M576.82,478.86c0,.24.08.56.13,1,.11.09.27,0,.46-.19s.77-.3,1.05.18a.69.69,0,0,1-.51,1.06,1.19,1.19,0,0,0-.8.9,13.53,13.53,0,0,0,.32,1.5c.2.09.45,0,.76-.23.79-.63,1-.35.85,1.31-.17,2.4.59,2.47,1.75.17a8.18,8.18,0,0,0,.74-1.85,1.24,1.24,0,0,1-.18-.51,1.51,1.51,0,0,0-.7.39c-.62.51-1,.12-1.12-1.21,0-.36-.05-.63-.05-.85-.76.25-1.56-1.26-1.57-2.89A1.83,1.83,0,0,0,576.82,478.86Z"/><path class="cls-1" d="M573.92,514.56a1.22,1.22,0,0,1,.86.65l.22.08c.58.17.84,0,.58-.49C575.12,514,573.92,513.87,573.92,514.56Z"/><path class="cls-1" d="M581.26,479.13c-.16-1.08-.48-1.39-1-1a.94.94,0,0,1-.71.22A1.88,1.88,0,0,1,580,480a3,3,0,0,1,.45.37c.38.35.61.51.75.45,0-.21,0-.4,0-.58a.66.66,0,0,1,0-.56A3,3,0,0,1,581.26,479.13Z"/><path class="cls-1" d="M582.91,510a2.69,2.69,0,0,0-.85,2,2.57,2.57,0,0,1-.61,1.86c-.39.34,0,.52.75.38s1.34-.7,1.1-1.37a3.3,3.3,0,0,1,.52-2.44C584.81,509,584.4,508.81,582.91,510Z"/><path class="cls-1" d="M589.47,505.42a2.71,2.71,0,0,0,.12,1.79c.27.67.41.41.33-.66S589.65,505.05,589.47,505.42Z"/><path class="cls-1" d="M582,488.6a1.23,1.23,0,0,0-1.1-.72c-.35.08-.57.53-.51,1.07a.87.87,0,0,0,1.1.71A.69.69,0,0,0,582,488.6Z"/><path class="cls-1" d="M578.28,491c-.52.42-.9.9-.88,1.1s.46.26,1,.14a1.06,1.06,0,0,0,.88-1.09C579.23,490.63,578.79,490.56,578.28,491Z"/><path class="cls-1" d="M580.22,506.7c-.31.38-.6.2-.67-.42s-.51-.79-1-.37-.95.35-1-.15-.22-.86-.4-.82-.23.73-.15,1.53a1.91,1.91,0,0,0,1.48,1.68,1.82,1.82,0,0,1,1.46,1.59c.08.8-.15,1.19-.55.93s-.65,0-.6.54.41.91.77.83.28.63-.18,1.54a6.88,6.88,0,0,0-.79,2.3c0,.36.5-.29,1.08-1.5C580.7,512.16,581.2,505.47,580.22,506.7Z"/><path class="cls-1" d="M591.18,502.54c.48-.4,1.05,0,1.3.82s.2.37-.08-1c-.35-1.74-.26-2.41.28-2.06s.61-.13.17-1.67a33.78,33.78,0,0,1-.78-3.33c-.08-.62-.31-1.11-.51-1.07s-.14,1,.14,2.24a3.83,3.83,0,0,1-.54,3.47C589.9,501.5,589.92,503.59,591.18,502.54Z"/><path class="cls-1" d="M570,481.38c-.24-.36-.49-.59-.62-.56s-.2.33-.19.73C569.65,481.92,570,481.84,570,481.38Z"/><path class="cls-1" d="M570.13,427.84l.13,0a.62.62,0,0,0-.55-.23.39.39,0,0,0-.23.14A1.21,1.21,0,0,1,570.13,427.84Z"/><path class="cls-1" d="M572.17,429.29a2,2,0,0,1-1.34-.47l-.33.46a.94.94,0,0,1,.23.1A1.4,1.4,0,0,0,572.17,429.29Z"/><path class="cls-1" d="M571,508.66a1,1,0,0,0-.52.84.71.71,0,0,0,.36.54,1,1,0,0,0,.53-1C571.33,508.8,571.19,508.67,571,508.66Z"/><path class="cls-1" d="M571.74,476.79a8.18,8.18,0,0,0,0,1.48c0,.2,0,.38,0,.57.2.4.29.09.21-.86A2.88,2.88,0,0,0,571.74,476.79Z"/><path class="cls-1" d="M558.28,527c-.77.28-.78.46,0,1a2,2,0,0,1,.94,1.25c0,2.17.34,2.27,1.59.48,1.78-2.54,1.72-4.27-.12-3.57C559.89,526.41,558.8,526.82,558.28,527Z"/><path class="cls-1" d="M566.66,477.48a.7.7,0,0,0-.7.54.52.52,0,0,1-.18.29C566.86,480.18,567.57,479.62,566.66,477.48Z"/><path class="cls-1" d="M565.36,492.44a2.73,2.73,0,0,0,.16,1.82c.27.69.39.42.3-.65S565.52,492.09,565.36,492.44Z"/><path class="cls-1" d="M568.61,486.43c1.42-.6,1.73-.41,1.62,1-.07.93.24,1.87.64,2s.71-.93.64-2.45c-.11-2.12-.66-2.88-1.79-2.32-.24,1.37-.29,1.49-.45.27A9.3,9.3,0,0,0,568,486C567,487,567.12,487.06,568.61,486.43Z"/><path class="cls-1" d="M573.51,471.47a.28.28,0,0,0-.17,0c-.16,0-.15.38,0,.89A.86.86,0,0,0,573.51,471.47Z"/><path class="cls-1" d="M580,470.79a4.38,4.38,0,0,1,1-.27.85.85,0,0,1-.47-.44,1.57,1.57,0,0,0-.66-.9l-.42,0c-.27.13-.31.5-.06.93s-.12,1-.84,1.14a2,2,0,0,0-.8.34C578.34,471.38,579.18,471.08,580,470.79Z"/><path class="cls-1" d="M581.75,428.76a1.55,1.55,0,0,0,.28-.71A1.43,1.43,0,0,0,581.75,428.76Z"/><path class="cls-1" d="M580.6,425.31l-.14-.05v0Z"/><path class="cls-1" d="M580.15,429.46c.2.29.45.25.67,0,0-.27.09-.43.29-.48a4.49,4.49,0,0,0,.33-2.11c-.08-.92-1.07-.61-1.5.36a2.23,2.23,0,0,1,.29,1.22C580.27,429.07,580.24,429.42,580.15,429.46Z"/><path class="cls-1" d="M582.64,471.21c1-.71,1.22-.54,1.11,1.08-.08,1.11.15,1.88.55,1.79a.5.5,0,0,1,.39.09c.13-.26.28-.36.41-.22s.87,0,1.46-.61a.52.52,0,0,1,.1-.11h0c1.17-1.27,1.18-4.91,0-4.66-.39.08-.43.86-.09,1.88.27.79.31,1.26.09,1.54a.87.87,0,0,1-.56.79c-.26.06-.42-.14-.43-.45-1.29.06-1.68-.91-.6-1.7.38-.27-.43-.26-1.76,0a4.63,4.63,0,0,1-1.64.07.46.46,0,0,1,0,.33C581.52,471.67,581.89,471.73,582.64,471.21Z"/><path class="cls-1" d="M575,430.69c-.51-.31-.49-1,.28-1.52.37-.28-.43-.27-1.77,0l-.12,0a1.58,1.58,0,0,1,.44.63C574.1,430.51,574.47,430.78,575,430.69Z"/><path class="cls-1" d="M577.73,429c0-1.1-.25-2-.86-1.91-.36.08-.41.76-.14,1.68C577.18,427.2,577.49,427.27,577.73,429Z"/><path class="cls-1" d="M575.59,479.87a.59.59,0,0,0,.28,0,2.57,2.57,0,0,0,.18-.37,3.34,3.34,0,0,0-.79-1.27A7.27,7.27,0,0,0,575.59,479.87Z"/><path class="cls-1" d="M574.92,475.18a5.45,5.45,0,0,0,.46.38,4.26,4.26,0,0,1-.26-.73C574.93,474.11,574.86,474.31,574.92,475.18Z"/><path class="cls-1" d="M576.17,473.8a6.79,6.79,0,0,0,.34.77c.34.67.59,1.18.75,1.57.27-.1.43-.36.38-.82-.15-1.24-1.6-3.05-1.49-1.86C576.16,473.59,576.17,473.7,576.17,473.8Z"/><path class="cls-1" d="M595.57,419.23h0a2.71,2.71,0,0,1,.28-1.3,1,1,0,0,1-.57-.27l-.41.56a3.81,3.81,0,0,0,.24.32A5.14,5.14,0,0,1,595.57,419.23Z"/><path class="cls-1" d="M559.27,548.8c.36-.08.46-.55.21-1s-.62-.82-.8-.78-.26.47-.2,1S558.91,548.88,559.27,548.8Z"/><path class="cls-1" d="M561.47,552.14a1.62,1.62,0,0,0,.94-1.15c.17-.58,0-1-.34-.88a1.62,1.62,0,0,0-.94,1.15C561,551.84,561.11,552.22,561.47,552.14Z"/><path class="cls-1" d="M559.28,543.85a1.43,1.43,0,0,0,1.46-.9c.41-.81.16-.87-.89-.22C559,543.24,558.78,543.73,559.28,543.85Z"/><path class="cls-1" d="M569,552.43c.15,0,.4-.49.57-1.07s0-1-.37-.88a1,1,0,0,0-.57,1.08C568.68,552.09,568.84,552.47,569,552.43Z"/><path class="cls-1" d="M581.58,551.64a1.5,1.5,0,0,1,1.67.82c.25.6.37.15.27-1-.15-1.61-.55-2-1.77-1.76-.84.19-1.53.77-1.47,1.27S580.92,551.78,581.58,551.64Z"/><path class="cls-1" d="M523.48,549.22c0,.2.52.52,1.09.72s.85,0,.59-.44C524.69,548.69,523.4,548.48,523.48,549.22Z"/><path class="cls-1" d="M591.25,468.32c-.09-1-1.26-.55-1.61.61a2.67,2.67,0,0,0,.28,1.94C590.47,471.8,591.4,470,591.25,468.32Z"/><path class="cls-1" d="M600.27,443.69c-.36.07-.41.81-.12,1.56a13,13,0,0,1,.66,2.45c.07.71.27.68.67-.1C602.12,446.33,601.24,443.48,600.27,443.69Z"/><path class="cls-1" d="M598.52,445.06c-.36.08-.43.5-.15,1a1.21,1.21,0,0,0,1.13.71c.36-.07.43-.5.15-1A1.23,1.23,0,0,0,598.52,445.06Z"/><path class="cls-1" d="M599,466.15a10.9,10.9,0,0,0,.34,3.29c.26.85.32.07.13-1.71S599.07,465.23,599,466.15Z"/><path class="cls-1" d="M601.08,440.77c2.12.72,2.63.4,1.16-.72-.74-.57-1.59-.74-1.89-.38S600.37,440.53,601.08,440.77Z"/><path class="cls-1" d="M11.9,572.25c.86-1.48,1.9-1.59,35.2-3.46,37.5-2.1,43.29-2.56,79.75-6.25,19.59-2,24.86-2.24,24.27-1.2s-.21.87,1.12-.2c1.88-1.53,21.33-3.68,29.79-3.75-1-1.73.35-2.29,2.23-.56.93.85,1.67,1,1.55.4-.18-1.09.73-1.51,1.54-1.26a.65.65,0,0,0,0-.14c0-.23-.59-.38-1.42-.45a3.13,3.13,0,0,1-2.26,0l-1,.09a39.67,39.67,0,0,1-5.18.15c-6.8.91-21.85,1.63-25.93,1l-.39,0c-.08.06-.13.11-.12.17.06.27-1.13.56-3,.83-2.2,1.71-48.93,6.8-57.54,6.27-.39,0-.84,0-1.33-.05-12.2,1.28-24.47,2.25-28.48,2a117,117,0,0,0-15.8.67c-5.63.61-10.15.64-13.18.09-.58,0-1.21.08-1.86.1-3.16.11-9.9.48-15.12.85-3.3.23-6.7.44-10.09.64a28.08,28.08,0,0,1-4.59.46l-.47,0v5.91C9,574,11.21,573.45,11.9,572.25Z"/><path class="cls-1" d="M522.33,551.92c-.4.09-.28.65.3,1.43s1.09,1.06,1.22.79C524.23,553.37,523.12,551.75,522.33,551.92Z"/><path class="cls-1" d="M9.4,41.46a5.21,5.21,0,0,0,3.55-1c2-1.7,48.92-6.82,57.55-6.28l1,0c1.13-.24,2.85-.56,5.62-1.08,3.35-.63,6.11-.79,6.32-.37l1.12-.25a1,1,0,0,1-.27-1,1,1,0,0,1,.25-.41l-.54,0-11.16.63C62.4,32.67,51.9,33.7,34.07,35.5,15.8,37.35,10,37.7,9.77,36.9L8.5,37c-1.06.6-4.6,1.28-9,1.88v2.36A65.77,65.77,0,0,1,9.4,41.46Z"/><path class="cls-1" d="M482.66,560.94c-.46.91-1.05,1.63-1.4,1.71s-.57.53-.51,1.06a.83.83,0,0,0,1.06.72,1.08,1.08,0,0,0,.88-1.14.92.92,0,0,1,.54-1.07c.35-.07.7.49.78,1.29s.41,1.36.75,1.29.23-1.19-.35-2.79C483.56,559.65,483.37,559.53,482.66,560.94Z"/><path class="cls-1" d="M21.57,580.06a1.59,1.59,0,0,1,.57-.62c-7.86.38-15.73.73-22.64,1v1.5l20.42-.77A2.66,2.66,0,0,0,21.57,580.06Z"/><path class="cls-1" d="M511.56,552.33a1.62,1.62,0,0,0-.93,1.15c-.17.58,0,1,.34.88a1.64,1.64,0,0,0,.93-1.15C512.07,552.63,511.93,552.25,511.56,552.33Z"/><path class="cls-1" d="M488.42,562.11c-.37.07-.6.53-.54,1.07s.37.87.73.79a.92.92,0,0,0,.54-1.07C489.1,562.37,488.78,562,488.42,562.11Z"/><path class="cls-1" d="M515.77,551.88c-.16,1,.14,1.42,1,1.24,1.27-.28,1.55-1.31.62-2.32C516.61,550,516,550.38,515.77,551.88Z"/><path class="cls-1" d="M508.64,556.36a2.38,2.38,0,0,0-.49,1.56c.05.48.36.78.72.7s.57-.76.49-1.55S509,556,508.64,556.36Z"/><path class="cls-1" d="M605.29,457c.18,0,.44-.5.61-1.08s0-.95-.4-.87a1,1,0,0,0-.6,1.08C605,456.61,605.12,457,605.29,457Z"/><path class="cls-1" d="M603.12,343.35c-.25.14-.49.3-.72.45a.54.54,0,0,0,.39.09A.46.46,0,0,0,603.12,343.35Z"/><path class="cls-1" d="M603.34,348.59c.36-.08.42-.5.14-1a1.22,1.22,0,0,0-1.13-.71c-.36.08-.42.5-.14,1A1.22,1.22,0,0,0,603.34,348.59Z"/><path class="cls-1" d="M604.64,349.53c.07.71.28.68.67-.1a4,4,0,0,0-.64-3.69.85.85,0,0,1-.24.09,1,1,0,0,1-.57-.05,2,2,0,0,0,.13,1.31A11.91,11.91,0,0,1,604.64,349.53Z"/><path class="cls-1" d="M606.13,341.92l-.85.36-.56.24.2.09C607,343.32,607.53,343,606.13,341.92Z"/><path class="cls-1" d="M596.09,424.11c.19.32.25.2.21-.35A2.5,2.5,0,0,1,596.09,424.11Z"/><path class="cls-1" d="M596.06,417.66a1.46,1.46,0,0,1,.16-.19c.45-.36.5-.66.11-1.05a1.15,1.15,0,0,0-.28.94A1,1,0,0,1,596.06,417.66Z"/><path class="cls-1" d="M590.42,466.77a.92.92,0,0,0,.54-1.07c-.05-.53-.37-.87-.73-.8a.93.93,0,0,0-.54,1.07C589.74,466.51,590.06,466.85,590.42,466.77Z"/><path class="cls-1" d="M565.31,488.41a1,1,0,0,0,.57-1.08c0-.53-.21-.9-.37-.87s-.4.49-.57,1.07S565,488.49,565.31,488.41Z"/><path class="cls-1" d="M595.34,414.35c-.1.34,0,.51.19.5,0-.05,0-.1,0-.16a4.88,4.88,0,0,0-.15-.93.88.88,0,0,0-.12.15A.38.38,0,0,1,595.34,414.35Z"/><path class="cls-1" d="M602.82,437.22c1-1.68.12-2.46-2.31-1.94-1.27.27-2,.83-1.77,1.29C599.59,438,602.07,438.42,602.82,437.22Z"/><path class="cls-1" d="M613.12,357.31a1,1,0,0,1,.43,0c-.44-.59-.7-.92-.81-.93s0,.13-.07.19a5.1,5.1,0,0,0,.13.82Z"/><path class="cls-1" d="M599,442.06c.37-.08.47-.55.21-1s-.62-.82-.79-.78-.27.47-.21,1S598.59,442.14,599,442.06Z"/><path class="cls-1" d="M600,414.13s.06,0,.09,0a1.09,1.09,0,0,1-.13-.17c-1.06-1.43-1.11-1.39-.51,1.15C599.58,414.59,599.81,414.16,600,414.13Z"/><path class="cls-1" d="M602.48,457.55a.92.92,0,0,0-.54,1.07c0,.54.37.88.73.8a.94.94,0,0,0,.54-1.07C603.15,457.82,602.84,457.48,602.48,457.55Z"/><path class="cls-1" d="M605.68,339.57c-.19.06-.39.11-.58.18a2.18,2.18,0,0,0,.52-.06A.67.67,0,0,0,605.68,339.57Z"/><path class="cls-1" d="M613.81,298.36c.42.43.88.87,1.37,1.32C615.42,298.83,614.93,298.36,613.81,298.36Z"/><path class="cls-1" d="M612,277.37s.06,0,.09,0l-.13-.17c-1-1.43-1.11-1.39-.5,1.15C611.58,277.83,611.81,277.4,612,277.37Z"/><path class="cls-1" d="M610.87,359.47a1.11,1.11,0,0,0-.63.06h0a2.28,2.28,0,0,0,.45,0Z"/><path class="cls-1" d="M611.37,358.3l0,0c0-.19,0-.39.05-.62.12-1.12,0-1.9-.33-1.84a.16.16,0,0,1-.1,0C610.56,358.07,610.66,358.45,611.37,358.3Z"/><path class="cls-1" d="M329.49,13.6c1.07-.45,1.94-1.24,1.85-1.68-.26-1.29-1-1.05-2.5.84C327.71,14.14,327.83,14.29,329.49,13.6Z"/><path class="cls-1" d="M252.84,556.13a2.68,2.68,0,0,0,.78,1.61l1.52-.24a6.28,6.28,0,0,0,1.37-2.25.83.83,0,0,1,0-.15,5.35,5.35,0,0,1-2.77-.92A1.64,1.64,0,0,0,252.84,556.13Z"/><path class="cls-1" d="M272.8,555.14a2.5,2.5,0,0,1-.71-.44,3.72,3.72,0,0,0-3.43-.39c-1.07.44-2.09.51-2.17.14s-2.57-.27-5.43.25a27.9,27.9,0,0,1-2.87.39,6.1,6.1,0,0,0,.12,1.3,3.85,3.85,0,0,1,.08.58c1.72-.28,3.62-.59,5.52-.92C268.84,555.22,271.55,554.93,272.8,555.14Z"/><path class="cls-1" d="M254.67,562.27a2.5,2.5,0,0,0-.9,1,2.83,2.83,0,0,0,2.18-.71l0,0A.88.88,0,0,0,254.67,562.27Z"/><path class="cls-1" d="M260.77,558a2.82,2.82,0,0,0-1.95,1.22c-.35.61-.05,1,.71.93a2.78,2.78,0,0,0,1.94-1.22C261.83,558.34,261.52,557.94,260.77,558Z"/><path class="cls-1" d="M243.16,555.17c0,.07-.09.13-.13.19a6.51,6.51,0,0,0,1.52,0s0-.09,0-.14C244.23,553.76,244,553.75,243.16,555.17Z"/><path class="cls-1" d="M250.05,559.52c-.09-.5-.38-.69-.8-.42a1.81,1.81,0,0,0-.59.73,2.71,2.71,0,0,1,.61.64c.33.44.56.63.68.56s.07-.37.1-.58v0a3.51,3.51,0,0,0,0-.41A1.3,1.3,0,0,1,250.05,559.52Z"/><path class="cls-1" d="M281.81,26.75l.49,0C282.18,26.55,282,26.55,281.81,26.75Z"/><path class="cls-1" d="M241.53,555.71h0a3.57,3.57,0,0,0-.58,1.23c-.56,1.75-1.48,2.11-12.38,3.1a5.63,5.63,0,0,1-.33,1.33,4.45,4.45,0,0,1,.8.56,33.93,33.93,0,0,1,3.78-.56h.11a13.22,13.22,0,0,1,2.54-.57C239.26,560.4,243.44,556.89,241.53,555.71Z"/><path class="cls-1" d="M282.93,555.38c-.15-.94-.76-1.73-1.31-1.71a33.61,33.61,0,0,1-4.87-.16c-1.79,1.3-2.81,1.81-3.61,1.71.3.1.46.25.5.45.16.78,1.61.91,4.08.37,2.09-.47,4.2-.41,4.66.11S283.09,556.32,282.93,555.38Z"/><path class="cls-1" d="M283.19,557.6c-.84.09-.59.68.64,1.51s2.25,1.11,2.53.82C287.15,559.12,284.84,557.42,283.19,557.6Z"/><path class="cls-1" d="M260.63,546.27a3.85,3.85,0,0,0-1.64.22l-.29.12a.84.84,0,0,1,.13.33,7.93,7.93,0,0,1,1.64-.3A2,2,0,0,0,260.63,546.27Z"/><path class="cls-1" d="M277.16,27.05a.21.21,0,0,0-.05-.13,41.08,41.08,0,0,0-5.08,0,16.71,16.71,0,0,1-5-.3c-1.75-.62-4.53-.09-4.77.84,3.87.08,9.26-.05,14.87-.36Z"/><path class="cls-1" d="M285.58,554.75a4.72,4.72,0,0,0,2.28.76c1.21.21,1.77,0,1.23-.47C288.12,554.19,285.42,554,285.58,554.75Z"/><path class="cls-1" d="M272.89,556.42c-1.61-.89-2.91-.45-3.37,1.13-.32,1.11.3,1.5,2.06,1.31C274.23,558.57,274.82,557.48,272.89,556.42Z"/><path class="cls-1" d="M399.63,555a4.07,4.07,0,0,0,1.82-.23,2.36,2.36,0,0,0-.24-.38,1.59,1.59,0,0,1-.27-.51l-.21,0a3.61,3.61,0,0,0-1.57.77.61.61,0,0,1,.24.33Z"/><path class="cls-1" d="M210.23,574.91a6.15,6.15,0,0,1-2.92,1.8c-.72.08-1.18.56-1.06,1.12s1.08.89,2.22.77,1.93-.65,1.82-1.21.36-1,1.12-1.12a1.58,1.58,0,0,1,1.63,1.35,1.56,1.56,0,0,0,1.57,1.36c.76-.08.47-1.25-.73-2.93C212.11,573.56,211.7,573.43,210.23,574.91Z"/><path class="cls-1" d="M197.63,564.9l-3.38.38c.9.08,1.4.24,1.33.47a.38.38,0,0,0,0,.1c.71-.14,1.5-.28,2.34-.41a1.2,1.2,0,0,0-.13-.21A1,1,0,0,1,197.63,564.9Z"/><path class="cls-1" d="M190.34,563.87a2.7,2.7,0,0,0,1.88-1.21.36.36,0,0,0,0-.09l-2.13.18C188.65,563.49,188.66,564.05,190.34,563.87Z"/><path class="cls-1" d="M326,17.3a2.52,2.52,0,0,0,.62,0c.94-.11,1.38-.69,1-1.31a.94.94,0,0,0-.15.06c-1.07.45-1.82.89-1.78,1.05S325.81,17.23,326,17.3Z"/><path class="cls-1" d="M339.16,21.41a5.61,5.61,0,0,0,1-.57,1.1,1.1,0,0,1-.53-1.15l-.35,0c-.24.25-.5.53-.8.9a6.67,6.67,0,0,0-.63.86l1.12,0Z"/><path class="cls-1" d="M218.68,562.26a2.07,2.07,0,0,0,0,.89.14.14,0,0,0,0,.07c.44,0,.93,0,1.43,0,.05-.24.1-.5.14-.79a3.56,3.56,0,0,0,0-.7,6.82,6.82,0,0,1-1.13.45A3.75,3.75,0,0,1,218.68,562.26Z"/><path class="cls-1" d="M222.22,576.14c-.75.09-1.24.57-1.12,1.13a1.31,1.31,0,0,0,1.53.84c.75-.08,1.23-.57,1.12-1.13A1.32,1.32,0,0,0,222.22,576.14Z"/><path class="cls-1" d="M224.21,572.91a1.34,1.34,0,0,0,1.18-.83l-2.15.23C223,572.75,223.46,573,224.21,572.91Z"/><path class="cls-1" d="M239.12,570.77c-.09.18-.11.29-.09.34l.27,0a4.2,4.2,0,0,0,.78-.65h0l-.93.11A.53.53,0,0,1,239.12,570.77Z"/><path class="cls-1" d="M209.92,564a1.9,1.9,0,0,0,.28-.24l-1-.1a.47.47,0,0,1,.15.25.23.23,0,0,0,.07.13Z"/><polygon class="cls-1" points="213.8 556.9 213.81 556.9 213.8 556.9 213.8 556.9"/><path class="cls-1" d="M55.74,15a.25.25,0,0,0,0,.07c2.57-.21,4.48-.35,5.58-.41l-1.35-.3C57.22,13.74,56.38,13.87,55.74,15Z"/><path class="cls-1" d="M111.29,29.61a.13.13,0,0,0,0-.06l-1.58.12A.82.82,0,0,0,111.29,29.61Z"/><path class="cls-1" d="M105.63,32.73c-.3.07-.83.79-1.21,1.64l.59.07,1-1.52C106.18,32.73,106,32.66,105.63,32.73Z"/><path class="cls-1" d="M117.64,35.42c1.59.71,2.76.54,5.08-.74.41-.24.81-.48,1.17-.72-2,.37-4.2.79-6.73,1.29A2.92,2.92,0,0,1,117.64,35.42Z"/><path class="cls-1" d="M194.57,16.53c16.61-.72,30.35-1.14,55.14-1.69l14-.29c-2.22-.11-4.1-.23-4.9-.35a118.35,118.35,0,0,0-12.18.37,129.39,129.39,0,0,1-14.86.22,77.59,77.59,0,0,0-11.75.29c-6.44.67-9.35-.2-5.77-1.72.92-.39.59-.59-.81-.5s-2.28.53-2.19,1-3.38.83-7.63.87-17.77.48-29.93,1-29.19,1.13-37.77,1.44c-21.51.77-25.39,1.19-26.35,2.85a2.11,2.11,0,0,1-.21.31c2-.11,4.22-.23,6.57-.38,18-1.12,43.13-2.27,57.14-2.62C179.33,17.1,189,16.77,194.57,16.53Z"/><path class="cls-1" d="M101.42,31.23a2.4,2.4,0,0,0-.06,2,7.3,7.3,0,0,0,.34.75l.51.1a8,8,0,0,0,0-1.57C102.06,31.41,101.72,30.85,101.42,31.23Z"/><path class="cls-1" d="M86.07,32.25l4.34-.93a1.09,1.09,0,0,0,0-.18c0-.41.26-.38.72,0l2.35-.49-7.85.45A2.66,2.66,0,0,1,86.07,32.25Z"/><path class="cls-1" d="M270.79,24.8h1.46a1.37,1.37,0,0,0,.08-.7,1.13,1.13,0,0,0-.24-.66h-.19c-.21,0-.41,0-.59,0-.52.43-.88.85-.86,1S270.59,24.68,270.79,24.8Z"/><path class="cls-1" d="M128.68,570.57c1.14-.13,2-.44,2-.7-.21-1-2.84-1.18-3.42-.2C126.9,570.28,127.55,570.69,128.68,570.57Z"/><path class="cls-1" d="M139.05,566.38a5.62,5.62,0,0,0,2.8-2.07c1.34-1.75,1.25-1.77-.88-.2l-2.8,2.08C137.92,566.38,138.29,566.46,139.05,566.38Z"/><path class="cls-1" d="M162.08,568.83l.1-.05-1.38.14,0,0Z"/><path class="cls-1" d="M194.65,28.69c.76.23,4.93.13,9.38-.22s9.78-.61,12-.59a226.75,226.75,0,0,0,26.53-.82c0-.18,0-.37-.05-.56-.06-.71-1.58-1.09-3.92-1-2.09.1-3.86-.19-3.91-.66s.45-.75,1.08-.64a30.38,30.38,0,0,0,4.26.13c2-.05,3.47.51,4.2,1.64a2.91,2.91,0,0,0,.84.87c5.21-.35,10.35-.31,11.95.13a11.62,11.62,0,0,0,2,.29s0,0,0-.06c-.13-1.26-7.82-1.95-11.88-1.08a2.8,2.8,0,0,1-2.55-.77c-.73-1-.24-1.08,3.26-.79,2.25.18,5.44.3,7,.26s4.16,0,6.28.05a3.86,3.86,0,0,1,2-.24c.64.06,1.86.1,3.35.13,2.33-.26,3.48-.8,2.44-1.41s-3.61-.74-6.91-.3a1.34,1.34,0,0,1-1.55-.93l-.81,0c-.4.66-1,.67-1.31.07l-2.07.13-1.2.07a3.3,3.3,0,0,1-.88.05,121.42,121.42,0,0,1-12.77.11,76.17,76.17,0,0,0-11.75.28c-4.74.5-7.56.15-7.29-.67a19.44,19.44,0,0,0-2.67.34c-1.71.35-2.91.25-3.34-.15-1,.05-2,.09-3.1.1-2.17,0-6.7.14-12.22.32-1.19.08-2.4.17-3.58.27-5.84.45-14,1.07-18.14,1.36-10.33.74-12.19,1.13-12.65,2.7-.38,1.34-.87,1.5-14.55,3C172,28.92,192.9,28.16,194.65,28.69Z"/><path class="cls-1" d="M147.83,568a1.45,1.45,0,0,0,.12-2.07c-1.46-1.9-2.16-1.58-1.68.76C146.5,567.77,147.2,568.37,147.83,568Z"/><path class="cls-1" d="M310.24,550.74a1.94,1.94,0,0,1,.09-.63c.11-.42.1-.67-.05-.75C309.56,549.78,309.55,550.18,310.24,550.74Z"/><path class="cls-1" d="M313.84,551.43a15.57,15.57,0,0,1-2.33.08A2.88,2.88,0,0,0,313.84,551.43Z"/><path class="cls-1" d="M310.06,20.66l-.9,0-.07.05a5.8,5.8,0,0,0,.92.25A1.66,1.66,0,0,0,310.06,20.66Z"/><path class="cls-1" d="M292.28,553.45c.23.8.53.72.81-.1l-.88-.07A1.22,1.22,0,0,1,292.28,553.45Z"/><path class="cls-1" d="M318.93,17.14H319c-2.68-.61-5.76-.85-6.43-.38-.06,0-.06.11,0,.2Z"/><path class="cls-1" d="M295.76,553.74a.59.59,0,0,0,0-.08l-.68-.09C295.39,554,295.63,554.13,295.76,553.74Z"/><path class="cls-1" d="M313.64,21.22H314Q313.83,20.94,313.64,21.22Z"/><path class="cls-1" d="M304.64,14.15c-.25-1-.57-1.18-.82-.39a2.06,2.06,0,0,1-1.07,1.2l2.29-.1A1.45,1.45,0,0,1,304.64,14.15Z"/><path class="cls-1" d="M300.72,552.21a2.84,2.84,0,0,1,.17.36l.7,0a3.2,3.2,0,0,0-.87-.32Z"/><path class="cls-1" d="M290,15.36c-.24.44,3,.46,7,0,1.24-.13,2.53-.24,3.87-.32a1.16,1.16,0,0,1-.68-1.51c.42-1.48.19-1.52-1.37-.25-2.55,2.07-10,2.35-10.54.4-.22-.84-.56-1-.77-.3-.16.49-.68.81-2.24,1C289.19,14.56,290.3,14.86,290,15.36Z"/><path class="cls-1" d="M274.72,12.33a15.35,15.35,0,0,0,6.13,1c3.84-.15,3.89-.21,1.09-1.29s-8-1.72-8.87-1.1C272.82,11.07,273.56,11.71,274.72,12.33Z"/><path class="cls-1" d="M312,553.94h.21l-.45-.25a8,8,0,0,0-5.3-1l-.32.08a2.22,2.22,0,0,1,.82.33C307.46,553.53,309.66,553.9,312,553.94Z"/><path class="cls-1" d="M301.11,556.22a2.92,2.92,0,0,0,2.42,1.6l0-.08,0,.08a4.89,4.89,0,0,0,1,0,6.83,6.83,0,0,1,3.41.25c.44.31,2,.12,3.27-.4,2.14-.87,2-1-1.29-1.25-2.09-.15-3.89-.79-4.1-1.47-.28-.89-.49-.86-.81.14s-.94,1.1-2.66.28C300.52,554.46,300.33,554.59,301.11,556.22Z"/><path class="cls-1" d="M498.28,527.26a2.53,2.53,0,0,0,1.92-.36c.58-.37.19-.52-.84-.32S497.83,527.09,498.28,527.26Z"/><path class="cls-1" d="M554.37,526c-.8.17-.73.43.35,1.29,1.82,1.46,2.8,1.3,1.6-.26A2.37,2.37,0,0,0,554.37,526Z"/><path class="cls-1" d="M555.37,532.94l0,2.22a6.37,6.37,0,0,0,.4,2.69c.82.89,1-.48.29-2.7Z"/><path class="cls-1" d="M556.78,43.16a.77.77,0,0,0-1-.64.83.83,0,0,1-1-.78.53.53,0,0,0-.05-.19l-.87,0a6.48,6.48,0,0,1-2.72.15,23.79,23.79,0,0,0-6.8,1.26c2.77.06,4.77.25,9.78.73C555.68,43.89,556.83,43.65,556.78,43.16Z"/><path class="cls-1" d="M554.88,532.09a3.66,3.66,0,0,0,.41-2.27c-.14-1.33-.23-1.34-.62-.05a8.1,8.1,0,0,0-.42,2.27C554.28,532.48,554.55,532.5,554.88,532.09Z"/><path class="cls-1" d="M544.27,47.56l.85.47a3.73,3.73,0,0,0,.14-.4c.15-.53,0-.94-.4-.87A1,1,0,0,0,544.27,47.56Z"/><path class="cls-1" d="M552.2,533.16c-.47.1-.74,1-.63,2s.55,1.79,1,1.69.74-1,.63-2S552.67,533.06,552.2,533.16Z"/><path class="cls-1" d="M554.37,539.5c-.85.19-1.19.49-.73.66a1.73,1.73,0,0,0,1.57-.34C555.61,539.47,555.22,539.32,554.37,539.5Z"/><path class="cls-1" d="M536.79,542c1.87-.43,2.15-.69,1.13-1.06-1.74-.63-1.84-.61-2.79.6C534.57,542.21,535.09,542.36,536.79,542Z"/><path class="cls-1" d="M544.65,524a2.8,2.8,0,0,0-.11-2.79c-1-2.05-1.17-1.84-.85,1.27C543.91,524.59,544.13,524.94,544.65,524Z"/><path class="cls-1" d="M534,528.23c-.34-.84-.75-1.29-.91-1s.14,1,.63,1.55C534.42,529.58,534.48,529.48,534,528.23Z"/><path class="cls-1" d="M532.92,538.16c1-1,1-1.41.24-1.94-1.13-.78-1-.78-2.15.17-.74.61-.77,1.07-.11,1.94S532,539.15,532.92,538.16Z"/><path class="cls-1" d="M544,529.75c-.11.84,0,1.19.34.79a2.35,2.35,0,0,0,.45-1.6C544.66,527.64,544.24,528.06,544,529.75Z"/><path class="cls-1" d="M539.58,534c1.15-.24,1.83.2,2.19,1.44.65,2.2,2.53,2,4.07-.49,1-1.66,1-1.68-.31-.95-1,.56-1.67.13-2.57-1.76-.66-1.4-.94-2.82-.64-3.2.7-.88.49-2.45-.3-2.28-.38.09-.6.72-.52,1.52s-.73,2-1.83,2.71-1.55,1.28-1,1.22c.86-.1.87,0,.11,1S538.25,534.25,539.58,534Z"/><path class="cls-1" d="M536.67,525.56c.36.23.64,0,.59-.58s-.41-1-.74-.89-.62.33-.59.58A1.52,1.52,0,0,0,536.67,525.56Z"/><path class="cls-1" d="M557.59,522.2c.69,1.85,1.86,2.76,2.5,2,.26-.32-.12-1.29-.81-2C557.56,520.21,556.85,520.25,557.59,522.2Z"/><path class="cls-1" d="M562.86,519.74c.94-.47,1.5-1.21,1.24-1.66-.39-.67-2.68.32-3.31,1.43C560.27,520.43,561.27,520.54,562.86,519.74Z"/><path class="cls-1" d="M535.19,550.79c-1-.14-1.87-.75-2-1.39-.13-.84-.23-.81-.39.13s-.45,1.05-1.27.27-1-.73-.63.82c.27,1.12.91,1.69,1.67,1.5a1.8,1.8,0,0,1,1.64.24c.21.3.94.12,1.57-.38C536.84,551.16,536.76,551,535.19,550.79Z"/><path class="cls-1" d="M558.13,492c.7-.45.93-.91.52-1s-.66-.9-.53-1.75,0-1.27-.36-.83A5.85,5.85,0,0,0,557,491C556.88,492.52,557.09,492.71,558.13,492Z"/><path class="cls-1" d="M562.23,495.7a.94.94,0,0,0-.57,1.07c.05.54.21.91.37.88s.4-.5.57-1.08S562.59,495.62,562.23,495.7Z"/><path class="cls-1" d="M562.25,483.35c.36-.08.44-.53.18-1a3.66,3.66,0,0,0-.32-.46c-.16.12-.35.11-.61,0a2.64,2.64,0,0,0,0,.7C561.54,483.07,561.89,483.42,562.25,483.35Z"/><path class="cls-1" d="M542.27,546.73c-.91.2-.93.37-.13.89s.77.79-.17,1.36-1,.67.27.48a1.42,1.42,0,0,0,1.29-1.59A1.15,1.15,0,0,0,542.27,546.73Z"/><path class="cls-1" d="M549.7,526.07a.83.83,0,0,0-1-.77.81.81,0,0,1-1-.73c0-.55-.4-.87-.82-.78s-.16.85.59,1.78C548.84,527.35,549.85,527.57,549.7,526.07Z"/><path class="cls-1" d="M546.69,532.3a1.66,1.66,0,0,1,1.16,1.34,1,1,0,0,0,1,1c.63,0,1-.34,1-.9-.12-1.18-2.17-2.44-3.44-2.12C545.77,531.81,545.85,532,546.69,532.3Z"/><path class="cls-1" d="M549.65,539.36a1.83,1.83,0,0,1-1-1.72c.45-1.5-.61-2.8-1.79-2.19a2.56,2.56,0,0,0-1,2,2.53,2.53,0,0,0,1.83,2.15l1.87.69-1.72-.13c-.94-.08-1.85.33-2,.88s.54.73,1.73.31C550.85,540.19,550.92,540.12,549.65,539.36Z"/><path class="cls-1" d="M537.79,557.68c-.84.18-1.36.61-1.16,1s.92.52,1.58.38,1.21-.59,1.17-1S538.64,557.5,537.79,557.68Z"/><path class="cls-1" d="M550.58,531a1,1,0,0,1-.75-1.2c.16-.57,0-.9-.45-.81s-.55.71-.36,1.3a1.51,1.51,0,0,0,1.47,1C551.35,531.23,551.37,531.15,550.58,531Z"/><path class="cls-1" d="M495.57,535.74c.05-.51,1.13-.76,2.57-.59s2.58-.08,2.73-.59c.3-1,2.76-1.75,4.3-1.24a1.24,1.24,0,0,1,.8,1.42c-.18.62,0,.72.36.24a2.62,2.62,0,0,0-1.1-4.06,12.24,12.24,0,0,0-5.21.51,7.9,7.9,0,0,1-3.06.51.67.67,0,0,1-.55,1c-.54.11-1.28,1.13-1.68,2.31a5,5,0,0,1-.45,1C495,536.35,495.52,536.18,495.57,535.74Z"/><path class="cls-1" d="M482.25,550.46c0,.36.19.27.39-.14l-.46-.1A.61.61,0,0,1,482.25,550.46Z"/><path class="cls-1" d="M478,556.51c-1,.84-1.15,1.56-.23,1.36a1.6,1.6,0,0,0,.91-1.14C478.83,556.13,478.55,556,478,556.51Z"/><path class="cls-1" d="M493.84,529.19l-.12-.11a.58.58,0,0,0,.21.2Z"/><path class="cls-1" d="M456.59,560.51c.11,1.07.45,1.63.75,1.25a2.4,2.4,0,0,0,.06-2C456.7,558,456.36,558.29,456.59,560.51Z"/><path class="cls-1" d="M491.66,533.37c.35,1.38.29,2.39-.14,2.48s-.3.27-.06.53a2.39,2.39,0,0,1,2-.39,1.19,1.19,0,0,1,.37-1c.42-.34.23-.54-.45-.44-.85.11-1.15-.39-1.05-1.77.08-1.11-.1-1.89-.43-1.82s-.68-.62-.81-1.5c-.15-1.06-.3-1.19-.44-.36-.07.43-.17.68-.33.77,0,.11,0,.21,0,.33a4,4,0,0,1-.1,1.52C490.9,531.32,491.25,531.73,491.66,533.37Z"/><path class="cls-1" d="M454.05,558.1c-.44.65-.84,1.24-1.1,1.61a5.38,5.38,0,0,1,.66.15,6.7,6.7,0,0,0,.86-1.57C455.11,556.63,455.07,556.61,454.05,558.1Z"/><path class="cls-1" d="M489.73,542.86c-.69.15-1,1-.92,2.11.27,2.62,1.16,2.2,1.76-.83a18.8,18.8,0,0,0,.3-2.23l-.75.17C490.68,542.55,490.56,542.69,489.73,542.86Z"/><path class="cls-1" d="M466.67,535.47c.15,0,.4-.49.57-1.08s0-.95-.37-.87a1,1,0,0,0-.57,1.08C466.35,535.13,466.51,535.5,466.67,535.47Z"/><path class="cls-1" d="M407.92,554a2.65,2.65,0,0,1,1.52-.94c1.41-.15,2.18.18,2.27.69a7.54,7.54,0,0,1,2.51.27,2.55,2.55,0,0,1,.92-.24c2.14-.23,3,1,1.26,1.74-.5.23.36,1.13,1.81,1.9,2.6,1.39,2.79,1.32,3.55-1.25.43-1.48.37-3.08-.14-3.52s-.31-.88.45-1a1.42,1.42,0,0,1,1.59.88c.12.56.79.67,1.48.25,1.66-1,1.82.73.22,2.34-1.09,1.09-.77,1.32,1.5,1,1.76-.22,2.77-1,2.58-1.86s.33-1.29,1.15-1,1.34,0,1.23-.61-1-1-2.18-.87-2-.1-2.11-.53,2-1,4.52-1.26c5.3-.57,5.84.11,2.61,3.29-1.29,1.27-2.16,2.68-2,3.3s-.47.85-1.44.54-.34.42,1.38,1.67q.35.25.72.48c3.74-.67,8-1.51,14-2.7,9.41-1.89,11.94-2.13,11.65-1.15s-.1.83.54-.19c1.17-1.87,16.41-4.73,16.17-3-.08.53.24.94.67.85s.63-.68.39-1.35c-.33-.88.32-1.34,2.5-1.81a6.88,6.88,0,0,1,2.11-.19s0,0,0,0c0-.22.5-.51,1.23-.67a1.65,1.65,0,0,1,.62,0l.06-.2c.46-1.55,1.05-2.86,1.31-2.92s.41-.86.32-1.74c-.15-1.42-.24-1.44-.66-.09-.28.88-.55,1.15-.62.63s-.26-.08-.45,1c-.3,1.85-.8,2.06-7.92,3.29-6.39,1.11-7.45,1.09-6.61-.12a4.93,4.93,0,0,0,.87-2.64c-.07-.62.11-.94.36-.67a.3.3,0,0,0,.28.1,1.61,1.61,0,0,1-.79-.91c-.78-2-.07-2.79.91-1,.45.81.8,1,.75.38-.09-1,.35-1.43.74-1.19a.53.53,0,0,0,0-.13c0-.22-.28-.37-.68-.43a.83.83,0,0,1-1.08,0l-.5.09a8.94,8.94,0,0,1-3.91-.1c-2.44-.8-11.38.2-11.27,1.27s-11.5,2.57-14.07,1.72a1.74,1.74,0,0,0-1.7.91c-1,1.61-23.49,6.46-27.63,6a20.07,20.07,0,0,0-4,.09.55.55,0,0,1,0,.34c.07.4,0,.66-.3.69h0a4.88,4.88,0,0,1-.45.59C406.62,554,407.25,554,407.92,554Z"/><path class="cls-1" d="M447.56,563.19a4.25,4.25,0,0,1,1.52.47s0-.06,0-.09A.82.82,0,0,0,447.56,563.19Z"/><path class="cls-1" d="M484.09,552.7a1.06,1.06,0,0,0-.87,1.1c0,.49.49.56,1,.14s.9-.89.88-1.09S484.64,552.58,484.09,552.7Z"/><path class="cls-1" d="M487.47,549.07c.08-1.11-.09-1.65-.38-1.28a3.36,3.36,0,0,0-.39,2C486.91,551.74,487.3,551.37,487.47,549.07Z"/><path class="cls-1" d="M489.53,532.13c-.15-.12-.2-.39-.1-.74a3.48,3.48,0,0,0-.5-2.24c-.39-.19-.44.24-.3,1.52S489,532.37,489.53,532.13Z"/><path class="cls-1" d="M529.32,530c.38.24.65,0,.59-.54s-.39-.91-.73-.84-.62.31-.6.54A1.54,1.54,0,0,0,529.32,530Z"/><path class="cls-1" d="M499.86,537.68c-.55.12-.95.37-.93.57a4.21,4.21,0,0,0,1.13,1.34c.87.79,1.06.68.93-.56C500.9,538.14,500.41,537.56,499.86,537.68Z"/><path class="cls-1" d="M514.76,531.76c.49-.92.38-1.41-.41-1.93-1.67-1.11-2.09-.6-1.13,1.35C513.91,532.58,514.26,532.71,514.76,531.76Z"/><path class="cls-1" d="M502.68,536.17c-.73.16-1.32.45-1.3.64.09.89,2.08.92,2.34,0C503.88,536.32,503.4,536,502.68,536.17Z"/><path class="cls-1" d="M503.37,509a3.31,3.31,0,0,0,0-.64,3.29,3.29,0,0,0,0,.54.36.36,0,0,1,.07.1Z"/><path class="cls-1" d="M413.28,558.08a1.86,1.86,0,0,1,1.39.69c.52.65.37-.11-.32-1.69A11.89,11.89,0,0,1,413.28,558.08Z"/><path class="cls-1" d="M521.28,508.8a1.21,1.21,0,0,0,.24-.66c-.65-.58-.72-.4-.44.83A1.06,1.06,0,0,0,521.28,508.8Z"/><path class="cls-1" d="M515.4,508.12c0,.11,0,.22,0,.32A.34.34,0,0,0,515.4,508.12Z"/><path class="cls-1" d="M502.33,508a1.17,1.17,0,0,1,.06-.2h0l-.42.06C502.08,508.76,502.21,508.81,502.33,508Z"/><path class="cls-1" d="M409.77,555.53c-1.49.65-1.46,1,.08,2a6,6,0,0,0,.85.47,3.69,3.69,0,0,0-.06-.94A2.16,2.16,0,0,0,409.77,555.53Z"/><path class="cls-1" d="M406.34,557.32a7.8,7.8,0,0,0,.3-.93,5.16,5.16,0,0,1,.44-1.15H407a8.17,8.17,0,0,0-2.16.51,8.55,8.55,0,0,0-.37,1.33A4.59,4.59,0,0,0,406.34,557.32Z"/><path class="cls-1" d="M565.12,481.51c-.1-.1-.2-.19-.3-.3a8.65,8.65,0,0,0-1.07-.95.61.61,0,0,0-.19.81A1.42,1.42,0,0,0,565.12,481.51Z"/><path class="cls-1" d="M495.1,531.82a1.87,1.87,0,0,1,1.44-.23,1.14,1.14,0,0,1,0-.46,1.21,1.21,0,0,0-.27-1.07,6.59,6.59,0,0,1-.63.67C494.45,531.87,494.24,532.28,495.1,531.82Z"/><path class="cls-1" d="M68.75,589.37c.27.08,8.89-.6,21.18-1.65,4.82-.26,8.34-.39,8.63-.31s17.41-1.28,37.94-3.11,37.44-3.24,37.68-3.12c.43.21,14.53-1.17,31.08-2.92a.42.42,0,0,0,.08.42c.46.62.28,1.26-.37,1.33-2,.22-1.64,6.08.41,6.42a2.35,2.35,0,0,0,2.38-.65c.28-.52-.29-1.1-1.22-1.25s-.86-.43.52-.63,2.33.05,2.43.55,6,.33,13.22-.36c5.31-.5,8.76-.82,11.12-1.07.3.77.75,1.36,1.36,1.46a2.35,2.35,0,0,0,2.38-.65c.23-.44-.14-.92-.82-1.15a17.58,17.58,0,0,0,2.36-.46.54.54,0,0,1,.19.27c.1.49,6,.34,13.22-.35l4.7-.45c4.85.07,12.31-.24,19.34-.85,5.76-.49,11.62-.91,15.72-1.15,1.59,0,3.29-.11,5-.19,2.26,0,9.49-.27,16.11-.7,2-.13,4.2-.25,6.45-.35v1.44c.39-.06.77-.12,1.14-.2,1.94-.4,3.48-.38,3.36,0-.3,1.11,3.09,1.2,19.36.49,11.91-.52,18.5-.92,26.48-1.6l1.92-.16a8.34,8.34,0,0,0,4.37-.3l4-.23c5-.24,12.85-.9,20.1-1.66a5.09,5.09,0,0,0,.75.16c2.94.46,4.78.2,6-.91l.5-.06a11.18,11.18,0,0,1,5.19,2.32c3,2.55,6.77,2.8,9,.6,1.87-1.86,1.4-3.94-.55-4.52,2.13-.35,4.64-.77,7.38-1.25a13.06,13.06,0,0,1,3.67.27,10.51,10.51,0,0,0,4.17.56,10.67,10.67,0,0,1,6.14,2.39c3,2.55,6.76,2.8,9,.59s1-5-2.24-4.64c-2.62.26-2.46-.07,1.18-2.43l.59-.4c3.81-.31,38.76-7.83,40.2-8.7a2.86,2.86,0,0,0,1.4-2.65c-.12-1.2-.52-1.46-1.39-.92a2.31,2.31,0,0,0-1.09,2.05,1.3,1.3,0,0,1-1,1.44c-.79.1-.89,0-.33-.52s.57-.82,0-1.18-.6-1.32-.11-3.43c.39-1.62.77-2.35.86-1.63.12,1,.34,1,1-.12a7.86,7.86,0,0,0,.54-4.07c-.15-1.51,0-2.72.36-2.8.21,0,.3-.38.27-.88a3.61,3.61,0,0,0,1.77-1c.17-.32.93,0,1.62.69s1.27.89,1.22.42c-.13-1.29,2.27-1.48,3.38-.27s2.57.9,2.45-.61c-.05-.66.37-.49,1,.38.79,1.16,1.68,1.32,3.59.63,1.38-.49,2.57-.6,2.61-.24s.53.29,1-.13a1.11,1.11,0,0,1,1.65.37c.55.94,1,.66,2.48-1.48s1.74-2.24,1.57-1,.19,1.55,2.13,1.17a12.72,12.72,0,0,1,4.86.25c2.55.73,3.18.43,2.71-1.28-.17-.6-.14-.76.06-.38s.55.39.87,0,.56-.21.63.41.6.77,1.19.42,1.7,0,2.54.95,1.06,1.35.51,1-.82-.19-.52.66a2.54,2.54,0,0,0,2.47,1.1c1.11-.06,2.07.27,2.12.73a.77.77,0,0,0,1,.64c.54-.12,1,.6,1,1.68.08,1.53-.28,1.87-1.89,1.81a3.48,3.48,0,0,1-2.42-.79c-.63-1-5.19-.53-5.38.61-.09.58-.33,0-.53-1.3l-.37-2.32-.27,2.46c-.16,1.49-.36,1.84-.5.88s-.73-1.41-1.33-1.21a19.68,19.68,0,0,1-4.36.34c-1.8,0-3,.2-2.77.47.43.45,1.87.71,3.34.61.27,0,.56.72.64,1.61s-.05,1.23-.27.74-1.23-.55-2.24-.11c-1.18.52-1.88.4-2-.35s-1.31-.75-4.67.37c-2.51.84-5.05,1.65-5.66,1.81a1.85,1.85,0,0,0-1,1.94c.08,1.16,0,1.29-.36.44-.38-1-.53-1-.88.18s-.46,1-.61-.23c-.11-.88.22-1.72.71-1.83,1.21-.26,1.61-3.33.51-4a.75.75,0,0,0-1.16.43,1.24,1.24,0,0,1-1.58.61c-.7-.2-1,0-.7.33.92,1.13-1.09,4.46-2.91,4.82a4.09,4.09,0,0,0-2.43,1.73c-.41.79-.61.93-.46.33a2.21,2.21,0,0,0-1.1-2c-1.13-.73-1.33-.62-1.2.67s-.3,1.54-2.1,1.5c-1.25,0-2.23.32-2.18.78a1,1,0,0,1-.58,1c-.36.1-.57-.16-.46-.58s-1.87-.35-4.41.18c-3.46.7-4.51,1.22-4.19,2.07.23.59.14,1.2-.17,1.27-1,.21-.79,5.76.19,6.09a.86.86,0,0,0,1.15-.61,1,1,0,0,0-.59-1.2c-.51-.16-.41-.4.25-.59s1.12.05,1.17.52,2.88.32,6.34-.34c7.78-1.46,7.27-1.32,8.86-2.42.8-.57,1.37-.53,1.43.09a.91.91,0,0,0,1.11.81c.54-.12.81-.54.58-.94s1-.4,2.73,0,6.64.14,11.14-.62a89.91,89.91,0,0,1,10-1.28,68.87,68.87,0,0,0,7.74-.66,85.19,85.19,0,0,1,9.68-.69c12.28.14,15.48-.27,16.15-2.09.33-.88,1-1.45,1.38-1.2s.6.87.19,1.86-.31,1.47.52,1.73c2,.61,2.94-.11,3.41-2.57.42-2.18.6-2.34,1.63-1.39.67.61,2.94.84,5.32.53s4.36-.26,4.59.06a2.86,2.86,0,0,0,2,.52c.87,0,2.19,1,2.95,2.28,1.42,2.42,3.24,2.65,4.31.56s.5-4.72-1.07-4.41c-1.26.25-1.19-.06.56-2.3,2.82-3.6,2.54-6-.61-5.34-1.33.29-2.64.16-2.89-.29-.77-1.31-1.9-.68-1.35.74.29.76.24,1.4-.11,1.48s-.69-.35-.75-.88-.44-.74-.84-.41-1.38-.3-2.2-1.48-1.11-1.87-.66-1.58.75.08.69-.52a7.54,7.54,0,0,1,1-3.12c1.55-3,1.29-3.67-1.26-3.13-1.21.26-2.2.81-2.16,1.2s.46.62,1,.51a.84.84,0,0,1,1,.81c.06.54-.22.82-.59.59s-.63.18-.55,1a1.57,1.57,0,0,1-1.24,1.76c-1.08.27-1.24.06-.72-1,.77-1.53.69-3.19-.1-2.22-.33.4-.66.29-.71-.24s-.4-.91-.77-.83-.46.49-.21.91a7.65,7.65,0,0,1,.06,3.34c-.36,2.44-.45,2.5-1.7,1.18-.7-.73-1.11-1.58-.87-1.8.84-.75.43-1.87-.6-1.65-.8.17-.89.87-.4,3,.35,1.56.43,2.31.17,1.69s-.68-.84-.92-.53-.85.09-1.39-.61c-.77-1-.76-1.35,0-2,1.25-1,1.1-2.55-.24-2.26-.52.11-1.14,1.56-1.34,3.15s-.63,2.78-.91,2.6c-.58-.38.19-5.3.86-5.45.24,0,.2-.86-.1-1.89s-1.06-1.68-1.77-1.52-1.12-.16-.9-.9-.06-.91-1-.33c-1.73,1.07-1.86-.68-.15-2.1,1.31-1.09,1.1-1.36-1.42-1.79-.57-.09-.68-.62-.36-1.69.4-1.37.55-1.38,1.29-.09s1,1.25,2.41,0c1.85-1.68,2.57-3.63,2.49-6.7,0-1.36-.41-2.09-1-2a.8.8,0,0,1-1-.73c-.06-.53.77-.9,2-.87a2.4,2.4,0,0,0,2.73-1.77c.4-1.08.74-1.36.83-.67s.45,1.08.81,1,1.53.73,2.57,1.76c1.66,1.67,2,1.72,2.46.39s.76-1.32,2.21.16c.9.91,1.8,1.4,2,1.07.4-.78-1.73-3.46-2.83-3.76a3.09,3.09,0,0,0,.73-.92c.61.86,1.09,1,1.27.41.39-1.35,3,0,3.75,1.92s0,2.53-1.21.8c-.61-.86-1.07-1.07-1-.46a2.22,2.22,0,0,0,.78,1.56,4.07,4.07,0,0,1,.94,2.48c.23,1.94.26,2,.57.1s.35-1.89,1.18-.25c.46.9,1.07,1.25,1.32.76a.79.79,0,0,0-.37-1.17c-1-.31-1.45-2.89-.51-3.09.34-.07.5-1.15.37-2.4a5.5,5.5,0,0,1,.35-3c.33-.41.72.67.92,2.62s0,3.4-.38,3.49-.54.36-.28.65.8,0,1.23-.72c.6-.94,1-.72,1.78,1a6.33,6.33,0,0,1,.68,3.31c-.18.58-.05.72.28.3s.76-.3,1,.29.69.66,1.13.12c.6-.73.57-1.06-.16-1.51-.51-.31-1.06-2.08-1.22-4-.24-2.85-.38-3.11-.88-1.67s-.68,1.06-1.08-2.31c-.26-2.21-.25-3.15,0-2.09a3.66,3.66,0,0,0,1.48,2.26c1.2.41,1.18-.06-.08-2.52-.76-1.47-.73-2.07.16-3.3s.92-1.62,0-2.27-.82-.7.27-.39c3.06.87,3.84.78,4.2-.48.29-1.05.66-1.05,1.64,0,1.32,1.44,2.07,1.59,1.31.27a3.34,3.34,0,0,1,.08-2.38,3.52,3.52,0,0,0,0-2.5c-.37-.65-.29-.83.22-.5s.65-1,.26-4.69c-.29-2.84-.25-5.26.1-5.33s.57-.76.49-1.56-.42-1.09-.86-.54-.48.28,0-.91c.63-1.59.59-1.76-.35-1.56-.59.13-1.13-.48-1.23-1.37-.14-1.4-.25-1.35-.85.41-.51,1.47-.48,2.15.1,2.52a1,1,0,0,1,.36,1.38c-.23.45-.77.21-1.16-.53-.8-1.53-3.23-.66-3.9,1.39-.23.71-.39.67-.5-.12s-.53-.7-1.57.66c-2.19,2.86-1.83,1.42.52-2.13,1.13-1.7,1.94-2.62,1.75-2-.43,1.5,1.28,1.28,2.78-.35,1-1,1-1.59.15-3.95-.71-2-1.08-2.39-1.38-1.38-.57,1.84-.41,3,.28,2.14.32-.4.61-.11.69.69a2.58,2.58,0,0,1-.74,2.11c-.67.55-.95.07-1.17-2a6.22,6.22,0,0,0-.8-3c-.29-.16-.15-.23.29-.15a.63.63,0,0,0,.73-.75c-.14-1.37,1.79-3.07,5-4.45l3-1.28,0,3.91c0,2.55.21,3.86.67,3.76s.46-.55.13-1.12c-.89-1.53.78-2.95,2-1.66,1.4,1.5,3.33,1.07,3.62-.81.19-1.24,0-1.26-1-.13s-1.45,1.11-2.24-.11c-.52-.8-1.25-1.12-1.59-.7s-.69.19-.78-.61a12.56,12.56,0,0,0-.73-2.88c-.39-1-.31-1.34.24-1s.77,0,.69-.83c-.22-2.13-2.74-2.15-3.25,0s-2.4,3.54-3.72,2.68c-.74-.47-.71-.78.15-1.47a2,2,0,0,0,.62-2.08c-.25-.67-.19-1.27.14-1.35s.53-.93.42-2c-.22-2,.73-2.73,1.42-1,.26.64.38.41.3-.57s-.43-1.58-.78-1.51-.77-1.15-.92-2.66c-.21-2,0-2.85.8-3s1,.08.48,1c-1.05,2.1-.6,3.2,1.73,4.16a7.91,7.91,0,0,1,2.82,1.77c.34.48.34,0,0-1.14s-.33-2.06,0-2.14.85,1,1.11,2.4c.5,2.7,2.52,3.15,2.09.45-.14-.87,0-1.64.39-1.71s.62,1.27.6,3.45c0,3.37,0,3.46.78,1.52a6.52,6.52,0,0,0,.33-3.66c-.25-.85-.12-1.65.29-1.74s.36-.42-.24-.81a2,2,0,0,0-2,0c-.52.34,0-.32,1.09-1.46l2.05-2.07-1.8,0c-1,0-1.83-.37-1.88-.86s.81-.85,1.87-.81c1.49.06,1.92-.28,1.8-1.43s0-1.35.93-.57,1.06.62,1-.12c-.16-1.53,1.75-1.64,2.33-.13,1,2.48,1.78,1.07,1.08-1.87-.66-2.76-.63-2.84.45-1.37,1.28,1.73,1.37,1.16.37-2.16-.49-1.62-.78-1.79-1.38-.8a4.81,4.81,0,0,0-.64,2.55c.07.71-.17,1.35-.53,1.43-.83.18-.84-.37,0-3.81.64-2.77.62-3-.44-2.81-.8.11-.9-.06-.34-.56s.66-.82-.15-1.42-.82-.81-.14-1.38c.46-.38.51-.87.13-1.12-.86-.59-2.22-5.38-1.56-5.52.26-.05.42-1.18.34-2.43s-.39-2-.73-1.61-.36-.15-.06-1.4c.69-2.87.43-4.39-.6-3.51a.89.89,0,0,1-1.38-.19c-.37-.64-.66-.5-.94.47s-.48.87-.67-.72c-.13-1.15-.54-2.06-.88-2a.92.92,0,0,0-.54,1.07,1,1,0,0,1-.6,1.08c-.38.09-.59-.55-.46-1.4.2-1.24,0-1.37-1.21-.67-1.47.89-2.2.61-2.13-.78a2.53,2.53,0,0,1,.86-.1c.3,0,.32-.38,0-.87a2.2,2.2,0,0,0-.33-.43,3.06,3.06,0,0,1,1.51.49c1.24.63,1.87.58,2-.15s.38-.67.81.06.64.72.51-.52a2.55,2.55,0,0,0-1.23-2c-.77-.26-.87-.58-.37-1.19a.74.74,0,0,0,.16-.32.81.81,0,0,0,.09-.45.84.84,0,0,0-1-.74,1.66,1.66,0,0,0-.81.55,1.72,1.72,0,0,0-.5.09,3.51,3.51,0,0,0-.26-2.27l.26-.26c.61-.65,1.32-1,1.57-.7s.4,0,.33-.62-.42-1-.81-1-.53-.4-.56-1.16a1.66,1.66,0,0,1,1,1c.88,2.27,1.64,1.27,1.22-1.17a.36.36,0,0,0,.15,0,1,1,0,0,0,.57-1.08,2,2,0,0,0-.18-.7c1.05,1.33,1.07.63.14-2.47-.49-1.62-.78-1.79-1.39-.8a4.89,4.89,0,0,0-.64,2.55c.08.71-.16,1.35-.53,1.43a1.22,1.22,0,0,1-.32,0,2.88,2.88,0,0,0,0-.54,3.41,3.41,0,0,0,.36-1.94c.36.16.42-.1,0-.85a1.45,1.45,0,0,1-.1-.25l.06-.25c.41-1.76.55-2.47.33-2.72a3,3,0,0,0-.19-1.66c-.36-.65-.28-.83.23-.5s.53-.25.49-1.66c.29-.18.58-.35.86-.54a5.62,5.62,0,0,0,.25,2.12c.23.58.31,0,.19-1.22a8,8,0,0,0-.17-1.07,10.59,10.59,0,0,0,2.5-2.16c1-1.52,1-1.67-.15-3.06l0-.05c0-.13,0-.28.06-.44a9.85,9.85,0,0,0-.07-2.69,1,1,0,0,0,.45-.78c.15-.08.17-.17,0-.31a1.82,1.82,0,0,1,.14-.28c.1.17.21.26.34.24.31-.07.45.72.33,1.83-.24,2.11.35,2.33,1.66.61.7-.93.7-1.11,0-1s-.77-.06-.18-1.46.56-1.57-.18-1.14c-.33.19-.61,0-.8-.41a9,9,0,0,1,.82-.65l2.24-1.62-1.56-1.35c-1.36-1.16-1.44-1.44-.59-2.14a2.87,2.87,0,0,1,2.2-.52c.83.19,1.19-.16,1.1-1.05-.15-1.48,1.39-3.34,2.76-3.32.46,0,.74-.52.66-1.23a4.35,4.35,0,0,0-.51-1.55,3.32,3.32,0,0,0,0-.54c-.07-.72-.44-1-.91-.68A8.22,8.22,0,0,0,608.4,381a1.23,1.23,0,0,0,.1-.61c-.06-.53-.21-.91-.37-.88s-.39.48-.56,1c-.31-.15-.63-.3-1-.44s-.79-.34-1.14-.52a.2.2,0,0,0-.17-.09c-1.69-.93-2.36-2-2-3.09.39.38.79.43,1,.11l.3.3a6.89,6.89,0,0,0,.85.82c0,2.38.11,2.28.78.54a6.44,6.44,0,0,0,.34-3.66,2.57,2.57,0,0,1-.1-1.17c1.07-.7,1.11-1.29.14-1.78a5.88,5.88,0,0,0,.09-2.06l1.09-1.11-1.16,0c0-.25,0-.5-.07-.78.18-.06.39-.11.61-.16,0,0,0,0,0,0,0,.34.25.27.54-.13a9.5,9.5,0,0,1,2.39,0l.5,0c.15,0,1,.16,1.95.34-.08,1.56,0,1.7.54.1,1,.15,1.93-.07,2.06-.51s.65-.68,1.29-.73a1.38,1.38,0,0,0,0,.29c.06.53.37.87.73.79s.58-.51.54-1c.26,0,.24-.1-.06-.31-.12-.37-.38-.58-.67-.52,0,0-.05,0-.08,0l-.27-.16c-1.32-.8-1.91-.74-2.54.27-.49.77-.66.95-.58.53.07-.24.15-.5.23-.79.46-1.55.52-2.74.16-2.66s-.53.45-.56.89a10.9,10.9,0,0,0-.22-1.29c0-.1-.05-.19-.07-.28l.08-.11a2.59,2.59,0,0,0,.53-.86c1.18,1.58,1.25,1,.28-2.28-.49-1.62-.78-1.79-1.39-.79a3.29,3.29,0,0,0-.21.42c-.32-.14-.56-.72-.64-1.68,0,0,0-.07,0-.11.19-1,.1-1.3-.35-1.31-.14-.25-.31-.36-.46-.25a.74.74,0,0,0-.21.31c-.56,0-.59-.15-.09-.59.68-.61.66-.82-.15-1.42s-.83-.8-.14-1.38c.45-.38.51-.86.13-1.12a4.29,4.29,0,0,1-.94-1.67,1.25,1.25,0,0,1,1.57.36c1.39,1.5,3.33,1.07,3.62-.81.19-1.24,0-1.26-1.06-.13s-1.45,1.1-2.24-.11c-.51-.8-1.25-1.12-1.59-.7s-.69.19-.77-.61a12.19,12.19,0,0,0-.31-1.56c0-.16.07-.27.16-.29.25-.05.41-1.13.34-2.35a2.24,2.24,0,0,0,0-.52,1.42,1.42,0,0,0,0-.2l.48-.12,2.15-.53c-.29,1.25,0,1.57.77.58a2.33,2.33,0,0,0,.34-.86c4.11-1.07,4.93-1.6,4.73-2.52a.07.07,0,0,0,0-.05.85.85,0,0,0,.09-.88c.2-.31.64-.46,1.35-.5,2.16-.1,2.77-1.91,1.25-3.73a3.25,3.25,0,0,1-.84-1.77l.31,0c.73-.15,1.26-.69,1.2-1.21a.84.84,0,0,0-1-.74,1.31,1.31,0,0,0-.28.12,5.74,5.74,0,0,0,0-2.4c-.68-1.77-.71-2.67-.07-2.83a1.79,1.79,0,0,1,.59.8c1,2.48,1.78,1.07,1.08-1.87-.66-2.76-.64-2.84.45-1.37,1.27,1.73,1.37,1.16.36-2.16-.09-.32-.18-.56-.26-.77v0a1.35,1.35,0,0,1,1.61-1.15c1.39.22,1.67-1.43.39-2.23-.92-.58-1.22-4-.37-4.18s-1.37-2.42-6.1-6.57c0-.3,0-.61,0-.94-.08-1.34-.39-2-.72-1.61s-.37-.15-.07-1.4c.69-2.87.44-4.39-.59-3.51a.9.9,0,0,1-1.39-.19c-.36-.64-.66-.5-.94.47s-.47.87-.66-.72c0-.22-.07-.43-.11-.62a6.37,6.37,0,0,1,3-1.17,1.66,1.66,0,0,0,.48.24c.53.17.85,0,.91-.41l2.78-.27-2.54-.87c-1.41-.48-2.57-1.17-2.61-1.57s1.55-.95,3.5-1.25c2.13-.32,3.45-.88,3.27-1.38-.31-.9-2.41-2.17-5.63-3.59a2,2,0,0,0,0-.25c-.06-.53-.37-.87-.74-.8a.57.57,0,0,0-.29.2,6.12,6.12,0,0,0-2.81-3.1,1.18,1.18,0,0,0,.1-.62,2,2,0,0,0-.18-.7c1.05,1.33,1.08.63.14-2.47a8.16,8.16,0,0,0-.27-.77v0a1.33,1.33,0,0,1,.91-1.09c-.36.9-.22,1.12.58.95a1.76,1.76,0,0,0,1.16-1.38,1,1,0,0,0,.13-.83,2.71,2.71,0,0,0-.61-1.95,3.57,3.57,0,0,1-.92-1.69c-.11-1.08,1.71.9,2.36,2.58.3.74.39-.22.23-2.18-.27-3.12-.47-3.45-1.69-2.86a2.67,2.67,0,0,0-.53.33,2.13,2.13,0,0,0-.21-.31,5.73,5.73,0,0,0,.61-.64l.39,0c.15,0,1,.16,1.94.34-.07,1.56,0,1.71.55.1,1,.15,1.93-.07,2.05-.51s.91-.81,1.72-.73c1.42.13,1.41.1-.24-.9-1.33-.8-1.91-.74-2.55.27-.48.77-.65.95-.57.54.07-.25.14-.51.23-.79.45-1.55.52-2.75.15-2.67s-.59.55-.56,1.06a2.74,2.74,0,0,0-2.63-.61,2.42,2.42,0,0,1-.45,0,10.8,10.8,0,0,0-.08-2.58.94.94,0,0,0,.45-.85.9.9,0,0,1,.19-.52c.09.17.2.26.33.24.31-.07.46.72.33,1.83-.23,2.11.35,2.33,1.66.61.71-.94.71-1.11,0-1s-.77-.06-.18-1.46.56-1.57-.18-1.14c-.33.19-.61,0-.8-.41a9,9,0,0,1,.82-.65l2.25-1.62-1.57-1.35c-1.36-1.16-1.43-1.44-.59-2.14a2.89,2.89,0,0,1,2.21-.52c.82.19,1.19-.16,1.1-1-.16-1.48,1.38-3.34,2.75-3.32.46,0,.74-.52.66-1.23a4.17,4.17,0,0,0-.51-1.55,2.43,2.43,0,0,0,0-.54c-.08-.72-.45-1-.91-.68a10,10,0,0,0-3.4-2.11c-.19-.07-.36-.15-.53-.23,2.94-.83,3.56-1.34,3.39-2.15a.09.09,0,0,1,0-.05.86.86,0,0,0,.09-.87c.2-.31.63-.47,1.35-.5,2.16-.1,2.76-1.92,1.24-3.74a3.23,3.23,0,0,1-.83-1.77,1.13,1.13,0,0,0,.3,0c.73-.15,1.26-.69,1.21-1.21a.84.84,0,0,0-1-.74,1.07,1.07,0,0,0-.27.12,7.2,7.2,0,0,0,.11-1.38l1.27.24c1.07.21,2.11,0,2.24-.48a1.39,1.39,0,0,1,1.29-.73,1.38,1.38,0,0,0,0,.29c.06.53.37.87.74.79s.58-.51.54-1c.25,0,.24-.1-.07-.31-.12-.37-.37-.59-.67-.52,0,0-.05,0-.08,0l-.27-.16c-1.32-.8-1.9-.74-2.54.27s-.73,1-.43,0a1.86,1.86,0,0,0-.3-1.79,9.69,9.69,0,0,0-.24-1.49c-.66-2.76-.63-2.84.45-1.36,1.28,1.73,1.37,1.15.37-2.17a8.16,8.16,0,0,0-.27-.77v0a1.35,1.35,0,0,1,1.62-1.15c1.38.21,1.67-1.43.38-2.24-.91-.58-1.21-4-.37-4.18s-1.37-2.41-6.1-6.57c0-.29,0-.61,0-.94s0-.44-.07-.63l.52-.13,2.14-.53c-.29,1.25,0,1.57.77.58a2.33,2.33,0,0,0,.34-.86c4.11-1.07,4.94-1.6,4.73-2.52s.2-1.37,1.44-1.43c2.15-.1,2.76-1.91,1.24-3.73a3.15,3.15,0,0,1-.69-3.21,6.08,6.08,0,0,0,.07-2.83c-.78-2-.7-2.91.24-2.85q.93,0,.69-2.34c-.14-1.34,0-2.24.37-2s.73-.24.86-1a1.36,1.36,0,0,1,1.62-1.15c1.38.22,1.67-1.43.38-2.23-.91-.58-1.22-4-.37-4.19s-1.78-2.84-7.49-7.78c-2.25-1.94-4.14-4-4.21-4.59-.26-2.21,1.5-3.64,4.87-4l3.43-.34-2.53-.87c-1.42-.48-2.57-1.17-2.61-1.57s1.54-1,3.49-1.25c2.13-.32,3.45-.88,3.27-1.38-.34-1-2.8-2.4-6.52-4-.39-1.74-1.88-3.21-4.32-4.28,0-.25,0-.53-.05-.85-.14-1.33,0-2.23.38-2s.73-.25.85-1a1.35,1.35,0,0,1,1.62-1.15c1.38.22,1.67-1.43.39-2.24-.92-.57-1.22-4-.37-4.18.34-.07.06-.6-.81-1.57a9.76,9.76,0,0,1,1.08,0l.5.05c.17,0,1.23.2,2.3.41s2.11,0,2.25-.48.9-.81,1.72-.73c1.41.13,1.4.1-.25-.9-1.32-.8-1.91-.74-2.54.27s-.74,1-.43,0c.49-1.7-.89-2.84-3-2.43-.79.16-1.5-.14-1.55-.64a.88.88,0,0,0-1.16-.71,16.8,16.8,0,0,1-4.79-.79l-.77-.19-.09-.08c-2.24-1.94-4.14-4-4.21-4.59-.25-2.21,1.5-3.64,4.87-4l3.44-.35-2.54-.86c-1.41-.48-2.57-1.18-2.61-1.57s1.54-1,3.49-1.25c2.14-.32,3.45-.88,3.28-1.38-.27-.76-1.81-1.79-4.21-2.94q2.52-.88,5.79-1.68c6.95-1.67,8.24-2.2,8-3.33-.21-1,.2-1.37,1.43-1.42,2.16-.1,2.76-1.92,1.25-3.74a3.13,3.13,0,0,1-.7-3.21,6.1,6.1,0,0,0,.08-2.83c-.78-2-.71-2.91.23-2.85q.94.06.69-2.34c-.14-1.33,0-2.24.38-2s.73-.25.85-1a1.35,1.35,0,0,1,1.62-1.14c1.39.21,1.67-1.43.39-2.24-.92-.58-1.22-4-.37-4.18s-1.78-2.85-7.5-7.79c-2.24-1.94-4.14-4-4.21-4.59-.25-2.21,1.5-3.64,4.87-4l3.44-.34-2.54-.86c-1.41-.48-2.57-1.18-2.61-1.58s1.54-1,3.5-1.25c2.13-.32,3.44-.88,3.27-1.38-1-3-21.45-10-37.55-12.87-11.11-2-17.07-3-19.6-3.2-1.45-.13-6.88-.67-12.14-1.2-4.42-.45-8.82-.83-14-1.21-11.5-2.83-33.12-6.41-54.19-8.92-15.66-2.86-36.77-5.84-55.16-7.51-23.14-2.11-35.56-3.14-40.82-3.38-3-.14-14.33-.71-25.29-1.27-18.84-1-37.37-1.65-69.55-2.58-23.11-.67-22.24-.7-21.19.68.5.66.05,1.34-1,1.45s-1.73-.4-1.54-1.08c.41-1.52-16.51-2-28-.84-4,.42-7.25.4-7,0,.64-1.18-6.42-1.27-40.33-.52-24.79.55-38.52,1-55.13,1.69-5.57.24-15.24.57-21.53.72-14,.35-39.18,1.5-57.14,2.62-7.39.46-13.69.74-14.07.62h-.3c-.25-.13-.68-.32-1.3-.59-1.41-.62-2.33-1.33-2.06-1.6s-.59-.36-1.86-.23c-1.44.16-2.25,1-2.12,2.24a6.52,6.52,0,0,0,.11.7l-6.26.51h0c2.09-1.74,2-2.85-.28-2.6a1.85,1.85,0,0,0-1.57,2.08,5.83,5.83,0,0,0,.11.67l-10.34.89c-1.26-1.47-9.84-1.06-10.76.53a1,1,0,0,0-.14.43l-1.18.1L21.3,22a3.27,3.27,0,0,0-.06-.42c-.23-1.12-.86-1.91-1.48-1.85s-.9,1-.67,2.09c0,.12.06.25.1.37l-2.55.22C16,21.92,14.53,21.79,12,22a31.38,31.38,0,0,1-6.35-.14c-2.27-.37-2.39-.3-.63.4C7,23,7,23.16,5,23.38a3.07,3.07,0,0,0-.56.12l-4.9.41v19c4.4-.6,7.94-1.28,9-1.88l1.27-.13c.21.8,6,.45,24.3-1.4,17.83-1.8,28.33-2.83,38.78-3.66L84,35.21l.54,0a1,1,0,0,0-.25.41,1,1,0,0,0,.27,1l-1.12.25c-.21-.42-3-.26-6.32.37-2.77.52-4.49.84-5.62,1.08l-1,0C61.87,37.69,15,42.81,13,44.51a5.21,5.21,0,0,1-3.55,1,65.77,65.77,0,0,0-9.9-.19V572.6l.47,0a28.08,28.08,0,0,0,4.59-.46c3.39-.2,6.79-.41,10.09-.64,5.22-.37,12-.74,15.12-.85.65,0,1.28-.06,1.86-.1,3,.55,7.55.52,13.18-.09a117,117,0,0,1,15.8-.67c4,.25,16.28-.72,28.48-2,.49,0,.94,0,1.33.05,8.61.53,55.34-4.56,57.54-6.27,1.92-.27,3.11-.56,3-.83,0-.06,0-.11.12-.17l.39,0c4.08.68,19.13,0,25.93-1a39.67,39.67,0,0,0,5.18-.15l1-.09a3.13,3.13,0,0,0,2.26,0c.83.07,1.37.22,1.42.45a.65.65,0,0,1,0,.14c-.81-.25-1.72.17-1.54,1.26.12.64-.62.45-1.55-.4-1.88-1.73-3.26-1.17-2.23.56-8.46.07-27.91,2.22-29.79,3.75-1.33,1.07-1.66,1.13-1.12.2s-4.68-.78-24.27,1.2c-36.46,3.69-42.25,4.15-79.75,6.25-33.3,1.87-34.34,2-35.2,3.46C11.21,577.45,9,578-.5,578.51v5.91c6.91-.25,14.78-.6,22.64-1a1.59,1.59,0,0,0-.57.62,2.66,2.66,0,0,1-1.65,1.09l-20.42.77v6.64c14.3-.4,38-1.5,55.18-2.57C62.07,589.53,68.37,589.25,68.75,589.37Zm416-20.57c-.34.07-.67-.49-.75-1.29s-.43-1.36-.78-1.29a.92.92,0,0,0-.54,1.07,1.08,1.08,0,0,1-.88,1.14.83.83,0,0,1-1.06-.72c-.06-.53.16-1,.51-1.06s.94-.8,1.4-1.71c.71-1.41.9-1.29,1.75,1.07C485,567.61,485.13,568.72,484.76,568.8Zm3.85-.83c-.36.08-.68-.26-.73-.79s.17-1,.54-1.07.68.26.73.79A.92.92,0,0,1,488.61,568Zm20.26-5.35c-.36.08-.67-.22-.72-.7a2.38,2.38,0,0,1,.49-1.56c.32-.4.64-.09.72.71S509.23,562.55,508.87,562.62Zm3-5.41a1.64,1.64,0,0,1-.93,1.15c-.36.08-.51-.3-.34-.88a1.62,1.62,0,0,1,.93-1.15C511.93,556.25,512.07,556.63,511.9,557.21Zm4.86-.09c-.85.18-1.15-.19-1-1.24.22-1.5.84-1.92,1.61-1.08C518.31,555.81,518,556.84,516.76,557.12Zm7.09,1c-.13.27-.69-.08-1.22-.79s-.7-1.34-.3-1.43C523.12,555.75,524.23,557.37,523.85,558.14Zm.72-4.2c-.57-.2-1.07-.52-1.09-.72-.08-.74,1.21-.53,1.68.28C525.42,553.94,525.15,554.14,524.57,553.94Zm57.18-.25c1.22-.26,1.62.15,1.77,1.76.1,1.16,0,1.61-.27,1a1.5,1.5,0,0,0-1.67-.82c-.66.14-1.25-.16-1.3-.68S580.91,553.88,581.75,553.69Zm-12.55.79c.36-.07.53.32.37.88s-.42,1-.57,1.07-.32-.34-.37-.87A1,1,0,0,1,569.2,554.48Zm-8.07.78a1.62,1.62,0,0,1,.94-1.15c.36-.08.51.3.34.88a1.62,1.62,0,0,1-.94,1.15C561.11,556.22,561,555.84,561.13,555.26Zm-1.28-8.53c1-.65,1.3-.59.89.22a1.43,1.43,0,0,1-1.46.9C558.78,547.73,559,547.24,559.85,546.73ZM558.68,551c.18,0,.51.3.8.78s.15.92-.21,1-.74-.29-.79-.78S558.51,551.06,558.68,551Zm46.82-92c.36-.08.55.34.4.87s-.43,1-.61,1.08-.34-.34-.39-.87A1,1,0,0,1,605.5,459Zm-6.16,14.44a10.9,10.9,0,0,1-.34-3.29c.07-.92.29-.2.47,1.58S599.6,474.29,599.34,473.44Zm.16-22.69a1.21,1.21,0,0,1-1.13-.71c-.28-.48-.21-.9.15-1a1.23,1.23,0,0,1,1.13.71C599.93,450.25,599.86,450.68,599.5,450.75Zm2,.85c-.4.78-.6.81-.67.1a13,13,0,0,0-.66-2.45c-.29-.75-.24-1.49.12-1.56C601.24,447.48,602.12,450.33,601.48,451.6Zm-1.13-7.93c.3-.36,1.15-.19,1.89.38,1.47,1.12,1,1.44-1.16.72C600.37,444.53,600,444,600.35,443.67Zm2.32,19.75c-.36.08-.68-.26-.73-.8a.92.92,0,0,1,.54-1.07c.36-.07.67.27.73.8A.94.94,0,0,1,602.67,463.42Zm-2.16-24.14c2.43-.52,3.36.26,2.31,1.94-.75,1.2-3.23.8-4.08-.65C598.47,440.11,599.24,439.55,600.51,439.28Zm-2.14,5c.17,0,.51.3.79.78s.16.92-.21,1-.74-.3-.79-.78S598.19,444.32,598.37,444.28ZM599.92,418a1.09,1.09,0,0,0,.13.17s-.06,0-.09,0-.38.46-.55,1C598.81,416.6,598.86,416.56,599.92,418Zm12.82-57.65c.11,0,.37.34.81.93a1,1,0,0,0-.43,0l-.32,0a5.1,5.1,0,0,1-.13-.82C612.69,360.47,612.71,360.41,612.74,360.34Zm-1.7-.53a.16.16,0,0,0,.1,0c.31-.06.45.72.33,1.84,0,.23,0,.43-.05.62l0,0C610.66,362.45,610.56,362.07,611,359.81Zm-.8,3.72a1.11,1.11,0,0,1,.63-.06l-.18,0a2.28,2.28,0,0,1-.45,0Zm4.94-59.85c-.49-.45-.95-.89-1.37-1.32C614.93,302.36,615.42,302.83,615.18,303.68Zm-3.26-22.45.13.17s-.06,0-.09,0-.38.46-.54,1C610.81,279.84,610.87,279.8,611.92,281.23Zm-6.24,62.34a.67.67,0,0,1-.06.12,2.18,2.18,0,0,1-.52.06C605.29,343.68,605.49,343.63,605.68,343.57Zm-.4,2.71.85-.36c1.4,1.09.88,1.4-1.21.69l-.2-.09Zm-1.42,3.5a1,1,0,0,0,.57.05.85.85,0,0,0,.24-.09,4,4,0,0,1,.64,3.69c-.39.78-.6.81-.67.1a11.91,11.91,0,0,0-.65-2.44A2,2,0,0,1,603.86,349.78Zm-.74-2.43a.46.46,0,0,1-.33.54.54.54,0,0,1-.39-.09C602.63,347.65,602.87,347.49,603.12,347.35Zm-.77,3.54a1.22,1.22,0,0,1,1.13.71c.28.49.22.91-.14,1a1.22,1.22,0,0,1-1.13-.71C601.93,351.39,602,351,602.35,350.89Zm-6.26,77.22a2.5,2.5,0,0,0,.21-.35C596.34,428.31,596.28,428.43,596.09,428.11Zm.24-7.69c.39.39.34.69-.11,1.05a1.46,1.46,0,0,0-.16.19,1,1,0,0,0,0-.3A1.15,1.15,0,0,1,596.33,420.42Zm-1-2.66a4.88,4.88,0,0,1,.15.93c0,.06,0,.11,0,.16-.22,0-.29-.16-.19-.5a.38.38,0,0,0-.09-.44A.88.88,0,0,1,595.37,417.76Zm-.07,3.91a1,1,0,0,0,.57.27,2.71,2.71,0,0,0-.28,1.3h0a5.14,5.14,0,0,0-.44-.68,3.81,3.81,0,0,1-.24-.32Zm-5.07,47.23c.36-.07.68.27.73.8a.92.92,0,0,1-.54,1.07c-.36.08-.68-.26-.73-.8A.93.93,0,0,1,590.23,468.9Zm-.59,4c.35-1.16,1.52-1.61,1.61-.61.15,1.69-.78,3.48-1.33,2.55A2.67,2.67,0,0,1,589.64,472.93Zm-15.89,19c0-.26.23-.5.59-.58s.69.35.75.88-.23.81-.59.58A1.6,1.6,0,0,1,573.75,492ZM575,519.29l-.22-.08a1.22,1.22,0,0,0-.86-.65c0-.69,1.2-.54,1.66.24C575.84,519.24,575.58,519.46,575,519.29Zm3-37.68c0,1.63.81,3.14,1.57,2.89,0,.22,0,.49.05.85.14,1.33.5,1.72,1.12,1.21a1.51,1.51,0,0,1,.7-.39,1.24,1.24,0,0,0,.18.51,8.18,8.18,0,0,1-.74,1.85c-1.16,2.3-1.92,2.23-1.75-.17.12-1.66-.06-1.94-.85-1.31-.31.24-.56.32-.76.23a13.53,13.53,0,0,1-.32-1.5,1.19,1.19,0,0,1,.8-.9.69.69,0,0,0,.51-1.06c-.28-.48-.73-.56-1.05-.18s-.35.28-.46.19c-.05-.41-.09-.73-.13-1A1.83,1.83,0,0,1,578,481.61Zm-.25-3.71,0,0c.61-.35.82-.11.65,1A6.7,6.7,0,0,1,577.7,477.9Zm3.45,6.37c0,.18,0,.37,0,.58-.14.06-.37-.1-.75-.45A3,3,0,0,0,580,484a1.88,1.88,0,0,0-.43-1.65.94.94,0,0,0,.71-.22c.51-.42.83-.11,1,1a3,3,0,0,0-.1.58A.66.66,0,0,0,581.15,484.27Zm-1.86,10.86a1.06,1.06,0,0,1-.88,1.09c-.55.12-1,.06-1-.14s.36-.68.88-1.1S579.23,494.63,579.29,495.13Zm.35,23.25c-.58,1.21-1,1.86-1.08,1.5a6.88,6.88,0,0,1,.79-2.3c.46-.91.54-1.61.18-1.54s-.71-.3-.77-.83.22-.78.6-.54.63-.13.55-.93a1.82,1.82,0,0,0-1.46-1.59,1.91,1.91,0,0,1-1.48-1.68c-.08-.8,0-1.5.15-1.53s.34.29.4.82.49.56,1,.15,1-.26,1,.37.36.8.67.42C581.2,509.47,580.7,516.16,579.64,518.38Zm.72-25.43c-.06-.54.16-1,.51-1.07a1.23,1.23,0,0,1,1.1.72.69.69,0,0,1-.51,1.06A.87.87,0,0,1,580.36,493Zm3.46,21.48a3.3,3.3,0,0,0-.52,2.44c.24.67-.18,1.2-1.1,1.37s-1.14,0-.75-.38a2.57,2.57,0,0,0,.61-1.86,2.69,2.69,0,0,1,.85-2C584.4,512.81,584.81,513,583.82,514.43Zm5.77-3.22a2.71,2.71,0,0,1-.12-1.79c.18-.37.39.14.45,1.13S589.86,511.88,589.59,511.21Zm1.57-7.29a3.83,3.83,0,0,0,.54-3.47c-.28-1.21-.34-2.19-.14-2.24s.43.45.51,1.07a33.78,33.78,0,0,0,.78,3.33c.44,1.54.4,2-.17,1.67s-.63.32-.28,2.06c.28,1.39.31,1.86.08,1s-.82-1.22-1.3-.82C589.92,507.59,589.9,505.5,591.16,503.92Zm-1-4.49c.33-.07.68.35.74.89s-.23.81-.59.58a1.55,1.55,0,0,1-.74-.89C589.49,499.76,589.74,499.51,590.11,499.43Zm-.5,7.46c.07.71-.12,1.3-.45,1.37s-.76-.38-1-1.06,0-1.26.45-1.36S589.54,506.21,589.61,506.89Zm-3.16-4.81a1.65,1.65,0,0,0,1.79,0c.46-.39.85-.2.91.44s-.19.91-.58.66-.64,0-.58.67c.08.8-.16.86-.84.23s-1.12-.58-1.32-.17-.43,0-.52-.8C585.12,501.23,585.12,501.23,586.45,502.08Zm1.41,6.55c1,2.05,1,2.28-.1,3.17-.68.55-.91.34-.75-.72s-.15-1.42-1-1.24-1.13-.26-1-1C585.28,506.92,587,506.83,587.86,508.63Zm-3.37,2.54c1.23,1.51,1.23,1.54-.1,1.29-.76-.14-1.25-.66-1.11-1.17s0-.86-.36-.78-.67.91-.74,1.83c-.1,1.28-.2,1.18-.42-.4C581.4,509.38,582.72,509,584.49,511.17Zm1.07-20.93c-.15.94-.46,1.57-.67,1.32s-.08-1.07.28-1.78C585.7,488.73,585.78,488.83,585.56,490.24Zm3.22-8.5c.34,2,.31,2.05-.4.45s-.74-1.47-.55.85c.22,2.66-.65,4-3.69,5.7l-1.82,1,1.43-1.81c1.15-1.45,1.17-1.64.14-1s-1.26.42-1.5-1.41a.52.52,0,0,0,.58-.29,1.17,1.17,0,0,0-.58-1.39h0l.13-.37c.35-.91.18-1.26-.55-1.1a.74.74,0,0,0-.21.07,3.58,3.58,0,0,0-1.08-1.53,14.26,14.26,0,0,1-1.21-1,4.24,4.24,0,0,0-.1-2c-.49-1.89-.46-1.91.6-.49l.35.45c-.25.59-.08.86.54.47q.12,0,.18-.12l.15-.12c.69-.56.91-.38.75.61a2.14,2.14,0,0,0,0,.8,3.11,3.11,0,0,0,0,.61c.1,1,.42,1.08,1.26.19a2.59,2.59,0,0,1,1.12-.77,7.61,7.61,0,0,1-.82,2.47c-.41.58-.26,1.08.47,1.59,1.38,1,2.14.3,2.63-2.26C587.14,478.67,588.29,478.85,588.78,481.74ZM581,436.41a.65.65,0,0,1,.16-.46c0,.1-.06.2-.09.3A.77.77,0,0,0,581,436.41Zm1.62,40.69c.32.3.38.55.19.81C582.78,477.6,582.71,477.33,582.65,477.1ZM582,432.05a1.55,1.55,0,0,1-.28.71A1.43,1.43,0,0,1,582,432.05Zm-.34,42.67a4.63,4.63,0,0,0,1.64-.07c1.33-.28,2.14-.29,1.76,0-1.08.79-.69,1.76.6,1.7,0,.31.17.51.43.45a.87.87,0,0,0,.56-.79c.22-.28.18-.75-.09-1.54-.34-1-.3-1.8.09-1.88,1.16-.25,1.15,3.39,0,4.66h0a.52.52,0,0,0-.1.11c-.59.59-1.23.86-1.46.61s-.28,0-.41.22a.5.5,0,0,0-.39-.09c-.4.09-.63-.68-.55-1.79.11-1.62-.07-1.79-1.11-1.08-.75.52-1.12.46-.94-.16A.46.46,0,0,0,581.69,474.72Zm-1.09-45.41h-.13v0Zm.84,1.55a4.49,4.49,0,0,1-.33,2.11c-.2,0-.3.21-.29.48-.22.26-.47.3-.67,0,.09,0,.12-.39.08-1a2.23,2.23,0,0,0-.29-1.22C580.37,430.25,581.36,429.94,581.44,430.86Zm-2.07,43.23c-.25-.43-.21-.8.06-.93l.42,0a1.57,1.57,0,0,1,.66.9.85.85,0,0,0,.47.44,4.38,4.38,0,0,0-1,.27c-.79.29-1.63.59-2.24.78a2,2,0,0,1,.8-.34C579.25,475.07,579.64,474.56,579.37,474.09Zm-2.5-43c.61-.13.9.81.86,1.91-.24-1.75-.55-1.82-1-.23C576.46,431.87,576.51,431.19,576.87,431.11Zm.77,48.21c.05.46-.11.72-.38.82-.16-.39-.41-.9-.75-1.57a6.79,6.79,0,0,1-.34-.77c0-.1,0-.21,0-.34C576,476.27,577.49,478.08,577.64,479.32Zm-1.77,4.59a.59.59,0,0,1-.28,0,7.27,7.27,0,0,1-.33-1.6,3.34,3.34,0,0,1,.79,1.27A2.57,2.57,0,0,1,575.87,483.91Zm-1-4.73c-.06-.87,0-1.07.2-.35a4.26,4.26,0,0,0,.26.73A5.45,5.45,0,0,1,574.92,479.18Zm-1.4-46c1.34-.29,2.14-.3,1.77,0-.77.56-.79,1.21-.28,1.52-.54.09-.91-.18-1.17-.85a1.58,1.58,0,0,0-.44-.63Zm-.18,42.24a.28.28,0,0,1,.17,0,.86.86,0,0,1-.17.85C573.19,475.81,573.18,475.47,573.34,475.43ZM570.83,514a.71.71,0,0,1-.36-.54,1,1,0,0,1,.52-.84c.2,0,.34.14.37.42A1,1,0,0,1,570.83,514Zm1-31.2c0-.19,0-.37,0-.57a8.18,8.18,0,0,1,0-1.48A2.88,2.88,0,0,1,572,482C572.09,482.93,572,483.24,571.8,482.84Zm-1-50a2,2,0,0,0,1.34.47,1.4,1.4,0,0,1-1.44.09.94.94,0,0,0-.23-.1Zm-1.12-1.17a.62.62,0,0,1,.55.23l-.13,0a1.21,1.21,0,0,0-.65,0A.39.39,0,0,1,569.71,431.65Zm-.32,53.17c.13,0,.38.2.62.56,0,.46-.36.54-.81.17C569.19,485.15,569.26,484.84,569.39,484.82ZM568,490a9.3,9.3,0,0,1,1.23-1.06c.16,1.22.21,1.1.45-.27,1.13-.56,1.68.2,1.79,2.32.07,1.52-.2,2.59-.64,2.45s-.71-1.07-.64-2c.11-1.42-.2-1.61-1.62-1S567,491,568,490Zm-7.25,43.69c-1.25,1.79-1.57,1.69-1.59-.48a2,2,0,0,0-.94-1.25c-.76-.5-.75-.68,0-1,.52-.18,1.61-.59,2.39-.88C562.51,529.42,562.57,531.15,560.79,533.69Zm4.73-35.43a2.73,2.73,0,0,1-.16-1.82c.16-.35.38.19.46,1.17S565.79,499,565.52,498.26ZM566,482a.7.7,0,0,1,.7-.54c.91,2.14.2,2.7-.88.83A.52.52,0,0,0,566,482Zm-.45,8.44c.16,0,.32.34.37.87a1,1,0,0,1-.57,1.08c-.36.08-.53-.32-.37-.88S565.36,490.49,565.51,490.46Zm-1.76-6.2a8.65,8.65,0,0,1,1.07.95c.1.11.2.2.3.3a1.42,1.42,0,0,1-1.56-.44A.61.61,0,0,1,563.75,484.26Zm-2.25,1.6c.26.15.45.16.61,0a3.66,3.66,0,0,1,.32.46c.26.46.18.91-.18,1s-.71-.28-.76-.79A2.64,2.64,0,0,1,561.5,485.86Zm1.1,14.71c-.17.58-.42,1-.57,1.08s-.32-.34-.37-.88a.94.94,0,0,1,.57-1.07C562.59,499.62,562.76,500,562.6,500.57Zm-1.81,22.94c.63-1.11,2.92-2.1,3.31-1.43.26.45-.3,1.19-1.24,1.66C561.27,524.54,560.27,524.43,560.79,523.51Zm-.7,4.65c-.64.8-1.81-.11-2.5-2s0-2,1.69-.09C560,526.87,560.35,527.84,560.09,528.16ZM557,495a5.85,5.85,0,0,1,.76-2.57c.37-.44.51-.11.36.83s.11,1.64.53,1.75.18.57-.52,1C557.09,496.71,556.88,496.52,557,495Zm-21.19,61c-.63.5-1.36.68-1.57.38a1.8,1.8,0,0,0-1.64-.24c-.76.19-1.4-.38-1.67-1.5-.37-1.55-.28-1.67.63-.82s1.11.71,1.27-.27.26-1,.39-.13c.1.64,1,1.25,2,1.39C536.76,555,536.84,555.16,535.81,556Zm2.4,7.06c-.66.14-1.4,0-1.58-.38s.32-.8,1.16-1,1.55,0,1.59.38S538.88,562.9,538.21,563Zm4-9.58c-1.22.19-1.26.11-.27-.48s1-.84.17-1.36-.78-.69.13-.89a1.15,1.15,0,0,1,1.26,1.14A1.42,1.42,0,0,1,542.24,553.46Zm5.32-8.13c-1.19.42-1.91.29-1.73-.31s1.07-1,2-.88l1.72.13-1.87-.69a2.53,2.53,0,0,1-1.83-2.15,2.56,2.56,0,0,1,1-2c1.18-.61,2.24.69,1.79,2.19a1.83,1.83,0,0,0,1,1.72C550.92,544.12,550.85,544.19,547.56,545.33Zm2.31-7.58c.06.56-.36.94-1,.9a1,1,0,0,1-1-1,1.66,1.66,0,0,0-1.16-1.34c-.84-.28-.92-.49-.26-.67C547.7,535.31,549.75,536.57,549.87,537.75Zm-3.07-10c.42-.09.77.23.82.78a.81.81,0,0,0,1,.73.83.83,0,0,1,1,.77c.15,1.5-.86,1.28-2.31-.5C546.64,528.64,546.38,527.88,546.8,527.79Zm3.69,7.52a1.51,1.51,0,0,1-1.47-1c-.19-.59,0-1.22.36-1.3s.61.24.45.81a1,1,0,0,0,.75,1.2C551.37,535.15,551.35,535.23,550.49,535.31Zm2.09,5.58c-.46.1-.9-.62-1-1.69s.16-1.94.63-2,.9.63,1,1.69S553.05,540.79,552.58,540.89Zm2.63,2.93a1.73,1.73,0,0,1-1.57.34c-.46-.17-.12-.47.73-.66S555.61,543.47,555.21,543.82Zm-1-7.78a8.1,8.1,0,0,1,.42-2.27c.39-1.29.48-1.28.62.05a3.66,3.66,0,0,1-.41,2.27C554.55,536.5,554.28,536.48,554.25,536Zm1.5,5.81a6.37,6.37,0,0,1-.4-2.69l0-2.22.67,2.21C556.72,541.37,556.57,542.74,555.75,541.85Zm-1-10.58c-1.08-.86-1.15-1.12-.35-1.29a2.37,2.37,0,0,1,2,1C557.52,532.57,556.54,532.73,554.72,531.27ZM551.07,45.74a6.48,6.48,0,0,0,2.72-.15l.87,0a.53.53,0,0,1,.05.19.83.83,0,0,0,1,.78.77.77,0,0,1,1,.64c.05.49-1.1.73-2.73.57-5-.48-7-.67-9.78-.73A23.79,23.79,0,0,1,551.07,45.74Zm-5.81,5.89a3.73,3.73,0,0,1-.14.4l-.85-.47a1,1,0,0,1,.59-.8C545.22,50.69,545.41,51.1,545.26,51.63Zm-.72,473.56a2.8,2.8,0,0,1,.11,2.79c-.52,1-.74.61-1-1.52C543.37,523.35,543.51,523.14,544.54,525.19Zm.25,7.75a2.35,2.35,0,0,1-.45,1.6c-.31.4-.45.05-.34-.79C544.24,532.06,544.66,531.64,544.79,532.94Zm-6.14,3.23c-.53.06-.08-.48,1-1.22s1.91-1.94,1.83-2.71.14-1.43.52-1.52c.79-.17,1,1.4.3,2.28-.3.38,0,1.8.64,3.2.9,1.89,1.53,2.32,2.57,1.76,1.35-.73,1.35-.71.31.95-1.54,2.47-3.42,2.69-4.07.49-.36-1.24-1-1.68-2.19-1.44-1.33.29-1.49.14-.82-.77S539.51,536.07,538.65,536.17Zm-2.13-8.08c.33-.07.68.36.74.89s-.23.81-.59.58a1.52,1.52,0,0,1-.74-.89C535.9,528.42,536.15,528.17,536.52,528.09Zm-1.39,17.41c1-1.21,1-1.23,2.79-.6,1,.37.74.63-1.13,1.06C535.09,546.36,534.57,546.21,535.13,545.5Zm-2.07-14.26c.16-.3.57.15.91,1,.51,1.25.45,1.35-.28.56C533.2,532.25,532.91,531.54,533.06,531.24Zm-2,9.15c1.14-.95,1-.95,2.15-.17.75.53.71.9-.24,1.94s-1.37,1-2,.17S530.27,541,531,540.39Zm-1.83-7.82c.34-.07.68.31.73.84s-.21.78-.59.54a1.54,1.54,0,0,1-.74-.84C528.56,532.88,528.81,532.65,529.18,532.57Zm-7.66-20.43a1.21,1.21,0,0,1-.24.66,1.06,1.06,0,0,1-.2.17C520.8,511.74,520.87,511.56,521.52,512.14Zm-6.1.3c0-.1,0-.21,0-.32A.34.34,0,0,1,515.42,512.44Zm-1.07,21.39c.79.52.9,1,.41,1.93s-.85.82-1.54-.58C512.26,533.23,512.68,532.72,514.35,533.83Zm-14.29,9.76a4.21,4.21,0,0,1-1.13-1.34c0-.2.38-.45.93-.57s1,.46,1.13,1.35C501.12,544.27,500.93,544.38,500.06,543.59Zm3.66-2.74c-.26.88-2.25.85-2.34,0,0-.19.57-.48,1.3-.64S503.88,540.32,503.72,540.85Zm-.38-28.52a3.31,3.31,0,0,1,0,.64h0a.36.36,0,0,0-.07-.1A3.29,3.29,0,0,1,503.34,512.33Zm-1-.5h0a1.17,1.17,0,0,0-.06.2c-.12.78-.25.73-.38-.14Zm-3,18.75c1-.2,1.42-.05.84.32a2.53,2.53,0,0,1-1.92.36C497.83,531.09,498.33,530.78,499.36,530.58Zm-3.73,4.15a6.59,6.59,0,0,0,.63-.67,1.21,1.21,0,0,1,.27,1.07,1.14,1.14,0,0,0,0,.46,1.87,1.87,0,0,0-1.44.23C494.24,536.28,494.45,535.87,495.63,534.73Zm-.9,4.48c.4-1.18,1.14-2.2,1.68-2.31a.67.67,0,0,0,.55-1,7.9,7.9,0,0,0,3.06-.51,12.24,12.24,0,0,1,5.21-.51,2.62,2.62,0,0,1,1.1,4.06c-.38.48-.54.38-.36-.24a1.24,1.24,0,0,0-.8-1.42c-1.54-.51-4,.2-4.3,1.24-.15.51-1.29.75-2.73.59s-2.52.08-2.57.59-.55.61-1.29.47A5,5,0,0,0,494.73,539.21ZM410.7,562a6,6,0,0,1-.85-.47c-1.54-1-1.57-1.39-.08-2a2.16,2.16,0,0,1,.87,1.57A3.69,3.69,0,0,1,410.7,562Zm4,.73a1.86,1.86,0,0,0-1.39-.69,11.89,11.89,0,0,0,1.07-1C415,562.66,415.19,563.42,414.67,562.77Zm34.41,4.89a4.25,4.25,0,0,0-1.52-.47.82.82,0,0,1,1.54.38S449.09,567.63,449.08,567.66Zm5.39-5.37a6.7,6.7,0,0,1-.86,1.57,5.38,5.38,0,0,0-.66-.15c.26-.37.66-1,1.1-1.61C455.07,560.61,455.11,560.63,454.47,562.29Zm2.87,3.47c-.3.38-.64-.18-.75-1.25-.23-2.22.11-2.52.81-.72A2.4,2.4,0,0,1,457.34,565.76Zm21.32-5a1.6,1.6,0,0,1-.91,1.14c-.92.2-.79-.52.23-1.36C478.55,560,478.83,560.13,478.66,560.73Zm3.59-6.27a.61.61,0,0,0-.07-.24l.46.1C482.44,554.73,482.29,554.82,482.25,554.46Zm11.59-21.27.09.09a.58.58,0,0,1-.21-.2Zm-3.55,1c0-.12,0-.22,0-.33.16-.09.26-.34.33-.77.14-.83.29-.7.44.36.13.88.5,1.57.81,1.5s.51.71.43,1.82c-.1,1.38.2,1.88,1.05,1.77.68-.1.87.1.45.44a1.19,1.19,0,0,0-.37,1,2.39,2.39,0,0,0-2,.39c-.24-.26-.24-.46.06-.53s.49-1.1.14-2.48c-.41-1.64-.76-2-1.47-1.64A4,4,0,0,0,490.29,534.21Zm-.17,11.87.75-.17a18.8,18.8,0,0,1-.3,2.23c-.6,3-1.49,3.45-1.76.83-.12-1.15.23-2,.92-2.11S490.68,546.55,490.12,546.08Zm-1.19-12.93a3.48,3.48,0,0,1,.5,2.24c-.1.35-.05.62.1.74-.55.24-.77-.17-.9-1.46S488.54,533,488.93,533.15Zm-1.84,18.64c.29-.37.46.17.38,1.28-.17,2.3-.56,2.67-.77.71A3.36,3.36,0,0,1,487.09,551.79Zm-2,5.06c0,.2-.36.68-.88,1.09s-1,.35-1-.14a1.06,1.06,0,0,1,.87-1.1C484.64,556.58,485.08,556.65,485.1,556.85Zm-18.23-19.33c.36-.08.53.32.37.87s-.42,1.05-.57,1.08-.32-.34-.37-.87A1,1,0,0,1,466.87,537.52ZM406.51,557.4h0c.27,0,.37-.29.3-.69a.55.55,0,0,0,0-.34,20.07,20.07,0,0,1,4-.09c4.14.5,26.65-4.35,27.63-6a1.74,1.74,0,0,1,1.7-.91c2.57.85,14.19-.58,14.07-1.72s8.83-2.07,11.27-1.27a8.94,8.94,0,0,0,3.91.1l.5-.09a.83.83,0,0,0,1.08,0c.4.06.66.21.68.43a.53.53,0,0,1,0,.13c-.39-.24-.83.16-.74,1.19.05.61-.3.43-.75-.38-1-1.78-1.69-1-.91,1a1.61,1.61,0,0,0,.79.91.3.3,0,0,1-.28-.1c-.25-.27-.43,0-.36.67a4.93,4.93,0,0,1-.87,2.64c-.84,1.21.22,1.23,6.61.12,7.12-1.23,7.62-1.44,7.92-3.29.19-1.13.38-1.58.45-1s.34.25.62-.63c.42-1.35.51-1.33.66.09.09.88-.05,1.69-.32,1.74s-.85,1.37-1.31,2.92l-.06.2a1.65,1.65,0,0,0-.62,0c-.73.16-1.25.45-1.23.67,0,0,0,0,0,0a6.88,6.88,0,0,0-2.11.19c-2.18.47-2.83.93-2.5,1.81.24.67.08,1.25-.39,1.35s-.75-.32-.67-.85c.24-1.7-15,1.16-16.17,3-.64,1-.8,1.08-.54.19s-2.24-.74-11.65,1.15c-6,1.19-10.25,2-14,2.7q-.37-.23-.72-.48c-1.72-1.25-2.32-2-1.38-1.67s1.57.09,1.44-.54.75-2,2-3.3c3.23-3.18,2.69-3.86-2.61-3.29-2.53.28-4.6.85-4.52,1.26s1,.66,2.11.53,2.05.24,2.18.87-.48.85-1.23.61-1.32.19-1.15,1-.82,1.64-2.58,1.86c-2.27.29-2.59.06-1.5-1,1.6-1.61,1.44-3.36-.22-2.34-.69.42-1.36.31-1.48-.25a1.42,1.42,0,0,0-1.59-.88c-.76.08-1,.52-.45,1s.57,2,.14,3.52c-.76,2.57-.95,2.64-3.55,1.25-1.45-.77-2.31-1.67-1.81-1.9,1.74-.79.88-2-1.26-1.74a2.55,2.55,0,0,0-.92.24,7.54,7.54,0,0,0-2.51-.27c-.09-.51-.86-.84-2.27-.69a2.65,2.65,0,0,0-1.52.94c-.67,0-1.3,0-1.86,0A4.88,4.88,0,0,0,406.51,557.4Zm-1.7,2.36a8.17,8.17,0,0,1,2.16-.51h.11a5.16,5.16,0,0,0-.44,1.15,7.8,7.8,0,0,1-.3.93,4.59,4.59,0,0,1-1.9-.23A8.55,8.55,0,0,1,404.81,559.76Zm-4.08-2,.21,0a1.59,1.59,0,0,0,.27.51,2.36,2.36,0,0,1,.24.38,4.07,4.07,0,0,1-1.82.23l-.23-.05a.61.61,0,0,0-.24-.33A3.61,3.61,0,0,1,400.73,557.8ZM338.51,24.57c.3-.37.56-.65.8-.9l.35,0a1.1,1.1,0,0,0,.53,1.15,5.61,5.61,0,0,1-1,.57l-.16.06-1.12,0A6.67,6.67,0,0,1,338.51,24.57Zm-9.67-7.81c1.54-1.89,2.24-2.13,2.5-.84.09.44-.78,1.23-1.85,1.68C327.83,18.29,327.71,18.14,328.84,16.76Zm-1.36,3.31a.94.94,0,0,1,.15-.06c.34.62-.1,1.2-1,1.31a2.52,2.52,0,0,1-.62,0c-.16-.07-.26-.13-.27-.18S326.41,20.52,327.48,20.07Zm-271.78-1a.25.25,0,0,1,0-.07c.64-1.14,1.48-1.27,4.19-.64l1.35.3C60.18,18.73,58.27,18.87,55.7,19.08ZM192.22,566.66a2.7,2.7,0,0,1-1.88,1.21c-1.68.18-1.69-.38-.21-1.12l2.13-.18A.36.36,0,0,1,192.22,566.66Zm3.35,3.19a.38.38,0,0,1,0-.1c.07-.23-.43-.39-1.33-.47l3.38-.38a1,1,0,0,0,.15.33,1.2,1.2,0,0,1,.13.21C197.07,569.57,196.28,569.71,195.57,569.85Zm19,13.13a1.56,1.56,0,0,1-1.57-1.36,1.58,1.58,0,0,0-1.63-1.35c-.76.08-1.24.56-1.12,1.12s-.69,1.08-1.82,1.21-2.11-.22-2.22-.77.34-1,1.06-1.12a6.15,6.15,0,0,0,2.92-1.8c1.47-1.48,1.88-1.35,3.65,1.14C215.08,581.73,215.37,582.9,214.61,583Zm-5.38-15.36,1,.1a1.9,1.9,0,0,1-.28.24l-.47,0a.23.23,0,0,1-.07-.13A.47.47,0,0,0,209.23,567.62Zm4.57-6.72Zm6.44,5.5c0,.29-.09.55-.14.79-.5,0-1,0-1.43,0a.14.14,0,0,1,0-.07,2.07,2.07,0,0,1,0-.89,3.75,3.75,0,0,0,.47-.11,6.82,6.82,0,0,0,1.13-.45A3.56,3.56,0,0,1,220.24,566.4Zm2.39,15.71a1.31,1.31,0,0,1-1.53-.84c-.12-.56.37-1,1.12-1.13a1.32,1.32,0,0,1,1.53.84C223.86,581.54,223.38,582,222.63,582.11Zm1.58-5.2c-.75.11-1.18-.16-1-.6l2.15-.23A1.34,1.34,0,0,1,224.21,576.91Zm15.87-2.49a4.2,4.2,0,0,1-.78.65l-.27,0c0-.05,0-.16.09-.34a.53.53,0,0,0,0-.25l.93-.11Zm-4.62-9.63a13.22,13.22,0,0,0-2.54.57h-.11a33.93,33.93,0,0,0-3.78.56,4.45,4.45,0,0,0-.8-.56,5.63,5.63,0,0,0,.33-1.33c10.9-1,11.82-1.35,12.38-3.1a3.57,3.57,0,0,1,.58-1.23h0C243.44,560.89,239.26,564.4,235.46,564.79Zm7.57-5.43c0-.06.09-.12.13-.19.88-1.42,1.07-1.41,1.37.09,0,0,0,.09,0,.14A6.51,6.51,0,0,1,243,559.36Zm7,5.09c0,.21-.07.4-.1.58s-.35-.12-.68-.56a2.71,2.71,0,0,0-.61-.64,1.81,1.81,0,0,1,.59-.73c.42-.27.71-.08.8.42a1.3,1.3,0,0,0,0,.48,3.51,3.51,0,0,1,0,.41Zm5.9,2.08a2.83,2.83,0,0,1-2.18.71,2.5,2.5,0,0,1,.9-1,.88.88,0,0,1,1.3.23Zm.56-7.28a6.28,6.28,0,0,1-1.37,2.25l-1.52.24a2.68,2.68,0,0,1-.78-1.61,1.64,1.64,0,0,1,.94-2,5.35,5.35,0,0,0,2.77.92A.83.83,0,0,0,256.51,559.25Zm5,3.7a2.78,2.78,0,0,1-1.94,1.22c-.76.08-1.06-.32-.71-.93a2.82,2.82,0,0,1,1.95-1.22C261.52,561.94,261.83,562.34,261.47,563Zm-3.08-2a3.85,3.85,0,0,0-.08-.58,6.1,6.1,0,0,1-.12-1.3,27.9,27.9,0,0,0,2.87-.39c2.86-.52,5.35-.63,5.43-.25s1.1.3,2.17-.14a3.72,3.72,0,0,1,3.43.39,2.5,2.5,0,0,0,.71.44c-1.25-.21-4,.08-8.89.91C262,560.38,260.11,560.69,258.39,561Zm.31-10.36.29-.12a3.85,3.85,0,0,1,1.64-.22,2,2,0,0,1-.16.37,7.93,7.93,0,0,0-1.64.3A.84.84,0,0,0,258.7,550.61Zm3.6-519.19c.24-.93,3-1.46,4.77-.84a16.71,16.71,0,0,0,5,.3,41.08,41.08,0,0,1,5.08,0,.21.21,0,0,1,.05.13h0C271.56,31.37,266.17,31.5,262.3,31.42Zm9.28,531.44c-1.76.19-2.38-.2-2.06-1.31.46-1.58,1.76-2,3.37-1.13C274.82,561.48,274.23,562.57,271.58,562.86Zm6.14-2.82c-2.47.54-3.92.41-4.08-.37,0-.2-.2-.35-.5-.45.8.1,1.82-.41,3.61-1.71a33.61,33.61,0,0,0,4.87.16c.55,0,1.16.77,1.31,1.71s-.09,1.29-.55.77S279.81,559.57,277.72,560Zm4.09-529.29c.19-.2.37-.2.49,0Zm4.55,533.18c-.28.29-1.43-.08-2.53-.82s-1.48-1.42-.64-1.51C284.84,561.42,287.15,563.12,286.36,563.93Zm1.5-4.42a4.72,4.72,0,0,1-2.28-.76c-.16-.78,2.54-.56,3.51.29C289.63,559.51,289.07,559.72,287.86,559.51Zm4.42-2.06a1.22,1.22,0,0,0-.07-.17l.88.07C292.81,558.17,292.51,558.25,292.28,557.45Zm3.48.29c-.13.39-.37.3-.64-.17l.68.09A.59.59,0,0,1,295.76,557.74ZM313.89,25.22h-.25q.19-.28.39,0Zm-1.34-4.46c.67-.47,3.75-.23,6.43.38h-.05l-6.4-.18C312.49,20.87,312.49,20.8,312.55,20.76Zm1.29,534.67a2.88,2.88,0,0,1-2.33.08A15.57,15.57,0,0,0,313.84,555.43Zm-3.51-1.32a1.94,1.94,0,0,0-.09.63c-.69-.56-.68-1,0-1.38C310.43,553.44,310.44,553.69,310.33,554.11ZM309.16,24.64l.9,0a1.66,1.66,0,0,1-.05.28,5.8,5.8,0,0,1-.92-.25Zm-2.71,532.05a8,8,0,0,1,5.3,1l.45.25H312c-2.33,0-4.53-.41-5-.84a2.22,2.22,0,0,0-.82-.33ZM303.82,17.76c.25-.79.57-.64.82.39a1.45,1.45,0,0,0,.4.71l-2.29.1A2.06,2.06,0,0,0,303.82,17.76Zm1.25,541.32c.32-1,.53-1,.81-.14.21.68,2,1.32,4.1,1.47,3.28.23,3.43.38,1.29,1.25-1.31.52-2.83.71-3.27.4a6.83,6.83,0,0,0-3.41-.25,4.89,4.89,0,0,1-1,0l0-.08,0,.08a2.92,2.92,0,0,1-2.42-1.6c-.78-1.63-.59-1.76,1.3-.86C304.13,560.18,304.73,560.11,305.07,559.08Zm-4.18-2.51a2.84,2.84,0,0,0-.17-.36h0a3.2,3.2,0,0,1,.87.32ZM287.55,17.42c.21-.67.55-.54.77.3.52,2,8,1.67,10.54-.4,1.56-1.27,1.79-1.23,1.37.25a1.16,1.16,0,0,0,.68,1.51c-1.34.08-2.63.19-3.87.32-4,.42-7.25.4-7,0s-.84-.8-4.72-.93C286.87,18.23,287.39,17.91,287.55,17.42ZM273.07,14.9c.9-.62,6.07,0,8.87,1.1s2.75,1.14-1.09,1.29a15.35,15.35,0,0,1-6.13-1C273.56,15.71,272.82,15.07,273.07,14.9Zm-1.76,12.59c.18,0,.38,0,.59,0h.19a1.13,1.13,0,0,1,.24.66,1.37,1.37,0,0,1-.08.7h-1.46c-.2-.12-.33-.23-.34-.31S270.79,27.92,271.31,27.49ZM91.14,35.16c-.46-.4-.77-.43-.72,0a1.09,1.09,0,0,1,0,.18l-4.34.93a2.66,2.66,0,0,0-.43-1.13l7.85-.45Zm11.07,2.89-.51-.1a7.3,7.3,0,0,1-.34-.75,2.4,2.4,0,0,1,.06-2c.3-.38.64.18.75,1.25A8,8,0,0,1,102.21,38.05Zm3.84-1.13-1,1.52-.59-.07c.38-.85.91-1.57,1.21-1.64S106.18,36.73,106.05,36.92Zm5.24-3.31a.82.82,0,0,1-1.57.06l1.58-.12A.13.13,0,0,1,111.29,33.61Zm11.43,5.07c-2.32,1.28-3.49,1.45-5.08.74a2.92,2.92,0,0,0-.48-.17c2.53-.5,4.72-.92,6.73-1.29C123.53,38.2,123.13,38.44,122.72,38.68ZM115.9,23.87c-2.35.15-4.59.27-6.57.38a2.11,2.11,0,0,0,.21-.31c1-1.66,4.84-2.08,26.35-2.85,8.58-.31,25.61-1,37.77-1.44s25.66-.91,29.93-1,7.72-.44,7.63-.87.92-.87,2.19-1,1.73.11.81.5c-3.58,1.52-.67,2.39,5.77,1.72a77.59,77.59,0,0,1,11.75-.29,129.39,129.39,0,0,0,14.86-.22,118.35,118.35,0,0,1,12.18-.37c.8.12,2.68.24,4.9.35l-14,.29c-24.79.55-38.53,1-55.14,1.69-5.56.24-15.24.57-21.53.72C159,21.6,133.87,22.75,115.9,23.87Zm36.22,10.31c13.68-1.52,14.17-1.68,14.55-3,.46-1.57,2.32-2,12.65-2.7,4.12-.29,12.3-.91,18.14-1.36,1.18-.1,2.39-.19,3.58-.27,5.52-.18,10.05-.3,12.22-.32,1.1,0,2.15-.05,3.1-.1.43.4,1.63.5,3.34.15a19.44,19.44,0,0,1,2.67-.34c-.27.82,2.55,1.17,7.29.67a76.17,76.17,0,0,1,11.75-.28,121.42,121.42,0,0,0,12.77-.11,3.3,3.3,0,0,0,.88-.05l1.2-.07,2.07-.13c.27.6.91.59,1.31-.07l.81,0a1.34,1.34,0,0,0,1.55.93c3.3-.44,5.82-.33,6.91.3s-.11,1.15-2.44,1.41c-1.49,0-2.71-.07-3.35-.13a3.86,3.86,0,0,0-2,.24c-2.12-.07-4.8-.09-6.28-.05s-4.78-.08-7-.26c-3.5-.29-4-.17-3.26.79a2.8,2.8,0,0,0,2.55.77c4.06-.87,11.75-.18,11.88,1.08,0,0,0,0,0,.06a11.62,11.62,0,0,1-2-.29c-1.6-.44-6.74-.48-11.95-.13a2.91,2.91,0,0,1-.84-.87c-.73-1.13-2.16-1.69-4.2-1.64a30.38,30.38,0,0,1-4.26-.13c-.63-.11-1.12.19-1.08.64s1.82.76,3.91.66c2.34-.11,3.86.27,3.92,1,0,.19,0,.38.05.56a226.75,226.75,0,0,1-26.53.82c-2.22,0-7.56.24-12,.59s-8.62.45-9.38.22C192.9,32.16,172,32.92,152.12,34.18Zm10.06,538.6-.1.05-1.26.13,0,0ZM148,569.89a1.45,1.45,0,0,1-.12,2.07c-.63.41-1.33-.19-1.56-1.31C145.79,568.31,146.49,568,148,569.89Zm-9.78.3,2.8-2.08c2.13-1.57,2.22-1.55.88.2a5.62,5.62,0,0,1-2.8,2.07C138.29,570.46,137.92,570.38,138.17,570.19Zm-10.92,3.48c.58-1,3.21-.83,3.42.2.05.26-.85.57-2,.7S126.9,574.28,127.25,573.67Z"/></svg>