<svg id="Camada_1" data-name="Camada 1" xmlns="http://www.w3.org/2000/svg" viewBox="0 0 1200 50"><defs><style>.cls-1{fill:#347ec8;}</style></defs><title>tira</title><path class="cls-1" d="M1192,28.39a2.37,2.37,0,0,0-1.87-.2,37.91,37.91,0,0,1-6.12.14c-2.73-.09-6.61,0-8.58.14a43.1,43.1,0,0,1-6.83,0,74.11,74.11,0,0,0-10,.13c-11.53.8-16.2,1-21.23.85-2.61-.06-6.22,0-7.91.09s-6.66.2-11.14.2-9.15.13-10.53.31c-3.57.45-8.92.39-9.19-.11-.13-.23-3.79-.12-8.7.26s-11.8.57-16,.46-7.3,0-7,.2-.52.31-1.73.24-1.74-.27-1.14-.42.48-.34-.33-.39a3.1,3.1,0,0,0-1.73.25c-.28.36-7.58.56-15,.42-9.66-.19-18.28-.22-21.21-.09-1.57.07-5.86,0-9.36-.2-5.39-.28-6.47-.23-6.54.31,0,.34-.78.59-1.62.55s-1.07-.22-.56-.36.06-.44-1.18-.65a10.55,10.55,0,0,0-3.7,0c-1.32.34-1.8,0-.89-.57.2-.14-1.23-.35-3.1-.46s-3.37-.35-3.23-.53c.5-.64-7.82-1.29-11.75-.92a52.86,52.86,0,0,1-6.27.25c-1.48-.09-2.2.07-2,.43s-.1.53-.8.49a2.18,2.18,0,0,1-1.47-.54c-.22-.38-.74-.41-2.75-.15a10.89,10.89,0,0,1-3.08.08,11.8,11.8,0,0,0-3.56.53c-2.79.71-2.81.76-.21.91a17.62,17.62,0,0,0,4-.17,16.45,16.45,0,0,1,4.35.07,16,16,0,0,0,4.29.07,5,5,0,0,1,2.86.2c1.23.39,1.76.42,2,.14a9,9,0,0,1,3.46-.22l6.39.33c1.75.09,3,0,2.69-.21s.12-.34.92-.28,1.36.3,1.26.54a2.87,2.87,0,0,0-.2,1.07c0,.36-1.21.65-2.92.68s-2.72.19-2.49.33-2.28,0-5.71-.22-7.28-.43-8.75-.35-4.2.08-6.12,0a29.33,29.33,0,0,0-4.52.14,86.52,86.52,0,0,1-9.29-.19c-6.19-.33-8.73-.3-10.11.09a66.32,66.32,0,0,1-12.75,1c-3.08-.18-5.78-1.35-4.38-1.9.62-.24.38-.5-.51-.55s-1.41.08-1.07.3-.08.36-.88.32-1.31-.3-1.13-.54,0-.36-1-.1c-1.77.45-17.5,0-18.29-.52a17,17,0,0,0-4.55-.41c-5.89,0-6.62.13-5.12.84,1.22.57,1,.62-1.23.31-7.22-1-11.43-1.33-11.73-.94-.18.23.41.33,1.42.23s1.22.07.24.5-.73.76,1.7,1.06c4.57.57,2.37,2.18-2.59,1.9-.83,0-.42-.18.94-.31s1.77-.27.94-.31a26.14,26.14,0,0,0-4.6.52,10.33,10.33,0,0,1-3.82.22c-.83-.47-9.07-.93-11-.63-.75.12-.53.41.51.69,1.47.4,1.35.43-.67.14-1.38-.2-3-.38-3.59-.41a1.42,1.42,0,0,1-1.34-.81c-.11-.42-1.14-.79-2.4-.87s-2.11-.26-2-.42c.36-.47,5.82-.42,7.09.05a10.32,10.32,0,0,0,4,.16c2.73-.23,2.71-.25-.25-.22-2.44,0-3.22-.18-3.37-.89s-.64-.89-4-.73a16.58,16.58,0,0,0-4,.49,6.76,6.76,0,0,1-2.65.07,6,6,0,0,0-2.68.13c-.15.19.71.35,1.83.34,1.83,0,3.84.73,3.48,1.26a26.69,26.69,0,0,1-5,0,71.29,71.29,0,0,0-7.66-.06c-2.21.18-1.34.29,3.94.52s6.68.41,6.34.85-2,.46-7.46.15a49.18,49.18,0,0,0-7.25-.13,5.67,5.67,0,0,1-2.22.15,8.82,8.82,0,0,0-2.75.21,36.94,36.94,0,0,1-6.44.09c-5.69-.24-5.69-.24-4.88-1.59,1-1.71.51-1.89-5.06-1.66-3.18.13-4.35.36-4,.78s-.07.48-.86.3a4.34,4.34,0,0,0-2.61.36c-1.37.69.8,1,3.7.58a6,6,0,0,1,2.92.3c1,.41.25.74-3,1.36a36,36,0,0,1-4.81.7c-1.66-.38-4.81-.3-5.15.14s-1.2.37-2.31.18-2.08-.11-2.34.22c-.54.7-4.67.8-5.16.12-.24-.33.56-.5,2-.44s1.78,0,1-.15c-1.79-.3-22.87-.1-28.62.27-2.39.16-7,.14-10.12,0-4.42-.25-5.61-.2-5.31.25s-.61.52-3.16.38a23.41,23.41,0,0,0-4.51,0,36.21,36.21,0,0,1-5.47,0,36.73,36.73,0,0,0-5.62,0c-.61.13-5.4.19-10.52.11-7.89-.11-9.75-.24-11.48-.8-1.12-.37-2.19-.52-2.33-.34-.48.62-3.93.16-3.64-.49s2.75-1.07,8.53-1.13c5.08,0,5.08,0,8.25-.17,1.27,0,4.79,0,7.82,0,4.81.1,5.33.19,4.14.7s-.74.59,2.32.62a13.46,13.46,0,0,0,4-.3,2.22,2.22,0,0,1,1.57,0,2,2,0,0,0,1.92-.59c.52-.66,1.38-.84,3.51-.72,1.6.09,2.92,0,3.07-.26a.76.76,0,0,1,.9-.17c.36.13,4.39.21,8.9.17s9.14.07,10.23.25a17,17,0,0,0,4.16,0,19.29,19.29,0,0,1,4.3.06,26.93,26.93,0,0,0,5.25,0,18.34,18.34,0,0,1,7,.45,25.25,25.25,0,0,0,8.71.49l4.84-.28-5.23-.11c-3-.06-5.51-.29-5.87-.55s.51-.39,2.24-.28c2,.13,3,0,3.45-.57.55-.7.76-.7,3.7,0,1.76.44,3.23.62,3.38.42s-.46-.39-1.27-.44-.92-.36-.09-.73c1.45-.65-.57-1-2.62-.5a34.2,34.2,0,0,1-5.79,0A25.77,25.77,0,0,0,792,31a2.06,2.06,0,0,1-2-.16,1.81,1.81,0,0,0-1.93-.12c-.66.28-2.95.27-7.33,0a51.4,51.4,0,0,0-7.58-.15,9.79,9.79,0,0,1-3.2,0,14.58,14.58,0,0,0-4.5.21c-2.45.52-2.56.52-4-.21a4,4,0,0,0-2.69-.41,17,17,0,0,1-4,.17,33.57,33.57,0,0,0-5.7.31c-2.45.38-3.7.35-7.47-.2-5-.73-6.26-1.46-2.68-1.6a6.25,6.25,0,0,0,3-.66c.45-.5.61-.49,1.42.11,1,.76,5.54,1.21,7.34.73a40.45,40.45,0,0,1,5.85-.27c2.66,0,6.41-.06,8.51-.15s8.3,0,13.73.26,10.29.28,10.67.14A7,7,0,0,1,792,29a17.89,17.89,0,0,0,4.27,0,18.34,18.34,0,0,1,4.39,0,4,4,0,0,0,2.28,0c.15-.2.79-.25,1.4-.1s5.65.3,11.23.33,12.81.15,16.15.29a56.23,56.23,0,0,0,7.93-.13,23.25,23.25,0,0,1,4.57-.21c2.95.17,3.89-.34,1.46-.79-.86-.16,0-.19,1.87-.07,7.19.47,7.75.37,3.59-.65-3.77-.92-3.88-1-1.29-1.32,2.19-.24,2.86-.62,3-1.69s.46-1.2,1.16-.77c.87.54,1.23.56,2.88.17s1.57-.3.36.29c-1.53.75.26,1.18,2.47.6a6,6,0,0,1,2.39,0c.62.14,1.33.09,1.48-.11s.92-.23,1.59-.07c2.05.49-.32.78-5.87.72-3.19,0-5.16.12-5,.39a4,4,0,0,0,2.32.43c1.11,0,4.25,0,6.87.08,5.65.12,8.06-.56,5-1.41-2.42-.67-2.76-1.94-.44-1.6a7.3,7.3,0,0,1,3,1.52c1.21,1,1.79,1.2,2.9.77a4.87,4.87,0,0,1,2.51-.25c.67.16.69.38.06.56s-.4.32.41.37a2.81,2.81,0,0,0,1.86-.42,6.19,6.19,0,0,1,2.84-.59c3.74-.13,4.58,0,1.47.27-1.5.12-2.58.41-2.29.61s-1.18.44-3.19.5c-4.46.15-5.93.47-5,1.09s5.72,1,7,.53c.58-.24.32-.37-.63-.29-2.24.19-6-.49-4.69-.84a7.14,7.14,0,0,1,2.59-.05,46.08,46.08,0,0,0,6.07,0c3.5-.18,3.92-.27,1.79-.41-2.64-.16-2.57-.2,1.16-.68a27,27,0,0,1,5.45-.26c2,.32,3-.78,1.11-1.26s-3.69-.53-3-.05c.49.33,0,.3-1.83-.08-3.25-.69-6-.88-5.27-.36.31.22-.14.38-.94.33s-1.26.11-.94.31-.07.37-.88.32-1.29-.32-1.06-.62c.54-.7-.82-.74-4-.12-1.37.27-1.93.32-1.26.1,1.72-.54-3.29-1.44-8-1.44-7.56,0-23.4.41-25.57.66-1.54.18-2.38.1-2.94-.26s-1.1-.4-2.17,0c-1.76.7-.61,1.48,1.39.95,1.18-.31,1.62-.26,2,.25.25.35,1.75.73,3.22.81s2.22.3,1.61.46a10.09,10.09,0,0,1-3.91-.29,22.28,22.28,0,0,0-3.21-.55c-1.9.2-4.26-.31-4.39-.95s-1.12-.79-4.14-.87c-4.53-.11-6.58.48-3.42,1,1.49.24,2,.17,1.69-.24-.47-.66.69-.67,3.28,0s-.16,1.11-4,.71c-3.1-.32-3.42-.25-4,.9-.65,1.36,1.1,1.83,2.1.58.5-.64.84-.68,1.63-.19a3.3,3.3,0,0,0,2.37.31c1.51-.33,6.43-.25,6.18.1a10.74,10.74,0,0,0,3.28.49,12,12,0,0,0,3.69-.07,7.3,7.3,0,0,1,3,.25c2.63.56,2.56.59-2.55,1a106,106,0,0,1-14.57,0c-13.9-.66-14.18-.67-14.61-.21-.28.29-.55.28-1.07-.06a10.51,10.51,0,0,0-3.14-.73c-4.67-.52-1.78-1,4.61-.71s6.54.23,7.46-1c.57-.74.32-1.16-.63-1.08s-1.46,0-1.32-.2c.35-.45-12.48-1-14.06-.59a139,139,0,0,1-14.31.17,32.9,32.9,0,0,0-3.45.13c-1.06.1-1.9.1-1.82,0a21.44,21.44,0,0,0-4,0c-2.29.08-8.64-.05-14-.3-12.3-.57-22.48-.44-23,.29-.33.41-.79.35-2.1-.28a3.42,3.42,0,0,0-2.67-.43,7,7,0,0,1-2.93.08,19.21,19.21,0,0,0-4.42,0,53.55,53.55,0,0,1-7.55,0,55.38,55.38,0,0,0-6.84-.11c-1,.12-3.87.2-6.52.19s-4.91.19-5.13.47a4.63,4.63,0,0,1-2.6.38c-1.2-.07-1.77-.25-1.24-.39s-4.49-.25-11.07-.24-14.19,0-16.76-.05-4.88.15-5.09.42a3.46,3.46,0,0,1-2.19.38c-1.24-.07-1.22.05.07.37,1.62.41,1.53.46-.61.33-1.34-.07-2.37-.28-2.24-.45s-1-.31-2.71-.3-2.83-.14-2.66-.36-.34-.42-1-.47-1.15.16-.92.49c.41.58-2.22.67-3,.11-.21-.17-.36-.09-.31.15.11.53-2.3.49-2.59,0-.13-.23-1.83-.33-4.67-.28-2.41,0-3.65.14-2.68.21s1.64.31,1.5.5-1.9.2-4.75-.11c-3.35-.36-4-.36-2.59,0,1,.27,1.23.47.43.44s.42.18,2.59.44l4,.49-5.81.09c-3.21,0-11.79-.05-19.21-.22-7.57-.17-13.42-.14-13.43.07s-1.54.28-3.54.15a24.31,24.31,0,0,0-5.64.24,8.35,8.35,0,0,1-4.77-.17,12.07,12.07,0,0,0-4.7-.35,35,35,0,0,1-5.43.06c-1.83-.13-5.86-.3-8.74-.38-3.84-.1-5.24-.28-5-.61s-.84-.54-2.32-.62c-3.08-.17-6.13.33-3.37.56,1,.08-3.67,0-10.42-.11s-13.13-.43-14.2-.63c-2.92-.57-13.14-.5-15.79.1-1.35.3-2.19.34-2,.08s-.44-.38-1.6-.28a98.64,98.64,0,0,1-11.21,0c-4.52-.13-8.36.11-5,.3.94.06,1.49.24,1.34.45s-1.18.16-3-.21a45.82,45.82,0,0,0-9.11-.51c-3.52,0-8.33-.08-10.69-.21a17.22,17.22,0,0,0-4.54.07,12.19,12.19,0,0,1-3.92-.17c-3.55-.48-13.36-.28-15,.3a8.82,8.82,0,0,1-2.95-.25,6.29,6.29,0,0,0-3.83.06c-.84.3-1.53.69-1.5.85s-.72.11-1.54-.09a25.56,25.56,0,0,0-3-.51c-.74-.07-2.42-.31-3.66-.52a5.21,5.21,0,0,0-2.56,0,8.4,8.4,0,0,1-3.08.36c-1.82,0-2.43-.13-1.73-.41,1.45-.58-9.55-.26-12.27.35-2.35.52-9.88.14-11.29-.57-.9-.46-1.75-.51-5-.29-3.54.24-3.69.31-1.51.68a10.25,10.25,0,0,0,3.82.05c1.06-.28,1.52-.23,1.84.2.65.89-1.16.91-6.1.05-3.7-.64-4.84-.72-6-.42-.91.23-1.36.22-1.18,0s-1.3-.39-3.38-.41a12.38,12.38,0,0,0-4,.31,3.59,3.59,0,0,1-2.08.06,13.26,13.26,0,0,0-3.56,0c-1,.15-6.88,0-13.22-.28-8.22-.41-12.3-.45-14.45-.14a13.51,13.51,0,0,1-3.92.09c-.52-.19-.74.06-.5.56s0,.79-.94.57a9.72,9.72,0,0,0-3.72.29,16.23,16.23,0,0,1-4.43.48c-1.68-.11-1.55-.17.68-.34,1.49-.11,2.45-.4,2.1-.63s.34-.53,1.56-.66c1.86-.2,1.86-.23,0-.21a36.2,36.2,0,0,1-5.07-.41,23.9,23.9,0,0,0-6.81,0,27.86,27.86,0,0,1-8.95-.2c-3.68-.49-5.36-.57-6.33-.32a8.19,8.19,0,0,1-2.6.2c-3.48-.39-5.06-.22-4.86.52s-.26.72-2.4.44c-1.52-.2-2.35-.18-2,0s-.17.31-1.22.22c-4.17-.39-5.83-.3-5.44.28.24.36-.07.49-.76.32-2.16-.52-.58-1.23,2.79-1.26,1.83,0,3-.12,2.59-.26a24.29,24.29,0,0,0-4.53-.12c-2.73.09-4,0-4.36-.34s-.5-.08-.52.37c0,.84-1.92,1-3,.29-.4-.27-1.65-.34-3.58-.2a36.67,36.67,0,0,1-4.06.1c-.61-.07-3.53-.24-6.49-.39-3.64-.18-5.17-.12-4.71.2s.16.35-.78.11-3.29-.54-5.5-.76c-3.38-.34-4.12-.29-4.57.3a3.52,3.52,0,0,1-2.19.84c-2.7.23-3.18-.31-.7-.8,1.89-.37,1.65-.43-1.67-.47-2.08,0-4.55,0-5.32.08s-3.69.06-6.57,0a87.92,87.92,0,0,0-9.16.26c-3.79.38-3.94.37-2.59-.18,1.14-.46.85-.55-1.46-.46a94.92,94.92,0,0,1-13.53-.07,9.32,9.32,0,0,0-3.84.18,8.51,8.51,0,0,1-2.91.4c-.87,0-1-.31-.31-.59.87-.33.68-.48-.56-.45a51.52,51.52,0,0,1-6.75-.76,41.72,41.72,0,0,0-9.55-.68c-4,.12-4.68,0-4.82-.55-.1-.4-1.72-.85-3.79-1.07s-4.83-.59-6.22-.82c-2.35-.4-2.46-.38-1.1.27,2,.94-1.92,1.82-4.52,1a70.38,70.38,0,0,0-9.51-.91c-7.43-.35-7.72-.4-5.75-1a12,12,0,0,1,2.83-.57c.42,0,.24.17-.41.34s.54.39,2.82.51c3.1.16,3.56.1,2.09-.25-1.65-.4-1.57-.5.63-.82,1.41-.2,5.42-.39,9.09-.44,5.51-.06,6.21-.16,4.36-.57a12.75,12.75,0,0,0-4.39-.19,5.82,5.82,0,0,1-2.58,0c-.19-.16-.35-.09-.32.16s-.6.43-1.29.39-1.16-.31-.93-.61-.73-.59-2.07-.67c-1.87-.11-2.08,0-.83.27a4,4,0,0,1,1.69.65c.07.39-5.29.73-6.59.43a5.09,5.09,0,0,0-2.23,0,13.11,13.11,0,0,1-3.54,0,6.34,6.34,0,0,0-3.79.37c-.9.48-2.38.63-4.78.48a15.76,15.76,0,0,0-4.78.3,6.81,6.81,0,0,1-3.24.2,8.75,8.75,0,0,0-3.08,0,9.08,9.08,0,0,1-3.14,0c-1.53-.25-2-.13-1.8.5s.06.76-1.14.13a4.77,4.77,0,0,0-2.79-.47c-1.33.21-3.92.19-15.56-.15-.61,0-.92.22-.7.55s-.29.54-1.15.49-1.42-.25-1.29-.42-1-.33-2.7-.31c-2.11,0-2.81-.16-2.46-.61s.06-.56-1.52-.3a31.36,31.36,0,0,1-5.43.15c-1.87-.11-5.61-.08-8.24,0s-7,.17-9.78.07c-4.36-.15-5,0-5.65.8a2.34,2.34,0,0,1-1.82.9c-.62,0-.83-.46-.47-.93,1.1-1.42-6-1.31-11.07.17-1.69.5-2.71.63-2.47.32a5.14,5.14,0,0,1,2.42-.86c1.58-.25,1.12-.37-2.23-.56a40.11,40.11,0,0,0-6.22.08c-1.63.26-1.93.24-1.65-.13s-.45-.32-2.37,0c-3,.49-7.48.35-5.51-.17.8-.22.5-.32-.79-.27s-2.06.28-2,.54-.28.37-1.52,0a9.33,9.33,0,0,0-3.93-.26c-1.86.18-1.78.22.35.17,1.57,0,2.22.08,1.56.25a15,15,0,0,1-3.51.2c-1.49-.06-1.76,0-.71.19,1.34.22,1.25.36-.41.69-2.5.48-.27.64,2.87.2,2-.28,2-.26.25.13-1.15.25-1.72.61-1.25.8s-.27.16-1.76-.08-3.32-.48-4.27-.54c-1.25-.09-1.18-.26.26-.7,1.73-.53,1.57-.58-1.54-.54-3.39.05-3.4,0-.2-.38s3.13-.42-.4-.38a51.26,51.26,0,0,0-6.21.43c-2.28.35-2.26.38.2.28,1.87-.07,2.49,0,2,.36s.13.46,1.25.47c1.3,0,1.55.19.71.53a5.72,5.72,0,0,0-1.59.86c-.15.2-1.45-.13-2.92-.74a12.84,12.84,0,0,0-5.32-1,7.43,7.43,0,0,1-3.48-.48c-.64-.45-.92-.43-1.31.07a1.93,1.93,0,0,1-1.73.33c-.69-.16-1.38-.11-1.56.12s-1.47.27-3,.08a10.93,10.93,0,0,0-2.58-.07V50H1199.89V28.93C1195.75,28.92,1192.55,28.73,1192,28.39Z"/><path class="cls-1" d="M1144.05,28c5.48,0,5.71-.06,2.48-.48a16.94,16.94,0,0,0-4.75.07C1140,28,1140.41,28,1144.05,28Z"/><path class="cls-1" d="M966.59,24c2,.11,2,.17.08.35s-2,.31.08.89a29,29,0,0,0,5.23.84c2.44.13,2.39.06-.35-.55-1.79-.39-2.32-.65-1.22-.59,1.47.09,1.67,0,.83-.44s-.3-.51,2.69-.4,3.3.2,1.46.38c-1.37.13-1.65.27-.68.33a11,11,0,0,0,2.82-.21,42.13,42.13,0,0,1,6.91,0,51.28,51.28,0,0,0,10-.25c2.35-.32,3.15-.36,1.81-.08-2.1.44-2.11.53-.08.64,1.34.08,2.2.32,2,.57s.5.2,1.54-.09a10.3,10.3,0,0,1,3.79-.2,3.79,3.79,0,0,0,2.19,0c.36-.47,8.62-.32,9.93.18a9.73,9.73,0,0,0,3.54-.05,10.16,10.16,0,0,1,3.43-.1c.48.17.57.09.21-.18s.2-.44,1.55-.36,2.11.24,2,.39,2.05.42,10.74.77a10.77,10.77,0,0,0,3.52-.2c.14-.19-1.1-.48-2.79-.65-2.33-.24-1.48-.34,3.63-.44,3.69-.07,7.6-.23,8.74-.35a82.24,82.24,0,0,1,8.94.21,56.71,56.71,0,0,0,8,.14,21,21,0,0,1,4.36-.12,46.75,46.75,0,0,0,7-.33,44.7,44.7,0,0,1,6.51-.36c1.47.08,4.75,0,7.25-.15,2.66-.17,4.45-.14,4.29.07-.42.54,2.29.59,5.29.09a18.34,18.34,0,0,1,4.72-.09,77.77,77.77,0,0,0,8.31.21c5-.09,5.82-.21,4.62-.65A4.78,4.78,0,0,0,1117,23a28.68,28.68,0,0,1-5.2,0c-2.26-.15-3.69-.39-3.16-.53s-.37-.34-2.11-.43c-3.35-.19-11.94.41-12.29.86a3.71,3.71,0,0,1-1.75.18c-.8,0-1-.22-.48-.37s.62-.4,0-.56a4.93,4.93,0,0,0-2.43.24,9,9,0,0,1-3.73.21,37.2,37.2,0,0,0-6.13,0c-4.3.31-10.28.08-9.92-.38.13-.17-2.45-.28-5.7-.24-3.53,0-5.32.2-4.44.41s-.64.46-4.16.67a35.36,35.36,0,0,0-5.86.6,3.69,3.69,0,0,1-1.76.2c-.81-.05-1-.23-.4-.39s-.53-.31-3.32-.33-4.35-.15-4.16-.41,2-.28,4.32-.15c4.83.27,13.31-.19,10.68-.59a14.59,14.59,0,0,0-3.93.1,34.91,34.91,0,0,1-5.93.16c-3.76-.21-10,.08-7.27.34,3.42.31-11,.12-16.34-.22-4-.25-5.93-.24-5.55,0s-1.09.32-3.64.17a27.92,27.92,0,0,0-5.54.11c-.76.2-.56.28.49.19,2.51-.22,1.93.33-1.06,1a13.63,13.63,0,0,1-4.15.22c-1.32-.23-1.12-.28.77-.18,1.48.07,2.46-.07,2.33-.34-.24-.52-.81-.54-15-.71-6.66-.07-9.06,0-8.79.41s-2.65.44-13.25-.14c-1.75-.09-3.39,0-3.59.29S965.25,23.94,966.59,24Z"/><path class="cls-1" d="M1100.42,26.7a23.13,23.13,0,0,0,4.15.06c2-.07,6-.17,8.84-.21,4.67-.06,4.83-.09,1.51-.31C1111.05,26,1099.5,26.35,1100.42,26.7Z"/><path class="cls-1" d="M1067.29,28.63a48.42,48.42,0,0,0,12.47.16,38.55,38.55,0,0,1,7.31.06,17.62,17.62,0,0,0,4.35.16c.54-.14-1.71-.41-5.06-.6a62.58,62.58,0,0,0-8.69,0,54.56,54.56,0,0,1-8,0C1065.3,28.22,1064.9,28.25,1067.29,28.63Z"/><path class="cls-1" d="M1071.64,26.9c.56-.09-.24-.23-1.73-.29s-2.06,0-1,.16A10.55,10.55,0,0,0,1071.64,26.9Z"/><path class="cls-1" d="M1062,27.37c2.6-.1,3.29-.33,1.32-.44a9.06,9.06,0,0,0-2.48.22C1060.17,27.32,1060.67,27.41,1062,27.37Z"/><path class="cls-1" d="M1027.5,28.49c3,.62,28.78,1.17,31.73.68,1.14-.19.85-.27-.86-.23-1.43,0-2.65-.12-2.74-.34s-4.59-.49-15.23-.68c-8.28-.14-15.5-.37-16.05-.51s-1.1-.11-1.25.09c-.4.51-9,.74-11.87.32-1.43-.2-5.74-.36-9.39-.34-8,.05-11.41.61-4.5.75,2.48,0,4.44.23,4.3.4s.62.29,1.62.27,1.87-.33,1.89-.64.73-.55,1.52-.51c1.27.07,1.6.61.74,1.22-.2.15,1.52.37,3.93.51,3.22.18,4.64.07,5.67-.45s1.61-.53,2.12-.21,1.51.4,4.1.13c1.83-.19,3-.5,2.48-.68S1026.06,28.19,1027.5,28.49Z"/><path class="cls-1" d="M1060.28,25a2.71,2.71,0,0,0-1.69.28c-.16.2.43.31,1.29.23a5.9,5.9,0,0,0,1.69-.28C1061.64,25.09,1061.08,25,1060.28,25Z"/><path class="cls-1" d="M979.61,22.93c.16-.2-.6-.4-1.8-.47a12.68,12.68,0,0,0-3.22.18c-.63.17.19.38,1.8.47A8.58,8.58,0,0,0,979.61,22.93Z"/><path class="cls-1" d="M969.77,23.08a5.4,5.4,0,0,0,2.48-.22c.16-.2-.3-.38-1.07-.43a9.42,9.42,0,0,0-2.48.23C968.07,22.82,968.56,23,969.77,23.08Z"/><path class="cls-1" d="M893.18,23.56c3.53,0,4.79.12,6.52.8,1.93.77,1.92.82-.15.46-1.48-.25-2.19-.22-2,.08s2.53.62,5.32.81c4.93.33,5,.32,2.78-.42s-2.22-.76.61-.78a22,22,0,0,1,5.06.59c2.76.78,4.33.89,4.49.31.23-.85,1.14-1.29,2.51-1.21.75,0,.72.32-.06.62-1.25.49-1.11.51,1.3.22a57,57,0,0,1,7.67-.06c2.68.16,5.1.11,5.26-.1s.66-.25,1.49.06c1.5.56,8.27.65,8.71.12.23-.29.52-.27,1,.07s2.29.38,6.4.15c6.3-.37,7.56,0,1.93.57l-3.64.37,3.3,0a11.21,11.21,0,0,0,3.58-.37c.15-.2,2-.19,4.18,0,2.47.24,4,.22,4.25-.07s-.23-.4-.85-.34-1.28-.23-1.38-.65-.72-.75-1.39-.74a27,27,0,0,1-4.26-.65c-2.64-.56-3.35-.59-5.16-.18-2.36.52-5.53.52-5.11,0,.14-.18-4.4-.27-10.2-.21s-11,0-11.63-.15a1.78,1.78,0,0,0-1.73.42c-.49.62-1,.63-4.6.07a34.06,34.06,0,0,0-7.86-.43,29.32,29.32,0,0,1-4.81,0,1.12,1.12,0,0,0-1.27.38c-.16.38-1.06.51-2.3.35a69.87,69.87,0,0,0-12.06-.33C887,23.6,887.39,23.63,893.18,23.56Z"/><path class="cls-1" d="M954.32,28.64a4.62,4.62,0,0,1,2.28.27,5,5,0,0,0,4.07.06c.91-.37.19-.55-3-.73a20.69,20.69,0,0,0-5.26.19,14.13,14.13,0,0,1-4.81.06c-4.56-.43-9.26.17-9,1.17.1.42-.79.73-2.21.78s-2.24-.09-2.09-.28-.48-.28-1.38-.2c-3.07.26-.45.93,3.51.89,2.11,0,4.79,0,5.76.06s1.68-.19,1.48-.65.12-.64,1-.41a13.31,13.31,0,0,0,4-.09,27.67,27.67,0,0,1,5-.29c1.88.11,2,.05.7-.27C953.26,28.94,953.26,28.74,954.32,28.64Z"/><path class="cls-1" d="M957.63,23.3c1.46.59,3.58.62,4,.05.14-.18-1-.4-2.63-.49C956.61,22.72,956.38,22.79,957.63,23.3Z"/><path class="cls-1" d="M928.27,30a9.59,9.59,0,0,0,3.57-.27,11.41,11.41,0,0,1,3.76-.34,2.49,2.49,0,0,0,2-.27c.3-.39-.33-.47-2.4-.33a61.55,61.55,0,0,1-6.36,0c-2-.11-3.68,0-3.84.17s1.06.35,3,.33c2.26,0,2.61,0,1.11.18S927.33,29.8,928.27,30Z"/><path class="cls-1" d="M919.53,29.38c.75.5,1.35.5,2.65,0,.77-.31.43-.44-1-.39C920,29,919.26,29.2,919.53,29.38Z"/><path class="cls-1" d="M908.12,29.74c-.33.43,5.89.72,7.45.36s2.1-.82,1.21-.87C914.77,29.11,908.31,29.5,908.12,29.74Z"/><path class="cls-1" d="M916.75,26.65a14.55,14.55,0,0,1-4.47.25c-2-.14-2.92,0-2.68.28.5.71,6.68.42,7.71-.36C918,26.34,917.81,26.29,916.75,26.65Z"/><path class="cls-1" d="M898.72,26.71c.15-.2-.61-.39-1.82-.45a8.65,8.65,0,0,0-2.18,0,5,5,0,0,0,1.82.45A3.76,3.76,0,0,0,898.72,26.71Z"/><path class="cls-1" d="M886.82,27.87c-.71.18.68.31,3.73.34,6.39.07,7.08-.07,1.83-.37A33.57,33.57,0,0,0,886.82,27.87Z"/><path class="cls-1" d="M873.87,30.58a18.92,18.92,0,0,0,5.26.81c3.17.06,3.23,0,.8-.31-1.52-.21-3.77-.56-5.26-.8C872.18,29.88,872.15,29.89,873.87,30.58Z"/><path class="cls-1" d="M879.91,30.2c2.22-.19,2-.41-.55-.56-1.2-.07-1.88.06-1.54.28A4,4,0,0,0,879.91,30.2Z"/><path class="cls-1" d="M844.54,30.33c-.26.33.14.65.86.69,1.79.1,1.82.07.59-.7C845.15,29.79,845,29.8,844.54,30.33Z"/><path class="cls-1" d="M841.46,30.42c1.95-.18,1.94-.24-.07-.36a6.62,6.62,0,0,0-2.65.17,5.8,5.8,0,0,1-2.54.11,9.13,9.13,0,0,0-3.35.26c-.72.31-.42.4,1,.29s1.52-.05.54.2A18.89,18.89,0,0,1,829,31c-2.58-.28-4-.28-4.21,0-.65.84,14.4,1.09,16.48.27.62-.24.39-.51-.5-.57C839.72,30.67,840,30.55,841.46,30.42Z"/><path class="cls-1" d="M829.51,30.66a5.75,5.75,0,0,0,1.7-.29c.06-.08-.49-.18-1.29-.23a2.82,2.82,0,0,0-1.7.29C828.07,30.63,828.66,30.73,829.51,30.66Z"/><path class="cls-1" d="M828.2,14.42c-2-.66-3.68-.83-2.88-.29.31.2-.3.41-1.31.45s-.14.18,2,.31C830.4,15.18,830.47,15.17,828.2,14.42Z"/><path class="cls-1" d="M807.85,33.5a20.62,20.62,0,0,0,3.56.2c1.06-.05.34-.17-1.67-.28S806.91,33.34,807.85,33.5Z"/><path class="cls-1" d="M813.54,14.82c1.3-.11,1.86,0,1.58.4s.41.55,3,.5c5-.09,9-.48,4.4-.43-2.83,0-3.27-.06-2.21-.48,1.77-.69-3.19-.94-6.31-.32C812.33,14.82,812.19,14.92,813.54,14.82Z"/><path class="cls-1" d="M812.72,15.87c.56-.09-.24-.23-1.73-.29s-2.06,0-1,.16A10.55,10.55,0,0,0,812.72,15.87Z"/><path class="cls-1" d="M798.05,15c4.48.55,6.44.33,3.22-.35a17.28,17.28,0,0,0-4.66-.31C794.89,14.51,795.24,14.67,798.05,15Z"/><path class="cls-1" d="M774.59,15.32c2.55.14,2.59.08.37-.66-1.41-.48-1.73-.48-2.09,0C772.63,15,773.42,15.25,774.59,15.32Z"/><path class="cls-1" d="M746.62,15c1-.29,4-.3,8.52,0,3.89.22,7.09.25,7.23.06a14,14,0,0,1,4.17-.23c2.47.06,3.35,0,2.38-.28-1.74-.43-19-.46-25.44,0a33.24,33.24,0,0,1-5.93,0c-.82-.2-1.25-.11-1.07.21C736.83,15.31,744.56,15.56,746.62,15Z"/><path class="cls-1" d="M660.33,15.91a16.25,16.25,0,0,1,4.17-.14,3.36,3.36,0,0,0,1.9,0,67.53,67.53,0,0,1,9,.09c4.58.22,8.61.29,9.1.17a13.27,13.27,0,0,1,3.42.1,13.16,13.16,0,0,0,4.9-.27,6.7,6.7,0,0,1,3.77-.17,5,5,0,0,0,2.63.13,22.3,22.3,0,0,1,4.64-.12c1.88.11,3.61,0,3.84-.25s.84-.13,1.34.25c.88.65,1.24.66,6.14.11a131.82,131.82,0,0,1,17.79-.37,1.77,1.77,0,0,0,1.41-.38c.28-.36-.72-.51-3.63-.55a47.07,47.07,0,0,0-5.62.2,34.85,34.85,0,0,1-5.48,0c-2.15-.12-4-.05-4.19.16s-2,.26-4.13.1c-6.09-.45-7.6-.45-6.87,0,.42.27-.3.28-2.07,0a13.5,13.5,0,0,0-3.85-.1,13.28,13.28,0,0,1-3.79-.08c-1.52-.2-2.67-.22-2.69,0-.1,1-1.45,1.06-8.4.63a67.81,67.81,0,0,1-7.92-.76c-.8-.44-11.86.06-14.68.66-1.41.31-2.08.32-1.88,0,.5-.73-4-.76-5.46,0a7.28,7.28,0,0,1-3.23.55,4.61,4.61,0,0,0-2.21.22C647.9,16.6,656.71,16.42,660.33,15.91Z"/><path class="cls-1" d="M658.88,23.37c-.33.43,1.15.5,4.17.22,2-.19,1.82-.27-.73-.41A8.92,8.92,0,0,0,658.88,23.37Z"/><path class="cls-1" d="M643.39,16.64a9.06,9.06,0,0,0,2.48-.22c.62-.16.14-.36-1.07-.43a5.29,5.29,0,0,0-2.48.23C642.16,16.42,642.62,16.6,643.39,16.64Z"/><path class="cls-1" d="M637.22,16.29c2.14.13,3.64,0,3.9-.33s-.18-.57-.93-.61-2.08-.2-3.07-.37a3.36,3.36,0,0,0-2.56.42C633.92,15.93,634.54,16.14,637.22,16.29Z"/><path class="cls-1" d="M624.64,16.45a29.53,29.53,0,0,0,4.37-.13L633,16l-3.66,0C625.07,16.07,623.91,16.17,624.64,16.45Z"/><path class="cls-1" d="M615.64,17.68c.62.42,9.6.95,10.77.64.48-.12-1.86-.4-5.2-.6S615.36,17.49,615.64,17.68Z"/><path class="cls-1" d="M609,16.26c-.62.1-.38.22.56.27a3.49,3.49,0,0,0,2-.25,1.73,1.73,0,0,1,1.31-.25c2.86.28,6,.24,6.21-.07s-.19-.36-.88-.4a18.2,18.2,0,0,0-3.14.26c-1.11.18-1.88.17-1.74,0s-1.4-.45-3.52-.6c-3.32-.23-3.53-.19-1.7.31C609.17,15.82,609.59,16.16,609,16.26Z"/><path class="cls-1" d="M389.62,15.2c10.85.82,12.34,1,10.26,1a21.92,21.92,0,0,0-3.67.4c-1,.24-1.3.22-1.08-.08.37-.52-5.79-1.18-8.38-.9-1.57.17-1.43.22.56.18,3-.06,3.09.34.22.81-1.44.23-1.59.36-.47.42a9.6,9.6,0,0,0,2.48-.13c.48-.13,5.35.05,10.68.39,8,.51,9.74.53,9.45.09s.53-.5,2-.41,1.78.28,1,.47-.52.32.77.27,2.1-.24,2.1-.45,1.41-.19,4.32.2c6.84.94,7.53.9,8.17-.47a1.81,1.81,0,0,1,2-1c.79.11,1.1.53.73,1s.12.81,1.15.87a3.9,3.9,0,0,0,1.87-.17c.13-.62,1.17-1.14,2.06-1,.56.07,3,0,5.29-.05s5.16-.13,6.21-.07a12.63,12.63,0,0,0,3.18-.22,15.37,15.37,0,0,1,4.23,0,30,30,0,0,0,6.07,0c3.54-.4,5.89-.38,4.28.05-.62.16-.46.35.35.4a3.29,3.29,0,0,0,1.84-.3,5.34,5.34,0,0,1,2.65-.17,45.18,45.18,0,0,0,9.58-.3,17.66,17.66,0,0,1,3.72-.06c6.62.49,13,.76,19.64.84l7.35.09-4.6-.66c-2.77-.4-3.47-.61-1.75-.53a47.43,47.43,0,0,1,6.45.88c4.1.85,5.09,1,4.37.5-.26-.17,1.7-.12,4.45.13q4.92.43,4.27,0c-.44-.3.56-.27,3.22.09a33.6,33.6,0,0,0,6,.33,25.21,25.21,0,0,1,4.85.15c2.34.32,2.33.25-.13-.55-1.57-.5-2.24-.87-1.52-.83a9.65,9.65,0,0,1,2.57.56c1.41.52,10.27.65,10.66.16a9.42,9.42,0,0,1,3.41-.16c2.54.15,2.79.09,1.27-.29-1-.27-1.22-.44-.39-.39a12.71,12.71,0,0,1,2.89.6c1.08.39,1.52.38,1.86-.05.57-.73,8.57-1,10.32-.32a43.69,43.69,0,0,0,7,.91c8.74.65,32.59,1,35.59.5,2.36-.38,2.23-.43-1.66-.66A15.3,15.3,0,0,1,603,15.89c-1.76-.94-2.44-1.06-3.95-.68a21.51,21.51,0,0,1-6,.1c-2.88-.25-4.25-.2-4.53.16s-2.4.57-5,.64-4.15,0-3.52-.17a12,12,0,0,1,3.15-.17,4.35,4.35,0,0,0,2.36-.25c.33-.43-1.94-.56-5.49-.32-1.46.09-8.16.05-14.9-.1s-14.42-.11-17.09.11a80.35,80.35,0,0,1-8.8.16,30.37,30.37,0,0,0-7.11.41c-2.42.49-3.05.51-2.72.07.52-.66-7.84-1.24-10.89-.75a62.91,62.91,0,0,1-8.17.07c-16.39-.71-35.59-1-35.68-.51-.13.69-1.06.86-1.84.35s-1.92-.6-8-.56c-27.16.2-35.57.41-38.43,1-1.83.35-2.7.45-2,.24,1.35-.42-1.24-.68-5.27-.54-3.79.14-3.39.76.44.69,5.56-.1,1.59.31-4.56.47-4.86.13-6,.06-7.45-.5s-4-.74-13-1.07c-6.26-.23-11.72-.34-12.25-.26C381.53,14.57,382.34,14.66,389.62,15.2Z"/><path class="cls-1" d="M590.6,24.24c-.16.2.6.4,1.81.47a8.26,8.26,0,0,0,2.19,0c.07-.09-.69-.29-1.81-.47A3.65,3.65,0,0,0,590.6,24.24Z"/><path class="cls-1" d="M436.82,20.13a46.18,46.18,0,0,0,5,.28c1.41,0,.33-.16-2.36-.31S435.54,20,436.82,20.13Z"/><path class="cls-1" d="M405.92,19.8a9.55,9.55,0,0,0,2.43.66,6,6,0,0,0,2.78.21c.14-.18-.9-.46-2.43-.66A14.7,14.7,0,0,0,405.92,19.8Z"/><path class="cls-1" d="M398.88,20.22a9,9,0,0,0,2.74-.11c1.64-.26,1.5-.31-.66-.22C399.52,19.94,398.53,20.1,398.88,20.22Z"/><path class="cls-1" d="M393.75,19.89a10.75,10.75,0,0,0,2.7.12c.58-.09-.18-.22-1.66-.28C393.16,19.66,392.75,19.72,393.75,19.89Z"/><path class="cls-1" d="M384,15.29c.55-.08-.25-.21-1.73-.29s-2.05,0-1,.15A10.56,10.56,0,0,0,384,15.29Z"/><path class="cls-1" d="M371.19,15.78c.18.64-.46.85-2.57.87-3.1,0-4.59.57-2,.72.9.05,5-.09,9.2-.31,7.44-.39,10.42-1.14,5.57-1.4-2.15-.12-2.22-.08-.56.36s1.48.43-.53.14C372,15,370.94,14.91,371.19,15.78Z"/><path class="cls-1" d="M375.55,22.51a10.55,10.55,0,0,0,2.77.13c.56-.09-.25-.23-1.73-.29S374.53,22.34,375.55,22.51Z"/><path class="cls-1" d="M376.61,15a1.58,1.58,0,0,0,2.17-.12c.23-.3-.28-.47-1.16-.39S376.28,14.83,376.61,15Z"/><path class="cls-1" d="M367.74,15.62a5.94,5.94,0,0,0,2.62-.58c.73-.38,1.05-.67.75-.69a13.29,13.29,0,0,0-2.63.58C367.29,15.28,367,15.58,367.74,15.62Z"/><path class="cls-1" d="M360.55,16.23c2.71.3,7.4,0,6.34-.42a19.1,19.1,0,0,0-3.44-.43c-1.48-.09-2.17-.29-1.54-.46s.21-.35-.87-.41C358.29,14.35,357.83,15.94,360.55,16.23Z"/><path class="cls-1" d="M365.41,15.1a2.66,2.66,0,0,0,1.68-.27c.15-.2-.33-.38-1.14-.42a2.75,2.75,0,0,0-1.68.26C364.12,14.87,364.61,15.06,365.41,15.1Z"/><path class="cls-1" d="M352.81,16.69c.24.34,1.77.55,4.13.58,4.93.05,5.2-.39.55-.89C353.1,15.91,352.3,16,352.81,16.69Z"/><path class="cls-1" d="M328.32,16a22.58,22.58,0,0,1,4.14-.2c1.79.1,1.7.16-.54.34-2.84.23-4.22.85-2.16,1a46.41,46.41,0,0,0,5-.45c2.66-.35,3.22-.56,1.85-.67-1.1-.1,0-.17,2.51-.17,5.31,0,6,.15,3.22.68-1.4.27-1.64.51-.73.71.72.16,1.51.13,1.66-.06a11,11,0,0,1,3.77-.17c2.93.16,3.62,0,4.29-.84s1.31-.95,2.79-.71,3.34.1,1.94-.16c-.2,0-2.41-.23-4.91-.43-3.43-.27-4.27-.23-3.41.16.61.28.62.6,0,.69-2.07.32-3.48.05-3.09-.59.23-.37,0-.45-.7-.21a10.08,10.08,0,0,1-3.08.28c-4.56-.26-13.85.17-14.23.65S326.72,16.27,328.32,16Z"/><path class="cls-1" d="M342.58,19.93a35,35,0,0,1-9.09-.4,9.6,9.6,0,0,0-3.7-.19c-2,.21-1.94.24.2.19a9,9,0,0,1,3.08.28c1,.7,12.94,1.09,16.86.54l3.76-.52-5.06-.06A54,54,0,0,0,342.58,19.93Z"/><path class="cls-1" d="M313.17,18.84a19.44,19.44,0,0,1-5.11.1c-4.23-.33-5.72,0-3,.65a17.08,17.08,0,0,0,7,.42c.88-.22.88-.06,0,.38s-.87.79.18.85,1.74-.32,1.87-1.15c.19-1.21.31-1.23,4.38-.87a49.23,49.23,0,0,0,6.57.2q2.37-.18-4.24-.58C316.66,18.58,313.81,18.58,313.17,18.84Z"/><path class="cls-1" d="M302.22,14.83c.94.05,1.55.25,1.39.46-.46.6,3.15,1.76,4.46,1.43a43.75,43.75,0,0,1,6.25-.27c6,.06,11.19-.9,9.14-1.67-1.27-.48-3.24-.43-2.49.06.47.32,0,.35-1.49.11s-2.33-.16-2.58.17.27.55,1.21.61c3.43.19-.59.39-5.54.28a26.94,26.94,0,0,1-7.5-.88,9.88,9.88,0,0,0-3.41-.58C301,14.65,301.28,14.77,302.22,14.83Z"/><path class="cls-1" d="M314.33,14.85c1.1-.18,1.29-.39.5-.58a6,6,0,0,0-2.43,0C310.66,14.75,312.21,15.2,314.33,14.85Z"/><path class="cls-1" d="M300.83,19.59c2.36.39,2.94.22.91-.27a6.81,6.81,0,0,0-2.09-.19C299.2,19.2,299.72,19.4,300.83,19.59Z"/><path class="cls-1" d="M281.52,16.34c4,.49,6.28.38,6.82-.32.25-.31,1.79-.41,4.19-.25l3.79.25-3.69.07c-3.31.06-3.16.1,1.51.4,5.6.35,7.56-.15,4.38-1.13a5,5,0,0,0-3-.19,28,28,0,0,1-6-.06c-3.41-.29-4.62-.28-4.37.07s-1.29.56-4.82.23C277,15.12,278.08,15.91,281.52,16.34Z"/><path class="cls-1" d="M294.87,19c-.24.3.29.49,1.14.41a3.75,3.75,0,0,0,1.84-.47c.15-.19-.35-.36-1.15-.41A2.58,2.58,0,0,0,294.87,19Z"/><path class="cls-1" d="M284.74,19a9.43,9.43,0,0,0-2.5.2c-1.36.35,4.35,1.11,8.15,1.09,1.47,0,.61-.15-1.92-.32s-4.12-.42-3.46-.59S285.55,19,284.74,19Z"/><path class="cls-1" d="M294.09,14.75c1.64-.27,1.51-.32-.66-.23-1.44.05-2.43.21-2.08.33A8.55,8.55,0,0,0,294.09,14.75Z"/><path class="cls-1" d="M282.4,14.66c1.07-.05.35-.17-1.66-.29s-2.83-.08-1.89.09A22.76,22.76,0,0,0,282.4,14.66Z"/><path class="cls-1" d="M270.92,16.28c1.46.11,2,.32,1.22.51s-.27.25,1.95.1c3.85-.26,4.78-.66,1.26-.53-1.76.06-2-.08-.89-.57.81-.37.78-.69-.06-.73a2.79,2.79,0,0,0-1.86.41,4.25,4.25,0,0,1-2.27.57C269.19,16.08,269.46,16.18,270.92,16.28Z"/><path class="cls-1" d="M268.91,19.51a16.49,16.49,0,0,0,2.42-.59c1.59-.47,1.64-.64.21-.72a3.31,3.31,0,0,0-2.42.59C268.81,19.19,268.72,19.5,268.91,19.51Z"/><path class="cls-1" d="M264.78,15a4.82,4.82,0,0,0,3.35.52c1.25-.21,1.15-.4-.34-.64-1.11-.19-1.57-.49-1-.65s.2-.35-1-.42C263.11,13.69,262.82,14,264.78,15Z"/><path class="cls-1" d="M251.17,18.47c-.19.25,12.38.83,13.79.63a18.25,18.25,0,0,0-3.31-.42C256.57,18.19,251.47,18.09,251.17,18.47Z"/><path class="cls-1" d="M260.28,15.93c2.1-.18,2.55-.67,1-1.06-.71-.18-.82-.44-.25-.59s.11-.33-1-.39a9.55,9.55,0,0,0-3.4.44C255.09,14.94,257.84,16.14,260.28,15.93Z"/><path class="cls-1" d="M250.37,16.61a12.59,12.59,0,0,1,3.62,0,12.82,12.82,0,0,0,3.61,0c.69-.18-.05-.39-1.66-.48s-2.75-.32-2.59-.53-.48-.65-1.34-1c-1.38-.52-1.73-.45-2.28.5s-1.32,1.12-4.33,1.16l-3.68,0,3.71.27A24,24,0,0,0,250.37,16.61Z"/><path class="cls-1" d="M241.34,18.78a3.75,3.75,0,0,0,2.18,0c.15-.2-.61-.39-1.82-.46a9,9,0,0,0-2.18,0A5.06,5.06,0,0,0,241.34,18.78Z"/><path class="cls-1" d="M235,17.24c.58-.16.67-.37.21-.55-1.09-.41-4.35-.52-4.63-.16S233.84,17.54,235,17.24Z"/><path class="cls-1" d="M234.76,15a2.76,2.76,0,0,0,1.69-.29c.16-.2-.43-.3-1.29-.23a5.73,5.73,0,0,0-1.69.29C233.4,14.86,234,15,234.76,15Z"/><path class="cls-1" d="M226.71,15.81a6.22,6.22,0,0,0,1.69-.28c.07-.09-.48-.19-1.29-.23a2.71,2.71,0,0,0-1.69.28C225.26,15.78,225.85,15.89,226.71,15.81Z"/><path class="cls-1" d="M215.4,16.68c.55-.08-.26-.21-1.74-.29s-2,0-1,.15A10.64,10.64,0,0,0,215.4,16.68Z"/><path class="cls-1" d="M195.39,15a3.7,3.7,0,0,0-2,.25c-.16.19,1.74.46,4.28.61,4.16.23,4.64.16,5.51-.79.51-.56.42-1.07-.19-1.1s-1.09.05-1,.22c.21.43-1.27.45-3.75,0-3-.49-5.23-.15-2.86.43C196.55,14.91,196.55,15,195.39,15Z"/><path class="cls-1" d="M189.52,15.49c1.12.18,2.14.13,2.33-.12s-.58-.51-1.79-.58a6.23,6.23,0,0,0-2.34.13C187.61,15.06,188.4,15.31,189.52,15.49Z"/><path class="cls-1" d="M184.64,15.46c.94,0,1.32,0,.91-.17s.14-.6,1.21-1c1.46-.58,1.44-.79-.09-.87a3.11,3.11,0,0,0-2.82.93C183.41,14.89,183.77,15.41,184.64,15.46Z"/><path class="cls-1" d="M145.92,14.73a17.2,17.2,0,0,1,3.93-.16,8.7,8.7,0,0,0,3-.15c.12-.16-1.38-.39-3.26-.5-2.28-.12-3.66,0-4,.37s-.62.49-1.43,0c-.58-.38-1.07-.44-1.29-.17C142.4,14.63,144.54,15.09,145.92,14.73Z"/><path class="cls-1" d="M138.48,14.53c1.06,0,.34-.17-1.67-.29s-2.83-.07-1.89.09A21.66,21.66,0,0,0,138.48,14.53Z"/></svg>