<?xml version="1.0" encoding="utf-8"?>
<!-- Generator: Adobe Illustrator 24.0.1, SVG Export Plug-In . SVG Version: 6.00 Build 0)  -->
<svg version="1.1" id="Camada_1" xmlns="http://www.w3.org/2000/svg" xmlns:xlink="http://www.w3.org/1999/xlink" x="0px" y="0px"
	 viewBox="0 0 150 50" style="enable-background:new 0 0 150 50;" xml:space="preserve">
<style type="text/css">
	.st0{fill:#0096F5;}
	.st1{font-family:'VinegarStroke';}
	.st2{font-size:17.8927px;}
</style>
<g>
	<g>
		<g>
			<g>
				<path class="st0" d="M2.2,26.2c0,5.7,2.7,6.1,6.2,7.3c7,2.5,17.5-0.1,17.4-8.9l-6.5,0c0,2.9-0.4,2.8-3.9,3c-0.1,0-0.1,0-0.1-0.2
					l-0.1-8.4l0-0.1l-0.6,0l-0.1,0.1l0,2.6c0,0.1,0,0.1-0.1,0.1l-1.5,0c-0.1,0-0.1,0-0.1-0.1l0-4.9c0-0.1,0-0.1,0.1-0.1l4.6,0
					c1.7,0,1.7,0.1,1.7,3.1l6.5,0C25.6,6.4,2,6.7,2.1,17.3c0,0,0,2.2,0,4.5C2.2,24,2.1,29.3,2.2,26.2z M14.6,25.6l0,4.3l-0.7,1.5
					l-0.9-1.5l0-2.1c0-0.1,0-0.1-0.1-0.1c-4.3,0-4.3,0-4.3-1.3l0-0.8c0-0.1,0.1-0.1,0.1-0.1l5.9,0C14.6,25.5,14.6,25.5,14.6,25.6z
					 M14.4,22.7c0.1,0,0.1,0,0.1,0.1l0,1.8c0,0.1,0,0.1-0.1,0.1l-5.8,0c-0.2,0-0.2,0-0.2-0.3l0-1.5c0-0.3,0-0.3,0.2-0.3L14.4,22.7z
					 M13.2,13.2l1.1,0c0.2,0,0.2,0,0.2,0.2l0,2.4c0,0.1,0,0.1-0.1,0.1l-1.5,0c-0.1,0-0.1,0-0.1-0.1l0-2.3
					C12.8,13.2,12.8,13.2,13.2,13.2z M12.1,19.9l0,1.9c0,0.1,0,0-0.1,0.1l-3.4,0c-0.3,0-0.3,0-0.3-0.3l0-1.5c0-0.2,0-0.2,0.3-0.2
					C9.8,19.9,11,19.9,12.1,19.9C12.1,19.9,12.1,19.9,12.1,19.9z M12,16.7C12.1,16.7,12.1,16.7,12,16.7l0.1,2.3c0,0.1,0,0.1-0.1,0.1
					l-3.4,0c-0.1,0-0.1,0-0.1-0.1c0-0.4,0-0.7,0-1.1C8.4,16.7,8.2,16.7,12,16.7z"/>
			</g>
			<g>
				<path class="st0" d="M32.5,26.4c0-1.2,0.5-1.8,1.5-1.8c0.3,0,0.7,0.1,1,0.3l0.1-4.7C34.5,20.1,34,20,33.5,20
					c-1.9,0-3.4,0.4-4.6,1.4c-1.2,1-1.8,2.3-1.8,4.1L27,31.9l5.4,0.1L32.5,26.4z"/>
			</g>
			<g>
				<path class="st0" d="M39.8,19.4c0.8,0,1.4-0.2,2-0.6c0.5-0.4,0.8-0.9,0.8-1.5c0-0.6-0.2-1.1-0.8-1.5c-0.5-0.4-1.2-0.7-1.9-0.7
					c-0.7,0-1.4,0.2-1.9,0.6c-0.5,0.4-0.8,0.9-0.8,1.5c0,0.6,0.2,1.1,0.7,1.5C38.3,19.1,39,19.3,39.8,19.4z"/>
			</g>
			<g>
				
					<rect x="33.6" y="23.6" transform="matrix(2.074027e-02 -0.9998 0.9998 2.074027e-02 12.4205 65.2876)" class="st0" width="11.8" height="5.4"/>
			</g>
			<g>
				<path class="st0" d="M45.9,30.6c1.4,1.2,3.2,1.8,5.4,1.9c0.4,0,0.8,0,1.2-0.1l0.1-4.6c-0.4,0.2-0.9,0.3-1.3,0.3
					c-0.6,0-1.1-0.2-1.4-0.5c-0.4-0.3-0.6-0.7-0.5-1.2c0-0.5,0.2-0.9,0.6-1.2c0.4-0.3,0.9-0.5,1.5-0.5c0.6,0,1.1,0.2,1.5,0.6
					c0.4,0.4,0.5,0.9,0.5,1.5l-0.1,5.5l5.4,0.1l0.1-5.8c0-1.9-0.6-3.5-1.9-4.6c-1.3-1.1-3.2-1.7-5.5-1.8c-2.1,0-3.9,0.5-5.4,1.7
					c-1.5,1.2-2.3,2.6-2.3,4.3C43.8,28,44.5,29.4,45.9,30.6z"/>
			</g>
		</g>
	</g>
	<text transform="matrix(1.2712 0 0 1 60.3452 33.185)" class="st1 st2">estampa</text>
</g>
</svg>
